<svg xmlns="http://www.w3.org/2000/svg" xmlns:xlink="http://www.w3.org/1999/xlink" width="1366" zoomAndPan="magnify" viewBox="0 0 1024.5 576" height="768" preserveAspectRatio="xMidYMid meet" version="1.0"><defs><clipPath id="7c73d1cc70"><path d="M 0 0.140625 L 1024 0.140625 L 1024 575.859375 L 0 575.859375 Z M 0 0.140625 " clip-rule="nonzero"/></clipPath><clipPath id="296d38af10"><path d="M 169 45 L 354 45 L 354 247 L 169 247 Z M 169 45 " clip-rule="nonzero"/></clipPath><clipPath id="63058564c1"><path d="M 11.746094 83.324219 L 584.609375 -13.363281 L 670.070312 492.976562 L 97.203125 589.664062 Z M 11.746094 83.324219 " clip-rule="nonzero"/></clipPath><clipPath id="27f85e71ab"><path d="M 11.746094 83.324219 L 584.609375 -13.363281 L 670.070312 492.976562 L 97.203125 589.664062 Z M 11.746094 83.324219 " clip-rule="nonzero"/></clipPath><clipPath id="7986b21524"><path d="M 379 163 L 633 163 L 633 429 L 379 429 Z M 379 163 " clip-rule="nonzero"/></clipPath><clipPath id="2ee214d54e"><path d="M 11.746094 83.324219 L 584.609375 -13.363281 L 670.070312 492.976562 L 97.203125 589.664062 Z M 11.746094 83.324219 " clip-rule="nonzero"/></clipPath><clipPath id="ada8fc5ebd"><path d="M 11.746094 83.324219 L 584.609375 -13.363281 L 670.070312 492.976562 L 97.203125 589.664062 Z M 11.746094 83.324219 " clip-rule="nonzero"/></clipPath><clipPath id="11be3ab9d4"><path d="M 75 266 L 356 266 L 356 570 L 75 570 Z M 75 266 " clip-rule="nonzero"/></clipPath><clipPath id="db6cd6cc39"><path d="M 11.746094 83.324219 L 584.609375 -13.363281 L 670.070312 492.976562 L 97.203125 589.664062 Z M 11.746094 83.324219 " clip-rule="nonzero"/></clipPath><clipPath id="f8f650d21c"><path d="M 11.746094 83.324219 L 584.609375 -13.363281 L 670.070312 492.976562 L 97.203125 589.664062 Z M 11.746094 83.324219 " clip-rule="nonzero"/></clipPath></defs><g clip-path="url(#7c73d1cc70)"><path fill="#ffffff" d="M 0 0.140625 L 1024 0.140625 L 1024 575.859375 L 0 575.859375 Z M 0 0.140625 " fill-opacity="1" fill-rule="nonzero"/><path fill="#fdf8f4" d="M 0 0.140625 L 1024 0.140625 L 1024 575.859375 L 0 575.859375 Z M 0 0.140625 " fill-opacity="1" fill-rule="nonzero"/></g><g clip-path="url(#296d38af10)"><g clip-path="url(#63058564c1)"><g clip-path="url(#27f85e71ab)"><path fill="#efe8df" d="M 352.140625 103.472656 C 352.234375 103.386719 352.328125 103.300781 352.421875 103.214844 C 354.0625 101.6875 352.914062 98.691406 350.539062 99.117188 C 342.855469 100.5 335.039062 101.59375 327.472656 103.496094 C 325.613281 103.960938 323.753906 104.398438 321.890625 104.820312 C 315.34375 106.117188 308.789062 107.347656 302.269531 108.78125 C 298.136719 109.6875 294.023438 110.671875 289.902344 111.636719 C 288.328125 112.003906 287.832031 113.519531 288.167969 114.726562 C 288.335938 115.90625 289.257812 116.917969 290.742188 116.535156 C 298.296875 114.582031 305.832031 112.902344 313.488281 111.398438 C 316.859375 110.734375 320.203125 109.984375 323.542969 109.222656 C 328.402344 108.246094 333.253906 107.234375 338.09375 106.152344 C 338.988281 105.957031 339.882812 105.785156 340.78125 105.621094 C 341.09375 105.566406 341.40625 105.511719 341.71875 105.453125 C 342.246094 105.363281 342.777344 105.28125 343.308594 105.199219 C 341.675781 106.640625 340.023438 108.054688 338.316406 109.4375 C 336.632812 110.792969 334.992188 112.054688 333.195312 113.257812 C 331.25 114.558594 329.121094 115.746094 327.328125 117.257812 C 325.113281 119.125 323.027344 121.148438 320.78125 122.972656 C 318.890625 124.5 316.792969 125.820312 314.808594 127.230469 C 314.328125 127.570312 313.839844 127.902344 313.371094 128.25 C 313.328125 128.28125 313.3125 128.292969 313.28125 128.316406 C 312.046875 128.972656 310.855469 129.734375 309.648438 130.441406 C 307.777344 131.535156 305.929688 132.644531 304.003906 133.636719 C 301.523438 134.917969 298.652344 135.992188 296.414062 137.679688 C 294.039062 139.46875 291.761719 141.40625 289.441406 143.265625 C 288.578125 143.957031 288.472656 145.074219 288.824219 146.042969 C 289.78125 148.703125 290.738281 151.363281 291.695312 154.023438 C 292.148438 155.285156 292.734375 156.496094 293.347656 157.691406 C 293.113281 157.980469 292.878906 158.273438 292.640625 158.558594 C 292.125 159.179688 292.089844 160.195312 292.425781 160.898438 C 294.101562 164.394531 295.710938 167.90625 297.621094 171.28125 C 298.632812 173.0625 299.777344 174.824219 300.664062 176.667969 C 301.730469 178.878906 302.558594 181.234375 303.5 183.5 C 304.871094 186.808594 306.90625 189.835938 308.675781 192.945312 C 310.753906 196.597656 312.832031 200.074219 314.335938 203.992188 C 315.261719 206.40625 316.128906 208.832031 316.972656 211.269531 C 314.5 209.839844 312.039062 208.398438 309.589844 206.941406 C 306.476562 204.867188 303.363281 202.796875 300.238281 200.738281 C 297.007812 198.613281 294.277344 195.863281 291.210938 193.519531 C 287.679688 190.820312 284.023438 188.375 280.617188 185.515625 C 277.347656 182.773438 273.984375 180.230469 270.5625 177.707031 C 269.964844 177.164062 269.371094 176.625 268.769531 176.078125 C 267.894531 175.28125 266.09375 175.632812 265.515625 176.628906 C 262.953125 181.039062 260.378906 185.421875 257.683594 189.75 C 256.441406 191.746094 255.332031 193.644531 254.363281 195.777344 C 253.386719 197.921875 252.472656 200.113281 251.414062 202.214844 C 248.523438 206.734375 245.875 211.375 243.257812 216.050781 C 241.089844 219.929688 239.347656 224.019531 237.296875 227.960938 C 236.410156 229.667969 235.519531 231.371094 234.632812 233.078125 C 234.308594 233.699219 233.980469 234.320312 233.660156 234.941406 C 233.636719 234.972656 233.613281 235.003906 233.570312 235.066406 C 233.484375 235.1875 233.410156 235.320312 233.328125 235.441406 C 233.433594 233.3125 233.523438 231.179688 233.566406 229.039062 C 233.613281 226.761719 233.660156 224.578125 233.953125 222.324219 C 234.289062 219.730469 234.6875 217.140625 234.957031 214.539062 C 236.019531 204.433594 236.394531 194.285156 237.925781 184.230469 C 238.851562 178.167969 239.902344 172.179688 241.066406 166.160156 C 241.253906 165.1875 240.480469 164.046875 239.570312 163.738281 C 235.441406 162.339844 231.320312 160.929688 227.160156 159.625 C 224.960938 158.933594 222.757812 158.09375 220.503906 157.59375 C 217.816406 156.996094 215.113281 156.449219 212.421875 155.878906 C 212.058594 155.800781 211.699219 155.71875 211.335938 155.648438 C 211.304688 155.636719 211.285156 155.628906 211.238281 155.613281 C 210 155.1875 208.726562 154.851562 207.472656 154.46875 C 205.515625 153.875 203.570312 153.21875 201.589844 152.710938 C 196.941406 151.523438 192.296875 150.371094 187.679688 149.074219 C 185.476562 148.453125 183.308594 147.78125 181.050781 147.402344 C 180.925781 147.382812 180.800781 147.359375 180.671875 147.339844 C 180.691406 147.332031 180.710938 147.324219 180.730469 147.316406 C 181.121094 147.15625 181.664062 147.035156 182.007812 146.792969 C 182.015625 146.789062 182.015625 146.789062 182.019531 146.785156 C 182.046875 146.773438 182.078125 146.765625 182.105469 146.757812 C 183.605469 146.3125 185.101562 145.863281 186.601562 145.417969 C 190.929688 144.128906 195.285156 142.738281 199.6875 141.730469 C 204.910156 140.539062 210.144531 139.464844 215.355469 138.207031 C 217.539062 137.675781 219.65625 137.003906 221.800781 136.324219 C 223.265625 135.863281 224.730469 135.398438 226.195312 134.9375 C 226.242188 134.921875 226.285156 134.910156 226.328125 134.898438 C 226.320312 134.902344 226.316406 134.902344 226.308594 134.902344 C 226.320312 134.902344 226.328125 134.898438 226.335938 134.898438 C 226.539062 134.847656 226.683594 134.835938 226.742188 134.839844 C 227.09375 134.761719 227.464844 134.621094 227.78125 134.546875 C 233.382812 133.191406 238.9375 132.089844 244.617188 131.089844 C 245.554688 130.921875 246.53125 130.039062 246.550781 129.023438 C 246.644531 123.398438 246.675781 117.871094 246.382812 112.253906 C 246.125 107.433594 246.027344 102.4375 245.136719 97.691406 C 244.808594 95.929688 244.476562 94.171875 244.148438 92.410156 C 244.003906 91.644531 243.859375 90.875 243.714844 90.109375 C 243.667969 89.859375 243.636719 89.597656 243.574219 89.347656 C 243.804688 88.234375 243.742188 86.9375 243.828125 85.828125 C 243.96875 84.082031 244.109375 82.332031 244.246094 80.582031 C 244.460938 77.917969 243.863281 75.136719 243.578125 72.492188 C 243.496094 71.753906 243.417969 71.019531 243.339844 70.28125 C 243.320312 70.125 243.304688 69.964844 243.289062 69.804688 C 243.566406 68.730469 243.378906 67.265625 243.429688 66.183594 C 243.550781 63.363281 243.527344 60.503906 243.898438 57.703125 C 244.023438 56.773438 244.148438 55.847656 244.269531 54.917969 C 245.484375 57.324219 246.683594 59.738281 247.851562 62.171875 C 248.855469 64.257812 249.832031 66.132812 251.140625 68.035156 C 252.140625 69.492188 253.144531 70.949219 254.144531 72.40625 C 254.457031 72.863281 254.761719 73.328125 255.085938 73.777344 C 255.105469 73.820312 255.117188 73.863281 255.152344 73.9375 C 255.457031 74.601562 255.789062 75.25 256.105469 75.902344 C 256.949219 78.007812 257.914062 80.117188 258.894531 82.105469 C 259.996094 84.328125 261.527344 86.410156 262.835938 88.515625 C 264.300781 90.875 265.726562 93.285156 267.0625 95.738281 C 267.457031 96.492188 267.859375 97.242188 268.257812 97.992188 C 268.617188 98.691406 268.976562 99.386719 269.3125 100.09375 C 270.535156 102.648438 271.597656 105.371094 273.042969 107.804688 C 274 109.417969 275.015625 110.996094 276.039062 112.570312 C 276.589844 113.652344 277.15625 114.71875 277.703125 115.804688 C 278.328125 117.050781 279.578125 117.285156 280.601562 116.917969 C 280.773438 116.882812 280.941406 116.832031 281.117188 116.753906 C 282.148438 116.285156 282.921875 114.714844 282.246094 113.652344 C 281.59375 112.625 280.945312 111.601562 280.292969 110.578125 C 278.523438 107.089844 276.71875 103.632812 274.804688 100.214844 C 272.550781 96.195312 270.582031 92.003906 268.257812 88.03125 C 266.75 85.457031 265.109375 82.957031 263.632812 80.359375 C 262.601562 78.539062 261.703125 76.632812 260.777344 74.75 C 260.625 74.367188 260.46875 73.984375 260.308594 73.613281 C 259.394531 71.5 258.242188 69.699219 257 67.761719 C 256.09375 66.347656 255.183594 64.929688 254.277344 63.515625 C 254.242188 63.460938 254.207031 63.40625 254.171875 63.351562 C 254.171875 63.351562 254.179688 63.355469 254.175781 63.347656 C 254.066406 62.945312 253.777344 62.527344 253.597656 62.15625 C 252.359375 59.597656 251.242188 56.925781 249.832031 54.453125 C 248.625 52.335938 247.339844 50.253906 246.066406 48.167969 C 245.777344 47.601562 245.496094 47.035156 245.203125 46.46875 C 244.640625 45.371094 243.625 45.015625 242.699219 45.214844 C 241.695312 45.261719 240.761719 45.914062 240.589844 47.214844 C 240.480469 48.03125 240.371094 48.84375 240.261719 49.65625 C 239.863281 51.582031 239.46875 53.507812 239.070312 55.429688 C 238.628906 57.566406 238.804688 59.808594 238.769531 61.984375 C 238.734375 64.253906 238.640625 66.21875 238.21875 68.441406 C 237.78125 70.757812 237.277344 73.078125 236.910156 75.410156 C 236.460938 78.292969 235.957031 81.207031 235.65625 84.109375 C 235.402344 86.554688 235.449219 89.058594 235.363281 91.515625 C 235.207031 95.820312 234.949219 100.136719 234.5625 104.429688 C 234.316406 107.167969 234.242188 109.984375 233.78125 112.695312 C 233.355469 115.191406 232.820312 117.675781 232.3125 120.160156 C 228.84375 121.71875 225.398438 123.3125 221.808594 124.582031 C 217.222656 126.210938 212.75 127.953125 208.25 129.808594 C 204.683594 131.28125 201.03125 132.527344 197.414062 133.863281 C 194.875 134.804688 192.339844 135.746094 189.800781 136.6875 C 188.089844 137.324219 186.601562 138.3125 185.027344 139.234375 C 181.5625 141.265625 178.046875 143.0625 174.46875 144.824219 C 173.382812 145.273438 172.296875 145.722656 171.210938 146.167969 C 168.941406 147.09375 169.832031 150.25 171.960938 150.605469 C 172.195312 150.644531 172.429688 150.683594 172.664062 150.722656 C 179.410156 152.722656 186.167969 154.820312 193.050781 156.289062 C 195.289062 156.765625 197.523438 157.28125 199.769531 157.71875 C 200.046875 157.871094 200.433594 157.929688 200.730469 158.023438 C 201.890625 158.390625 203.050781 158.757812 204.210938 159.125 C 208.03125 160.332031 211.753906 161.679688 215.507812 163.082031 C 218.75 164.292969 222.097656 165.164062 225.4375 166.070312 C 225.507812 168.324219 225.582031 170.578125 225.652344 172.832031 C 225.730469 175.269531 225.425781 177.722656 225.261719 180.152344 C 224.949219 184.878906 224.964844 189.605469 225.023438 194.347656 C 225.097656 200.265625 225.28125 206.136719 225.632812 212.042969 C 225.90625 216.65625 226.4375 221.25 226.648438 225.863281 C 226.78125 228.84375 226.773438 231.867188 227.078125 234.835938 C 227.367188 237.675781 227.785156 240.507812 228.164062 243.339844 C 228.144531 243.613281 228.132812 243.882812 228.117188 244.160156 C 227.988281 245.996094 230.433594 247.75 231.9375 246.1875 C 233.863281 244.183594 235.789062 242.179688 237.714844 240.175781 C 238.398438 239.464844 239.074219 238.828125 239.523438 237.941406 C 240.179688 236.644531 240.808594 235.335938 241.449219 234.03125 C 243.578125 229.699219 246.058594 225.453125 247.984375 221.03125 C 249.144531 218.367188 250.0625 215.570312 251.097656 212.851562 C 251.949219 210.625 253.304688 208.535156 254.425781 206.4375 C 254.796875 205.738281 255.144531 205.039062 255.492188 204.339844 C 256.195312 203.082031 256.867188 201.808594 257.519531 200.5 C 258.261719 199 259.007812 197.503906 259.75 196.003906 C 259.878906 195.746094 260.484375 194.636719 259.859375 195.75 C 260.050781 195.410156 260.234375 195.066406 260.421875 194.726562 C 262.863281 190.292969 265.40625 186.007812 268.074219 181.738281 C 270.40625 183.890625 272.742188 186.035156 275.261719 187.96875 C 279.09375 190.910156 282.949219 193.667969 286.945312 196.378906 C 290.15625 198.554688 292.691406 201.550781 295.796875 203.851562 C 299.339844 206.472656 303.222656 208.746094 307.054688 210.925781 C 307.367188 211.101562 307.675781 211.285156 307.988281 211.464844 C 311.945312 214.089844 316.023438 216.40625 320.164062 218.75 C 321.675781 219.609375 324.472656 218.621094 323.820312 216.460938 C 322.980469 213.675781 322.140625 210.890625 321.300781 208.105469 C 320.613281 205.828125 319.617188 203.703125 318.664062 201.523438 C 316.730469 197.09375 315.210938 192.445312 313.175781 188.074219 C 311.882812 185.296875 310.320312 182.644531 308.988281 179.886719 C 307.910156 177.652344 307.097656 175.257812 306.175781 172.957031 C 304.476562 168.722656 302.164062 164.785156 300.121094 160.710938 C 299.730469 159.933594 299.316406 159.15625 298.90625 158.375 C 299.9375 157.167969 300.957031 155.953125 301.914062 154.691406 C 301.921875 154.679688 301.925781 154.679688 301.9375 154.667969 C 302.476562 154.160156 302.996094 153.621094 303.523438 153.097656 C 304.816406 151.820312 306.109375 150.539062 307.40625 149.257812 C 311.003906 145.695312 314.328125 141.824219 317.722656 138.066406 C 318.621094 137.066406 319.546875 136.085938 320.429688 135.070312 C 320.433594 135.066406 320.433594 135.070312 320.433594 135.066406 C 320.59375 134.972656 320.746094 134.789062 320.882812 134.664062 C 321.472656 134.136719 322.0625 133.613281 322.648438 133.085938 C 324.632812 131.308594 326.675781 129.617188 328.433594 127.613281 C 330.1875 125.617188 331.917969 123.597656 333.699219 121.628906 C 335.5625 119.574219 337.375 117.359375 339.375 115.429688 C 339.292969 115.546875 340.089844 114.894531 340.304688 114.71875 C 341.058594 114.097656 341.8125 113.476562 342.570312 112.859375 C 343.804688 111.84375 345.128906 110.886719 346.300781 109.796875 C 348.335938 107.898438 350.136719 105.671875 352.03125 103.628906 C 352.078125 103.582031 352.097656 103.523438 352.140625 103.472656 Z M 243.570312 89.335938 C 243.570312 89.332031 243.570312 89.328125 243.570312 89.324219 C 243.464844 88.945312 243.613281 88.945312 243.570312 89.335938 Z M 225.714844 128.132812 C 227.699219 127.429688 229.597656 126.476562 231.519531 125.625 C 232.71875 125.089844 233.960938 124.609375 235.128906 124.015625 C 236.339844 123.40625 236.601562 122.410156 236.839844 121.207031 C 237.382812 118.464844 238.042969 115.71875 238.472656 112.953125 C 238.835938 110.609375 238.914062 108.191406 239.128906 105.828125 C 239.453125 102.222656 239.710938 98.605469 239.875 94.988281 C 239.90625 95.136719 239.933594 95.28125 239.964844 95.429688 C 240.871094 100.269531 241.359375 105.160156 241.621094 110.082031 C 241.726562 112.082031 241.832031 114.082031 241.9375 116.085938 C 241.980469 116.894531 242.019531 117.707031 242.066406 118.519531 C 242.070312 118.589844 242.074219 118.621094 242.078125 118.671875 C 242.074219 118.707031 242.070312 118.726562 242.070312 118.78125 C 241.949219 121.457031 241.945312 124.144531 241.921875 126.828125 C 237.644531 127.59375 233.410156 128.394531 229.175781 129.417969 C 226.992188 129.945312 224.863281 130.5 222.722656 131.175781 C 221.078125 131.695312 219.433594 132.214844 217.789062 132.734375 C 217.335938 132.878906 216.886719 133.019531 216.4375 133.164062 C 216.378906 133.171875 216.292969 133.191406 216.132812 133.222656 C 212.941406 133.929688 209.75 134.644531 206.5625 135.378906 C 212.933594 132.925781 219.273438 130.417969 225.714844 128.132812 Z M 229.8125 204.082031 C 229.808594 204.0625 229.808594 204.058594 229.808594 204.042969 C 229.808594 203.414062 229.789062 202.785156 229.78125 202.160156 C 229.753906 200.296875 229.726562 198.4375 229.699219 196.574219 C 229.628906 192.027344 229.457031 187.433594 229.761719 182.894531 C 229.957031 179.945312 230.34375 176.949219 230.324219 173.992188 C 230.304688 171.15625 230.160156 168.316406 230.058594 165.480469 C 232.0625 166.140625 234.066406 166.8125 236.070312 167.488281 C 234.300781 176.644531 232.558594 185.917969 231.863281 195.21875 C 231.433594 200.917969 230.996094 206.601562 230.472656 212.292969 C 230.441406 212.648438 230.402344 213 230.363281 213.351562 C 230.164062 210.261719 230.039062 207.167969 229.8125 204.082031 Z M 315.878906 133.183594 C 314.113281 135.144531 312.355469 137.117188 310.570312 139.0625 C 309.425781 140.308594 308.277344 141.546875 307.128906 142.792969 C 306.582031 143.386719 306.03125 143.984375 305.484375 144.578125 C 305.300781 144.777344 305.117188 144.976562 304.933594 145.175781 C 304.589844 145.546875 304.773438 145.210938 305.101562 144.992188 C 303.839844 145.839844 302.746094 147.320312 301.667969 148.386719 C 300.601562 149.441406 299.492188 150.460938 298.476562 151.566406 C 297.832031 152.265625 297.214844 152.988281 296.601562 153.71875 C 296.46875 153.414062 296.324219 153.117188 296.203125 152.8125 C 295.300781 150.519531 294.5 148.179688 293.683594 145.851562 C 295.386719 144.488281 297.089844 143.121094 298.789062 141.757812 C 298.941406 141.640625 299.105469 141.519531 299.269531 141.398438 C 299.109375 141.484375 299.113281 141.375 299.332031 141.296875 C 299.371094 141.285156 299.410156 141.257812 299.449219 141.242188 C 299.511719 141.191406 299.578125 141.144531 299.628906 141.085938 C 299.566406 141.15625 299.527344 141.183594 299.476562 141.230469 C 299.679688 141.136719 299.878906 141.015625 300.070312 140.917969 C 301.480469 140.191406 302.886719 139.464844 304.296875 138.738281 C 308.367188 136.640625 312.539062 134.476562 316.304688 131.875 C 317.335938 131.164062 318.375 130.449219 319.40625 129.726562 C 318.1875 130.832031 316.992188 131.953125 315.878906 133.183594 Z M 315.878906 133.183594 " fill-opacity="1" fill-rule="nonzero"/></g></g></g><g clip-path="url(#7986b21524)"><g clip-path="url(#2ee214d54e)"><g clip-path="url(#ada8fc5ebd)"><path fill="#efe8df" d="M 630.675781 274.914062 C 627.554688 274.769531 624.40625 274.738281 621.289062 274.480469 C 619.472656 274.328125 617.640625 273.929688 615.824219 273.523438 C 615.484375 273.085938 614.984375 272.757812 614.292969 272.671875 C 610.078125 272.152344 605.871094 271.515625 601.632812 271.257812 C 596.46875 270.941406 591.410156 270.480469 586.273438 269.867188 C 582.207031 269.378906 578.109375 269.933594 574.039062 269.582031 C 571.21875 269.339844 568.394531 268.800781 565.585938 268.410156 C 563.742188 268.15625 561.964844 268.4375 560.128906 268.660156 C 554.933594 268.347656 549.703125 268.21875 544.515625 267.925781 C 542.796875 267.828125 541.910156 269.3125 542.027344 270.628906 C 541.804688 271.851562 542.410156 273.207031 544 273.320312 C 548.46875 273.628906 552.859375 274.179688 557.316406 273.675781 C 558.171875 273.578125 559.03125 273.480469 559.886719 273.386719 C 560.527344 273.414062 561.167969 273.457031 561.808594 273.484375 C 567.152344 273.726562 572.503906 274.65625 577.832031 275.1875 C 583.085938 275.710938 588.34375 275.878906 593.605469 276.261719 C 596.398438 276.464844 599.195312 276.722656 601.992188 276.855469 C 603.230469 276.914062 604.480469 276.9375 605.730469 276.964844 C 605.335938 277.1875 604.9375 277.40625 604.539062 277.628906 C 601.960938 279.101562 599.519531 280.847656 597.035156 282.46875 C 596.589844 282.757812 596.148438 283.042969 595.707031 283.335938 C 595.53125 283.386719 595.363281 283.519531 595.199219 283.601562 C 593.492188 284.453125 591.816406 285.378906 590.125 286.269531 C 587.742188 287.523438 585.433594 288.839844 583.113281 290.210938 C 580.789062 291.578125 578.472656 292.949219 576.183594 294.375 C 573.792969 295.863281 571.484375 297.558594 568.878906 298.636719 C 566.238281 299.730469 563.324219 300.613281 560.839844 302.027344 C 558.09375 303.597656 555.546875 305.519531 552.792969 307.085938 C 549.953125 308.699219 546.902344 309.941406 544.0625 311.554688 C 542.132812 312.652344 540.257812 313.859375 538.382812 315.066406 C 537.425781 315.558594 536.472656 316.050781 535.519531 316.507812 C 534.558594 316.96875 534.074219 317.980469 534.203125 319.011719 C 534.4375 320.890625 534.671875 322.765625 534.910156 324.640625 C 535.113281 326.273438 535.140625 328.054688 535.652344 329.625 C 536.300781 331.617188 537 333.589844 537.675781 335.570312 C 537.988281 336.492188 538.304688 337.414062 538.617188 338.339844 C 538.699219 338.574219 538.761719 338.824219 538.859375 339.050781 C 538.792969 338.898438 538.753906 338.785156 538.726562 338.707031 C 538.742188 338.773438 538.757812 338.851562 538.773438 338.964844 C 539.695312 346.011719 541.601562 352.886719 543.019531 359.835938 C 543.757812 363.445312 544.449219 367.054688 545.363281 370.621094 C 546.277344 374.183594 547.164062 377.65625 547.761719 381.28125 C 548.964844 388.570312 550.660156 395.734375 552.191406 402.960938 C 552.363281 403.769531 552.566406 404.574219 552.75 405.378906 C 548.257812 400.699219 543.640625 396.15625 538.960938 391.648438 C 533.8125 386.683594 529.066406 381.332031 524.148438 376.140625 C 521.792969 373.65625 519 371.355469 517.007812 368.570312 C 514.765625 365.433594 512.644531 362.261719 510.066406 359.398438 C 508.597656 357.769531 506.984375 356.199219 505.632812 354.472656 C 504.539062 353.082031 503.660156 351.464844 502.695312 349.980469 C 500.542969 346.664062 498.300781 343.421875 496.039062 340.175781 C 495.914062 339.992188 495.785156 339.8125 495.660156 339.628906 C 495.40625 339.253906 495.152344 338.878906 494.90625 338.5 C 494.21875 337.449219 492.484375 337.460938 491.617188 338.207031 C 486.09375 342.921875 480.144531 347.398438 475.113281 352.636719 C 472.265625 355.597656 469.503906 358.5625 466.832031 361.679688 C 466.039062 362.601562 465.25 363.523438 464.460938 364.445312 C 464.328125 364.601562 464.191406 364.757812 464.054688 364.917969 C 464.03125 364.9375 464.015625 364.953125 463.984375 364.980469 C 462.195312 366.507812 460.527344 368.199219 458.808594 369.804688 C 455.972656 372.445312 453.566406 375.507812 451.074219 378.472656 C 451.046875 378.503906 450.984375 378.578125 450.921875 378.65625 C 450.816406 378.773438 450.632812 378.976562 450.574219 379.039062 C 449.785156 379.867188 449 380.695312 448.210938 381.527344 C 446.824219 382.988281 445.414062 384.429688 444.054688 385.914062 C 442.652344 387.445312 441.265625 388.996094 439.867188 390.535156 C 439.199219 391.273438 438.523438 392.003906 437.863281 392.746094 C 437.652344 392.964844 437.449219 393.1875 437.242188 393.40625 C 434.578125 396.230469 431.921875 399.054688 429.226562 401.84375 C 428.195312 402.910156 427.195312 404.027344 426.152344 405.09375 C 426.1875 404.972656 426.21875 404.851562 426.253906 404.730469 C 427.230469 401.308594 428.429688 397.890625 429.039062 394.378906 C 429.449219 392.03125 429.859375 389.683594 430.269531 387.335938 C 430.324219 387.015625 430.554688 385.863281 430.453125 386.242188 C 430.601562 385.636719 430.753906 385.027344 430.902344 384.421875 C 432.632812 377.417969 434.316406 370.40625 435.644531 363.3125 C 436.117188 360.785156 436.574219 358.257812 437.035156 355.730469 C 438.375 353.445312 439.863281 351.203125 440.679688 348.730469 C 441.875 345.09375 442.9375 341.445312 444.539062 337.96875 C 446.203125 334.347656 447.871094 330.726562 449.550781 327.113281 C 451.261719 323.4375 452.617188 319.753906 453.988281 315.933594 C 454.207031 315.320312 454.425781 314.707031 454.648438 314.09375 C 455.078125 312.886719 454.476562 311.558594 453.289062 311.082031 C 448.5 309.152344 443.800781 307.222656 439.152344 304.972656 C 434.933594 302.933594 430.65625 301.027344 426.367188 299.136719 C 421.3125 296.910156 416.269531 294.683594 411.25 292.375 C 409.273438 291.464844 407.355469 290.492188 405.421875 289.484375 C 404.359375 288.929688 403.296875 288.375 402.234375 287.820312 C 405.164062 287.667969 408.109375 287.089844 411.023438 286.832031 C 414.136719 286.554688 417.28125 286.492188 420.402344 286.332031 C 426.660156 286.007812 432.914062 285.675781 439.167969 285.265625 C 445.40625 284.859375 451.621094 284.191406 457.867188 283.796875 C 461.226562 283.585938 464.566406 282.730469 467.890625 282.214844 C 471.117188 281.714844 474.363281 281.335938 477.597656 280.902344 C 478.417969 280.789062 479.089844 280.171875 479.394531 279.425781 C 480.710938 276.171875 482.246094 272.941406 483.320312 269.601562 C 484.511719 265.898438 485.640625 262.175781 486.828125 258.472656 C 488.089844 254.542969 489.363281 250.6875 490.875 246.847656 C 491.59375 245.027344 492.515625 243.183594 492.972656 241.273438 C 493.496094 239.089844 493.996094 236.898438 494.507812 234.707031 C 494.714844 233.824219 494.921875 232.941406 495.128906 232.058594 C 495.136719 232.042969 495.136719 232.042969 495.148438 232.019531 C 495.296875 231.707031 495.367188 231.320312 495.472656 230.988281 C 496.25 228.519531 497.027344 226.050781 497.800781 223.582031 C 498.886719 220.128906 500.214844 216.734375 501.199219 213.253906 C 501.75 211.304688 502.113281 209.28125 502.5625 207.308594 C 502.839844 206.089844 503.117188 204.875 503.394531 203.65625 C 503.414062 203.570312 503.4375 203.484375 503.453125 203.398438 C 503.484375 203.339844 503.542969 203.195312 503.628906 202.996094 C 504.859375 200.136719 505.984375 197.210938 507.027344 194.265625 C 508.25 198.890625 509.632812 203.429688 511.207031 207.996094 C 511.214844 208.023438 511.21875 208.03125 511.226562 208.054688 C 511.230469 208.089844 511.234375 208.117188 511.242188 208.179688 C 511.394531 209.101562 511.636719 210.019531 511.835938 210.933594 C 512.269531 212.953125 512.695312 214.980469 513.136719 217 C 513.828125 220.148438 514.625 223.277344 515.375 226.414062 C 516.867188 232.667969 518.488281 238.878906 520.15625 245.085938 C 521.070312 248.476562 521.699219 251.9375 522.527344 255.347656 C 523.320312 258.636719 524.386719 261.875 525.324219 265.125 C 525.675781 266.34375 526.667969 267.25 528.015625 267.039062 C 529.152344 266.859375 530.28125 265.558594 529.929688 264.347656 C 529.023438 261.207031 528.027344 258.078125 527.210938 254.914062 C 526.390625 251.746094 525.824219 248.507812 525.035156 245.332031 C 523.46875 239 521.699219 232.722656 520.15625 226.378906 C 518.625 220.074219 517.351562 213.714844 515.847656 207.402344 C 515.070312 204.132812 513.75 200.917969 512.664062 197.738281 C 512.640625 197.671875 512.617188 197.605469 512.59375 197.535156 C 512.59375 197.527344 512.59375 197.527344 512.59375 197.515625 C 512.464844 196.664062 512.171875 195.800781 511.96875 194.964844 C 511.464844 192.90625 510.960938 190.851562 510.460938 188.792969 C 510.230469 187.839844 510.011719 186.882812 509.789062 185.925781 C 510.371094 183.980469 510.910156 182.027344 511.378906 180.015625 C 511.6875 178.710938 511.992188 177.40625 512.296875 176.101562 C 512.382812 175.742188 512.46875 175.378906 512.550781 175.019531 C 512.554688 175.019531 512.550781 175.027344 512.554688 175.019531 C 512.691406 174.722656 512.792969 174.402344 512.910156 174.089844 C 513.03125 174.636719 513.164062 175.183594 513.261719 175.734375 C 513.714844 178.226562 514.164062 180.714844 514.617188 183.207031 C 514.886719 184.707031 515.484375 186.113281 516 187.542969 C 516.707031 189.496094 517.238281 191.6875 518.15625 193.558594 C 518.15625 193.558594 518.15625 193.558594 518.15625 193.5625 C 518.234375 194.027344 518.359375 194.492188 518.460938 194.957031 C 518.738281 196.226562 519.019531 197.5 519.296875 198.773438 C 520.152344 202.679688 521.152344 206.535156 522.160156 210.40625 C 523.097656 214.003906 523.300781 217.757812 523.824219 221.429688 C 524.296875 224.765625 524.890625 228.128906 525.570312 231.425781 C 527.089844 238.796875 529.488281 245.949219 530.929688 253.320312 C 531.714844 257.324219 532.308594 261.132812 532.679688 265.191406 C 533.039062 269.160156 533.695312 273 534.382812 276.933594 C 534.5 277.601562 534.617188 278.273438 534.734375 278.945312 C 535.253906 281.902344 539.859375 281.132812 539.339844 278.167969 C 538.75 274.78125 537.917969 271.363281 537.605469 267.941406 C 537.253906 264.105469 537.046875 260.265625 536.308594 256.484375 C 535.535156 252.546875 534.734375 248.714844 533.671875 244.851562 C 532.597656 240.949219 531.65625 237.046875 530.742188 233.105469 C 529.882812 229.375 529.28125 225.601562 528.621094 221.832031 C 528.011719 218.367188 527.894531 214.804688 527.214844 211.351562 C 526.554688 207.988281 525.382812 204.722656 524.640625 201.375 C 523.785156 197.523438 523.144531 193.628906 521.804688 189.914062 C 520.992188 187.664062 520.214844 185.394531 519.363281 183.15625 C 519.363281 183.179688 519.367188 183.203125 519.363281 183.226562 C 519.367188 183.199219 519.355469 183.160156 519.351562 183.128906 C 519.34375 183.105469 519.335938 183.082031 519.328125 183.0625 C 519.148438 182.589844 519.273438 182.742188 519.335938 182.972656 C 519.304688 182.78125 519.25 182.585938 519.21875 182.429688 C 519 181.222656 518.785156 180.015625 518.566406 178.808594 C 517.839844 174.800781 516.894531 171.007812 515.808594 167.078125 C 515.621094 166.390625 515.429688 165.699219 515.238281 165.011719 C 514.6875 163.015625 511.46875 162.117188 510.75 164.574219 C 509.726562 168.09375 508.59375 171.597656 507.757812 175.167969 C 507.695312 175.445312 507.628906 175.722656 507.5625 176.003906 C 507.011719 173.488281 506.464844 170.972656 505.894531 168.460938 C 505.429688 166.417969 502.039062 165.605469 501.40625 168.023438 C 499.710938 174.511719 497.820312 180.917969 496.015625 187.375 C 495.070312 190.761719 494.203125 194.171875 493.167969 197.535156 C 492.085938 201.035156 490.929688 204.476562 490.207031 208.066406 C 489.761719 210.269531 489.28125 212.464844 488.878906 214.671875 C 488.894531 214.621094 488.910156 214.578125 488.929688 214.515625 C 488.894531 214.625 488.867188 214.738281 488.839844 214.851562 C 488.851562 214.8125 488.859375 214.773438 488.863281 214.738281 C 488.867188 214.71875 488.875 214.695312 488.878906 214.671875 C 488.664062 215.324219 488.769531 215.113281 488.835938 214.863281 C 488.8125 214.960938 488.785156 215.058594 488.757812 215.152344 C 488.46875 216.199219 488.195312 217.25 487.914062 218.300781 C 486.941406 221.914062 485.898438 225.453125 484.753906 229.015625 C 482.574219 235.8125 480.722656 242.703125 478.867188 249.597656 C 478.472656 251.054688 478.0625 252.503906 477.648438 253.957031 C 477.269531 255.300781 476.886719 256.640625 476.503906 257.984375 C 476.332031 258.585938 475.960938 259.378906 475.886719 260.042969 C 475.964844 259.738281 476.167969 259.6875 475.871094 260.21875 C 475.867188 260.222656 475.863281 260.230469 475.863281 260.234375 C 475.863281 260.242188 475.859375 260.246094 475.859375 260.253906 C 475.859375 260.246094 475.859375 260.242188 475.859375 260.234375 C 475.632812 260.644531 475.40625 261.054688 475.175781 261.464844 C 474.539062 262.617188 473.898438 263.765625 473.257812 264.914062 C 472.425781 266.410156 471.59375 267.90625 470.761719 269.402344 C 467.953125 270.066406 465.152344 270.742188 462.339844 271.386719 C 459.566406 272.027344 456.632812 272.175781 453.808594 272.535156 C 451.078125 272.878906 448.339844 272.898438 445.589844 272.996094 C 444.742188 273.027344 443.894531 273.058594 443.046875 273.089844 C 442.914062 273.09375 442.777344 273.097656 442.644531 273.105469 C 442.636719 273.101562 442.636719 273.101562 442.625 273.097656 C 441.125 272.796875 439.351562 272.996094 437.824219 272.949219 C 432.234375 272.777344 426.515625 272.667969 420.957031 273.332031 C 418.078125 273.675781 415.1875 274.132812 412.296875 274.34375 C 410.5 274.476562 408.699219 274.550781 406.90625 274.65625 C 405.992188 274.707031 405.078125 274.761719 404.164062 274.816406 C 403.902344 274.828125 403.644531 274.84375 403.382812 274.859375 C 403.394531 274.863281 403.40625 274.867188 403.417969 274.871094 C 403.40625 274.867188 403.386719 274.867188 403.371094 274.859375 C 403.34375 274.863281 403.3125 274.863281 403.285156 274.867188 C 402.726562 274.902344 402.886719 274.792969 403.144531 274.804688 C 402.699219 274.734375 402.042969 274.816406 401.699219 274.800781 C 400.578125 274.757812 399.453125 274.710938 398.332031 274.667969 C 396.746094 274.601562 395.144531 274.46875 393.558594 274.472656 C 390.144531 274.480469 386.652344 275.152344 383.257812 275.503906 C 381.238281 275.714844 380.667969 278.621094 382.292969 279.710938 C 384.078125 280.910156 385.847656 282.117188 387.609375 283.332031 C 385.609375 283.523438 383.609375 283.765625 381.625 283.941406 C 379.066406 284.164062 379.359375 287.492188 381.1875 288.429688 C 383.398438 289.558594 385.605469 290.6875 387.8125 291.820312 C 388.367188 292.101562 388.917969 292.386719 389.472656 292.667969 C 389.589844 292.726562 389.699219 292.800781 389.792969 292.871094 C 389.757812 292.835938 389.726562 292.808594 389.679688 292.765625 C 390.3125 293.378906 391.304688 293.820312 392.039062 294.300781 C 394.140625 295.667969 396.199219 297.1875 398.402344 298.378906 C 400.613281 299.570312 402.835938 300.734375 405.054688 301.910156 C 406.574219 302.71875 408.070312 303.394531 409.664062 304.058594 C 411.15625 304.679688 412.648438 305.300781 414.140625 305.921875 C 414.621094 306.125 415.097656 306.335938 415.582031 306.523438 C 415.820312 306.617188 415.914062 306.65625 415.957031 306.671875 C 419.863281 308.859375 423.804688 310.929688 427.625 313.265625 C 431.648438 315.730469 435.582031 318.304688 439.515625 320.910156 C 439.363281 323.671875 439.308594 326.492188 438.855469 329.191406 C 438.511719 331.261719 437.910156 333.324219 437.441406 335.371094 C 437.246094 336.230469 437.046875 337.089844 436.851562 337.949219 C 436.855469 337.945312 436.851562 337.941406 436.855469 337.9375 C 436.851562 337.945312 436.851562 337.953125 436.847656 337.960938 C 436.84375 337.984375 436.835938 338.007812 436.832031 338.035156 C 436.792969 338.199219 436.75 338.292969 436.714844 338.355469 C 436.695312 338.421875 436.679688 338.492188 436.660156 338.550781 C 435.515625 341.878906 434.1875 345.316406 433.5625 348.785156 C 433.234375 350.621094 432.898438 352.457031 432.566406 354.289062 C 430.808594 357.632812 429.988281 361.296875 428.789062 364.878906 C 427.722656 368.054688 425.796875 370.941406 424.515625 374.035156 C 421.671875 380.898438 419.589844 388.074219 416.859375 394.984375 C 416.101562 396.902344 415.183594 398.820312 414.5625 400.789062 C 413.960938 402.699219 413.636719 404.738281 413.183594 406.683594 C 412.914062 407.828125 412.648438 408.96875 412.378906 410.113281 C 412.347656 410.246094 412.25 410.496094 412.21875 410.578125 C 412.195312 410.628906 412.175781 410.675781 412.164062 410.703125 C 411.265625 412.988281 410.460938 415.316406 409.609375 417.621094 C 409.394531 418.203125 409.175781 418.785156 408.960938 419.371094 C 408.132812 421.613281 410.816406 423.398438 412.644531 421.988281 C 414.367188 420.660156 416.140625 419.34375 417.910156 418.015625 C 417.515625 419.492188 417.121094 420.964844 416.710938 422.4375 C 416.058594 424.777344 418.417969 426.359375 420.390625 425.054688 C 426.332031 421.132812 432.359375 417.265625 437.226562 412.011719 C 442.53125 406.277344 448.226562 400.972656 453.535156 395.238281 C 456.089844 392.472656 458.519531 389.589844 460.933594 386.703125 C 460.980469 386.644531 461.042969 386.582031 461.105469 386.523438 C 461.050781 386.570312 460.996094 386.621094 460.914062 386.6875 C 461.101562 386.527344 461.269531 386.335938 461.445312 386.160156 C 462.257812 385.347656 463.070312 384.539062 463.882812 383.726562 C 465.234375 382.378906 466.765625 381.089844 467.972656 379.609375 C 470.144531 376.9375 471.828125 373.875 473.976562 371.179688 C 476.300781 368.265625 478.644531 365.363281 480.902344 362.394531 C 483.28125 359.265625 485.613281 356.132812 487.882812 352.929688 C 489.835938 350.175781 491.554688 347.351562 493.257812 344.460938 C 493.675781 345.097656 494.09375 345.738281 494.507812 346.375 C 495.082031 347.25 495.652344 348.121094 496.222656 348.996094 C 496.335938 349.171875 496.453125 349.347656 496.570312 349.527344 C 496.585938 349.5625 496.597656 349.59375 496.628906 349.652344 C 498.242188 352.828125 499.933594 356.167969 501.96875 359.09375 C 506 364.890625 510.449219 370.445312 514.292969 376.367188 C 518.300781 382.539062 522.414062 388.554688 527.304688 394.066406 C 528.574219 395.496094 529.984375 396.875 531.144531 398.394531 C 532.179688 399.75 533.023438 401.308594 533.949219 402.742188 C 534.820312 404.089844 535.609375 405.582031 536.605469 406.839844 C 537.84375 408.40625 539.398438 409.796875 540.769531 411.246094 C 543.636719 414.28125 546.460938 417.347656 549.289062 420.414062 C 551.894531 423.238281 555.175781 425.5 558.144531 427.925781 C 559.746094 429.238281 562.128906 427.542969 561.800781 425.636719 C 561.433594 423.515625 561.121094 421.371094 560.753906 419.242188 C 560.808594 419.289062 560.867188 419.335938 560.921875 419.382812 C 560.992188 419.445312 561.066406 419.511719 561.140625 419.578125 C 561.148438 419.570312 561.230469 419.628906 561.425781 419.808594 C 561.4375 419.820312 561.449219 419.832031 561.457031 419.839844 C 561.464844 419.84375 561.472656 419.851562 561.480469 419.855469 C 561.472656 419.851562 561.472656 419.851562 561.464844 419.847656 C 563.21875 421.492188 564.976562 423.132812 566.730469 424.773438 C 567.191406 425.203125 567.652344 425.636719 568.117188 426.066406 C 569.664062 427.515625 572.710938 426.683594 572.210938 424.179688 C 571.523438 420.765625 571.0625 417.21875 570.023438 413.890625 C 569.339844 411.691406 568.65625 409.492188 567.972656 407.292969 C 567.839844 406.875 567.707031 406.453125 567.578125 406.03125 C 567.5 405.777344 567.496094 405.527344 567.523438 405.566406 C 567.40625 404.972656 567.207031 404.371094 567.074219 403.800781 C 566.183594 399.898438 565.257812 396.222656 563.90625 392.464844 C 562.605469 388.847656 561.378906 385.222656 560.175781 381.578125 C 559.015625 378.070312 557.707031 374.621094 556.425781 371.15625 C 556.367188 370.988281 556.304688 370.769531 556.226562 370.582031 C 556.300781 370.808594 556.335938 371.058594 556.210938 370.578125 C 556.203125 370.546875 556.191406 370.511719 556.183594 370.480469 C 556.167969 370.449219 556.160156 370.410156 556.144531 370.386719 C 556.152344 370.402344 556.164062 370.425781 556.175781 370.445312 C 555.910156 369.433594 555.613281 368.425781 555.335938 367.414062 C 554.835938 365.613281 554.347656 363.804688 553.835938 362.003906 C 552.894531 358.695312 552.109375 355.238281 550.855469 352.035156 C 549.535156 348.664062 548.082031 345.339844 546.726562 341.980469 C 545.050781 337.824219 543.457031 333.675781 541.949219 329.457031 C 541.679688 328.699219 541.472656 327.78125 541.117188 327.019531 C 541.167969 327.171875 541.121094 327.132812 541.050781 326.878906 C 541.019531 326.816406 540.992188 326.742188 540.957031 326.683594 C 541.003906 326.757812 541.019531 326.804688 541.046875 326.863281 C 541.035156 326.8125 541.019531 326.78125 541.007812 326.710938 C 540.902344 326.179688 540.765625 325.65625 540.648438 325.128906 C 540.25 323.375 539.851562 321.625 539.453125 319.875 C 539.738281 319.691406 540.023438 319.511719 540.308594 319.328125 C 542.214844 318.355469 544.128906 317.375 546.101562 316.632812 C 549.117188 315.492188 552.292969 314.71875 555.363281 313.71875 C 561.78125 311.628906 568.148438 309.480469 574.214844 306.488281 C 577.308594 304.964844 580.378906 303.425781 583.542969 302.0625 C 584.640625 301.589844 585.734375 301.117188 586.832031 300.648438 C 587.496094 300.359375 588.636719 300.097656 589.203125 299.625 C 589.207031 299.621094 589.203125 299.621094 589.207031 299.621094 C 589.386719 299.566406 589.570312 299.515625 589.75 299.464844 C 590.863281 299.144531 591.976562 298.828125 593.085938 298.507812 C 594.816406 298.015625 596.691406 297.671875 598.359375 296.988281 C 599.921875 296.34375 601.425781 295.335938 602.914062 294.535156 C 605.984375 292.886719 609.039062 291.523438 612.25 290.164062 C 613.65625 289.574219 615.019531 289.054688 616.292969 288.214844 C 618.355469 286.851562 620.410156 285.476562 622.46875 284.105469 C 622.707031 283.945312 622.949219 283.789062 623.1875 283.628906 C 623.207031 283.621094 623.210938 283.621094 623.234375 283.613281 C 624.15625 283.246094 625.046875 282.671875 625.929688 282.210938 C 627.761719 281.257812 629.59375 280.308594 631.425781 279.355469 C 633.351562 278.355469 633.101562 275.027344 630.675781 274.914062 Z M 392.199219 279.257812 C 392.53125 279.222656 392.867188 279.195312 393.199219 279.152344 C 393.167969 279.144531 393.132812 279.136719 393.097656 279.121094 C 393.136719 279.136719 393.1875 279.140625 393.230469 279.148438 C 393.726562 279.089844 393.671875 279.199219 393.425781 279.191406 C 393.875 279.246094 394.449219 279.175781 394.816406 279.191406 C 395.9375 279.234375 397.0625 279.28125 398.183594 279.328125 C 399.773438 279.390625 401.371094 279.519531 402.957031 279.519531 C 409.695312 279.519531 416.300781 278.371094 422.988281 277.785156 C 426.207031 277.503906 429.480469 277.542969 432.710938 277.4375 C 433.167969 277.421875 432.941406 277.460938 432.683594 277.460938 C 432.8125 277.460938 432.941406 277.460938 433.0625 277.464844 C 434.003906 277.507812 434.949219 277.523438 435.890625 277.550781 C 437.90625 277.613281 439.921875 277.707031 441.9375 277.738281 C 448.523438 277.835938 454.984375 277.089844 461.492188 276.265625 C 464.703125 275.859375 467.875 274.871094 471.023438 274.128906 C 472.40625 273.804688 473.65625 273.625 474.453125 272.316406 C 475.492188 270.601562 476.410156 268.796875 477.382812 267.046875 C 478.21875 265.542969 479.066406 264.046875 479.890625 262.539062 C 480.570312 261.292969 480.824219 259.804688 481.210938 258.441406 C 482.097656 255.335938 482.972656 252.226562 483.8125 249.105469 C 485.503906 242.820312 487.234375 236.550781 489.222656 230.355469 C 491.246094 224.050781 493.011719 217.707031 494.316406 211.214844 C 494.648438 209.558594 495.0625 207.898438 495.316406 206.226562 C 495.113281 207.5625 495.535156 205.660156 495.640625 205.320312 C 495.972656 204.246094 496.304688 203.171875 496.636719 202.09375 C 497.605469 198.953125 498.515625 195.8125 499.386719 192.644531 C 500.679688 187.960938 502.078125 183.3125 503.386719 178.636719 C 503.914062 181.023438 504.453125 183.40625 504.992188 185.789062 C 504.921875 186.019531 504.847656 186.25 504.773438 186.476562 C 503.449219 190.425781 502.054688 194.28125 500.523438 198.152344 C 499.90625 199.707031 499.195312 201.234375 498.820312 202.863281 C 498.257812 205.3125 497.703125 207.761719 497.144531 210.210938 C 497.039062 210.679688 496.929688 211.148438 496.824219 211.613281 C 496.828125 211.609375 496.828125 211.605469 496.832031 211.601562 C 496.828125 211.605469 496.824219 211.609375 496.824219 211.617188 C 496.824219 211.617188 496.824219 211.621094 496.820312 211.625 C 496.722656 212.054688 496.625 212.121094 496.675781 211.941406 C 496.4375 212.515625 496.300781 213.203125 496.117188 213.761719 C 495.34375 216.097656 494.5625 218.429688 493.800781 220.769531 C 492.6875 224.203125 491.402344 227.664062 490.574219 231.179688 C 490.058594 233.359375 489.554688 235.542969 489.042969 237.722656 C 488.835938 238.605469 488.632812 239.488281 488.421875 240.375 C 488.414062 240.386719 488.40625 240.386719 488.390625 240.40625 C 488.175781 240.691406 488.082031 241.195312 487.949219 241.527344 C 486.46875 245.289062 484.964844 249.011719 483.730469 252.863281 C 482.46875 256.800781 481.214844 260.738281 479.976562 264.683594 C 478.765625 268.539062 477.273438 272.214844 475.753906 275.964844 C 475.6875 276.128906 475.621094 276.296875 475.554688 276.460938 C 472.828125 276.816406 470.097656 277.15625 467.378906 277.566406 C 464.253906 278.035156 461.148438 278.761719 458.011719 279.128906 C 454.890625 279.492188 451.714844 279.492188 448.578125 279.726562 C 445.453125 279.960938 442.335938 280.34375 439.210938 280.601562 C 426.707031 281.632812 414.128906 281.550781 401.675781 283.179688 C 401.625 283.1875 401.566406 283.1875 401.507812 283.191406 C 401.632812 283.15625 401.527344 283.117188 401.128906 283.222656 C 401.164062 283.226562 401.1875 283.222656 401.21875 283.222656 C 401.152344 283.230469 401.082031 283.234375 401.019531 283.253906 C 401.0625 283.242188 401.09375 283.234375 401.128906 283.222656 C 400.089844 283.1875 399.054688 283.1875 398.019531 283.167969 C 397.121094 283.152344 396.222656 283.125 395.320312 283.101562 C 393.621094 281.878906 391.910156 280.660156 390.1875 279.46875 C 390.859375 279.398438 391.527344 279.328125 392.199219 279.257812 Z M 419.308594 303.214844 C 415.773438 301.285156 411.851562 300.199219 408.277344 298.375 C 405.785156 297.101562 403.332031 295.75 400.863281 294.4375 C 400.753906 294.378906 400.648438 294.320312 400.539062 294.265625 C 400.445312 294.195312 400.113281 293.988281 399.96875 293.890625 C 398.757812 293.105469 397.546875 292.316406 396.339844 291.53125 C 394.308594 290.210938 392.238281 289.015625 390.136719 287.871094 C 390.6875 287.824219 391.515625 287.890625 392.066406 287.714844 C 392.277344 287.722656 392.492188 287.722656 392.699219 287.726562 C 393.074219 287.730469 393.445312 287.738281 393.816406 287.746094 C 394.273438 288.078125 394.738281 288.394531 395.191406 288.730469 C 399.019531 291.582031 403.273438 293.78125 407.597656 295.824219 C 416.691406 300.125 426.070312 303.816406 435.125 308.195312 C 439.894531 310.5 444.660156 312.585938 449.539062 314.589844 C 448.683594 317.136719 447.851562 319.71875 446.726562 322.140625 C 445.6875 324.378906 444.652344 326.621094 443.613281 328.859375 C 444.054688 325.929688 444.03125 322.863281 444.25 319.9375 C 444.308594 319.121094 443.980469 318.261719 443.28125 317.796875 C 435.445312 312.601562 427.558594 307.71875 419.308594 303.214844 Z M 416.277344 413.269531 C 416.535156 412.476562 416.773438 411.679688 416.960938 410.875 C 417.507812 408.550781 418.046875 406.226562 418.59375 403.898438 C 418.699219 403.441406 418.808594 402.980469 418.914062 402.523438 C 418.945312 402.386719 419.046875 402.136719 419.089844 402.023438 C 419.113281 401.972656 419.132812 401.929688 419.148438 401.902344 C 419.363281 401.398438 419.550781 400.882812 419.75 400.375 C 422.328125 393.859375 424.679688 387.265625 427.066406 380.683594 C 426.3125 383.796875 425.617188 386.886719 425.0625 390.058594 C 424.855469 391.261719 424.644531 392.464844 424.433594 393.667969 C 424.375 394 424.308594 394.335938 424.257812 394.675781 C 424.246094 394.761719 424.234375 394.8125 424.21875 394.875 C 424.242188 394.804688 424.257812 394.738281 424.296875 394.625 C 424.265625 394.714844 424.246094 394.8125 424.214844 394.902344 C 424.179688 395.066406 424.160156 395.113281 424.175781 395.027344 C 423.628906 396.722656 423.199219 398.46875 422.710938 400.175781 C 421.75 403.554688 420.84375 406.949219 419.949219 410.347656 C 418.730469 411.332031 417.507812 412.304688 416.277344 413.269531 Z M 464.316406 376.722656 C 464.285156 376.75 464.257812 376.78125 464.226562 376.808594 C 464.351562 376.648438 464.726562 376.332031 464.316406 376.722656 Z M 479.585938 356.417969 C 474.902344 362.570312 470.042969 368.554688 465.589844 374.878906 C 465.179688 375.460938 464.488281 376.152344 464.214844 376.824219 C 463.9375 377.09375 463.664062 377.371094 463.390625 377.648438 C 461.699219 379.332031 460.003906 381.007812 458.324219 382.703125 C 457.210938 383.824219 456.226562 385.058594 455.203125 386.257812 C 454.363281 387.246094 453.519531 388.238281 452.675781 389.226562 C 452.386719 389.566406 452.097656 389.902344 451.8125 390.246094 C 451.539062 390.566406 451.355469 390.792969 451.648438 390.464844 C 449.472656 392.933594 447.242188 395.4375 444.863281 397.710938 C 442.175781 400.277344 439.449219 402.789062 436.925781 405.515625 C 435.4375 407.125 434.011719 408.847656 432.433594 410.367188 C 431.214844 411.542969 429.785156 412.554688 428.476562 413.628906 C 426.605469 415.15625 424.695312 416.542969 422.742188 417.890625 C 423.140625 416.367188 423.539062 414.84375 423.933594 413.324219 C 425.859375 411.734375 427.71875 410.082031 429.429688 408.3125 C 435.03125 402.523438 440.5625 396.675781 445.972656 390.707031 C 446.53125 390.089844 447.101562 389.484375 447.648438 388.855469 C 447.65625 388.847656 447.65625 388.847656 447.667969 388.835938 C 447.960938 388.535156 448.246094 388.226562 448.535156 387.921875 C 450.214844 386.15625 451.894531 384.390625 453.570312 382.621094 C 454.660156 381.476562 455.660156 380.261719 456.683594 379.058594 C 457.550781 378.042969 458.414062 377.027344 459.277344 376.007812 C 459.585938 375.648438 459.890625 375.292969 460.195312 374.933594 C 460.246094 374.871094 460.296875 374.816406 460.34375 374.769531 C 460.308594 374.792969 460.28125 374.816406 460.238281 374.84375 C 460.289062 374.808594 460.335938 374.765625 460.382812 374.730469 C 460.519531 374.59375 460.613281 374.535156 460.601562 374.554688 C 462.050781 373.4375 463.351562 371.945312 464.671875 370.710938 C 465.816406 369.648438 466.996094 368.625 468.019531 367.441406 C 469.636719 365.574219 471.234375 363.6875 472.84375 361.8125 C 473.101562 361.507812 473.371094 361.210938 473.621094 360.902344 C 473.644531 360.875 473.652344 360.867188 473.667969 360.84375 C 474.230469 360.296875 474.761719 359.703125 475.304688 359.136719 C 477.84375 356.496094 480.339844 354.039062 483.070312 351.65625 C 481.929688 353.257812 480.777344 354.851562 479.585938 356.417969 Z M 546.734375 354.234375 C 546.753906 354.292969 546.769531 354.351562 546.785156 354.410156 C 546.726562 354.296875 546.550781 353.582031 546.734375 354.234375 Z M 546.484375 353.671875 C 546.558594 353.851562 546.644531 354.273438 546.789062 354.417969 C 547.414062 356.621094 548.074219 358.816406 548.714844 361.015625 C 549.71875 364.453125 550.625 367.914062 551.605469 371.355469 C 552.542969 374.640625 553.976562 377.785156 555.101562 381.007812 C 556.210938 384.1875 557.152344 387.425781 558.292969 390.597656 C 559.113281 392.882812 559.933594 395.167969 560.757812 397.457031 C 560.835938 397.679688 560.910156 397.921875 561 398.148438 C 561.101562 399.039062 561.410156 399.945312 561.613281 400.820312 C 562.640625 405.324219 563.855469 409.648438 565.230469 414.0625 C 565.398438 414.605469 565.570312 415.152344 565.738281 415.699219 C 565.75 415.726562 565.753906 415.75 565.761719 415.777344 C 565.761719 415.773438 565.761719 415.773438 565.761719 415.769531 C 565.761719 415.773438 565.761719 415.777344 565.761719 415.785156 C 565.851562 416.117188 565.820312 416.292969 565.789062 416.246094 C 565.847656 416.773438 566.019531 417.351562 566.160156 417.871094 C 565.40625 417.175781 564.664062 416.46875 563.886719 415.796875 C 562.289062 414.414062 560.671875 413.054688 559.058594 411.6875 C 558.503906 409.613281 557.929688 407.542969 557.488281 405.445312 C 555.996094 398.394531 554.160156 391.359375 552.988281 384.253906 C 552.390625 380.640625 551.828125 377.09375 550.917969 373.546875 C 549.996094 369.941406 549.117188 366.371094 548.375 362.726562 C 547.742188 359.636719 547.070312 356.558594 546.402344 353.476562 C 546.429688 353.542969 546.457031 353.605469 546.484375 353.671875 Z M 553.945312 418.476562 C 553.828125 418.378906 553.707031 418.285156 553.589844 418.183594 C 553.707031 418.300781 553.691406 418.308594 553.542969 418.148438 C 553.472656 418.089844 553.40625 418.027344 553.332031 417.972656 C 553.417969 418.035156 553.476562 418.085938 553.53125 418.132812 C 553.5 418.101562 553.484375 418.085938 553.445312 418.039062 C 551.1875 415.351562 548.679688 412.828125 546.269531 410.277344 C 543.847656 407.714844 541.117188 405.304688 539.199219 402.332031 C 537.234375 399.277344 535.4375 396.195312 533.027344 393.480469 C 530.484375 390.613281 528.058594 387.695312 525.742188 384.6875 C 528.359375 387.503906 530.976562 390.308594 533.695312 393.023438 C 538.925781 398.246094 544.410156 403.203125 549.449219 408.613281 C 550.890625 410.164062 552.285156 411.777344 553.78125 413.269531 C 554.148438 413.632812 554.53125 413.984375 554.921875 414.328125 C 555.019531 414.722656 555.117188 415.113281 555.21875 415.507812 C 555.621094 417.089844 555.925781 418.703125 556.203125 420.320312 C 555.449219 419.707031 554.699219 419.089844 553.945312 418.476562 Z M 564.804688 305.414062 C 565.929688 304.90625 567.078125 304.433594 568.265625 303.941406 C 568.515625 303.839844 568.769531 303.742188 569.023438 303.640625 C 567.625 304.253906 566.21875 304.847656 564.804688 305.414062 Z M 620.496094 279.84375 C 618.886719 280.886719 617.296875 281.96875 615.699219 283.03125 C 614.898438 283.566406 614.097656 284.09375 613.296875 284.632812 C 613.257812 284.65625 613.21875 284.683594 613.179688 284.710938 C 613.0625 284.757812 612.890625 284.835938 612.796875 284.867188 C 609.742188 285.945312 606.5625 287.28125 603.703125 288.816406 C 601.710938 289.890625 599.71875 290.960938 597.730469 292.03125 C 597.492188 292.160156 596.347656 292.710938 596.507812 292.710938 C 596.011719 292.863281 595.5 292.992188 595.007812 293.132812 C 591.558594 294.121094 588.148438 294.996094 584.859375 296.414062 C 581.640625 297.800781 578.464844 299.1875 575.328125 300.734375 C 574.632812 301.078125 573.933594 301.390625 573.238281 301.71875 C 573.980469 301.261719 574.703125 300.761719 575.429688 300.304688 C 577.785156 298.839844 580.132812 297.367188 582.519531 295.957031 C 584.921875 294.539062 587.292969 293.03125 589.761719 291.730469 C 592.59375 290.242188 595.605469 288.914062 598.296875 287.183594 C 599.796875 286.21875 601.285156 285.234375 602.777344 284.261719 C 603.664062 283.679688 604.554688 283.101562 605.441406 282.519531 C 605.644531 282.390625 605.84375 282.261719 606.042969 282.128906 C 608.746094 280.921875 611.324219 279.273438 613.90625 277.769531 C 616.089844 278.238281 618.257812 278.835938 620.46875 279.109375 C 620.828125 279.15625 621.195312 279.175781 621.558594 279.207031 C 621.203125 279.417969 620.839844 279.617188 620.496094 279.84375 Z M 620.496094 279.84375 " fill-opacity="1" fill-rule="nonzero"/></g></g></g><g clip-path="url(#11be3ab9d4)"><g clip-path="url(#db6cd6cc39)"><g clip-path="url(#f8f650d21c)"><path fill="#efe8df" d="M 352.191406 329.871094 C 345.722656 330.570312 339.296875 331.101562 332.804688 331.550781 C 326.441406 331.992188 320.011719 332.394531 313.6875 333.230469 C 310.550781 333.648438 307.4375 334.636719 304.351562 335.316406 C 301.25 336 298.101562 336.488281 294.984375 337.066406 C 288.753906 338.210938 282.53125 339.238281 276.320312 340.507812 C 270.058594 341.792969 263.804688 343.125 257.554688 344.460938 C 255.605469 342.070312 253.664062 339.671875 251.683594 337.304688 C 249.082031 334.191406 246.703125 330.972656 243.546875 328.414062 C 241.710938 326.929688 239.921875 325.191406 237.953125 323.882812 C 237.753906 323.648438 237.515625 323.429688 237.304688 323.210938 C 236.375 322.246094 235.445312 321.28125 234.515625 320.316406 C 231.585938 317.265625 228.523438 314.621094 225.269531 311.90625 C 219.570312 307.152344 214.070312 302.128906 208.285156 297.472656 C 205.488281 295.21875 202.527344 293.167969 199.730469 290.910156 C 196.625 288.410156 193.5625 285.871094 190.324219 283.542969 C 187.640625 281.617188 185 279.660156 182.378906 277.660156 C 178.816406 274.667969 175.253906 271.679688 171.792969 268.5625 C 171.6875 268.464844 171.585938 268.367188 171.484375 268.265625 C 171.007812 267.816406 170.53125 267.363281 170.058594 266.914062 C 169.863281 266.730469 169.644531 266.585938 169.410156 266.472656 C 168.832031 266.070312 168.183594 266.039062 167.59375 266.277344 C 166.503906 266.511719 165.632812 267.386719 165.960938 268.796875 C 165.964844 268.804688 165.964844 268.808594 165.964844 268.8125 C 165.96875 268.839844 165.960938 268.871094 165.964844 268.898438 C 166.582031 272.585938 167.015625 276.34375 167.949219 279.96875 C 168.371094 281.605469 168.835938 283.242188 169.257812 284.882812 C 169.859375 288.277344 170.410156 291.683594 170.875 295.125 C 170.953125 295.679688 171.03125 296.238281 171.121094 296.792969 C 171.738281 301.175781 172.464844 305.542969 173.167969 309.914062 C 173.265625 312.058594 173.261719 314.21875 173.546875 316.332031 C 174.039062 319.992188 174.777344 323.628906 175.394531 327.273438 C 175.613281 329.726562 175.8125 332.175781 176.003906 334.636719 C 176.285156 338.347656 175.949219 342.257812 176.742188 345.894531 C 177.324219 348.589844 178.0625 351.292969 178.503906 354.015625 C 178.632812 354.8125 178.6875 355.632812 178.722656 356.453125 C 178.773438 358.691406 178.730469 360.953125 179.015625 363.15625 C 179.273438 366.546875 179.683594 369.914062 180.046875 373.308594 C 180.285156 375.5625 180.5 377.816406 180.730469 380.070312 C 180.804688 380.816406 180.789062 381.683594 180.921875 382.457031 C 180.929688 382.382812 180.988281 382.539062 181.003906 382.867188 C 181.011719 382.886719 181.011719 382.90625 181.015625 382.925781 C 181.011719 382.910156 181.011719 382.898438 181.007812 382.882812 C 181.007812 382.910156 181.011719 382.933594 181.011719 382.964844 C 181.023438 383.609375 181.039062 384.253906 181.050781 384.894531 C 181.089844 386.757812 181.179688 388.589844 181.269531 390.421875 C 174.945312 393.539062 168.632812 396.695312 162.175781 399.523438 C 158.230469 401.253906 154.488281 403.015625 150.71875 405.09375 C 149.296875 405.875 147.898438 406.785156 146.402344 407.410156 C 144.132812 408.363281 141.796875 409.1875 139.496094 410.074219 C 135.859375 411.476562 132.566406 413.605469 129.160156 415.492188 C 126.082031 417.195312 122.855469 418.644531 119.71875 420.230469 C 116.394531 421.910156 113.128906 423.71875 109.746094 425.265625 C 106 426.980469 102.320312 428.527344 98.902344 430.816406 C 96.953125 432.121094 94.878906 433.335938 93.015625 434.757812 C 92.722656 434.941406 92.429688 435.125 92.132812 435.308594 C 90.957031 436.039062 89.78125 436.773438 88.605469 437.507812 C 85.03125 439.734375 81.550781 442.066406 78.066406 444.429688 C 77.480469 444.824219 76.898438 445.222656 76.3125 445.617188 C 74.921875 446.558594 75.359375 449.160156 76.984375 449.59375 C 79.914062 450.375 82.835938 451.230469 85.78125 451.945312 C 83.332031 453.484375 80.898438 455.046875 78.519531 456.699219 C 77.90625 457.125 77.289062 457.550781 76.675781 457.976562 C 75.1875 459.011719 75.832031 461.359375 77.347656 461.953125 C 79.019531 462.609375 80.6875 463.265625 82.355469 463.921875 C 83.820312 464.5 85.3125 465.265625 86.863281 465.574219 C 90.101562 466.21875 93.382812 466.746094 96.644531 467.257812 C 103.378906 468.3125 110.066406 469.039062 116.851562 469.695312 C 120.304688 470.027344 123.726562 470.421875 127.195312 470.472656 C 130.820312 470.527344 134.371094 470.605469 137.976562 470.925781 C 144.976562 471.546875 151.882812 472.664062 158.898438 473.074219 C 166.050781 473.488281 173.191406 474.066406 180.335938 474.578125 C 181.765625 475.523438 183.25 474.613281 183.734375 473.34375 C 183.738281 473.332031 183.742188 473.320312 183.746094 473.3125 C 183.769531 473.25 183.796875 473.191406 183.8125 473.128906 C 184.277344 471.832031 183.738281 470.164062 181.984375 470.019531 C 180.792969 469.15625 179.597656 468.296875 178.40625 467.433594 C 177.199219 466.558594 175.910156 465.292969 174.488281 464.78125 C 172.46875 464.046875 170.226562 463.691406 168.148438 463.160156 C 166.777344 462.8125 165.410156 462.433594 164.023438 462.144531 C 160.628906 461.445312 157.207031 460.882812 153.835938 460.089844 C 150.425781 459.285156 147.019531 458.246094 143.527344 457.894531 C 139.972656 457.539062 136.4375 457.296875 132.941406 456.5625 C 129.429688 455.828125 125.921875 455.089844 122.410156 454.375 C 118.8125 453.640625 115.394531 453.03125 111.746094 452.6875 C 110.609375 452.578125 109.472656 452.472656 108.335938 452.363281 C 107.886719 452.320312 107.4375 452.265625 106.988281 452.238281 C 106.808594 452.226562 106.386719 452.160156 106.351562 452.167969 C 104.6875 451.773438 103.039062 451.292969 101.386719 450.859375 C 100.226562 450.554688 99.058594 450.285156 97.894531 450 C 98.453125 449.660156 99.011719 449.328125 99.570312 448.984375 C 103.078125 446.816406 106.597656 444.664062 110.125 442.523438 C 113.027344 440.765625 116.03125 438.804688 119.140625 437.457031 C 121.402344 436.476562 123.734375 435.621094 126.027344 434.707031 C 127.535156 434.105469 128.785156 433.28125 130.15625 432.402344 C 131.894531 431.285156 133.605469 430.058594 135.398438 429.015625 C 135.398438 429.023438 135.523438 428.976562 135.773438 428.871094 C 136.269531 428.667969 136.75 428.421875 137.234375 428.199219 C 138.542969 427.59375 139.851562 426.992188 141.160156 426.386719 C 147.875 423.289062 154.074219 419.027344 160.941406 416.253906 C 163.300781 415.300781 165.660156 414.347656 168.023438 413.394531 C 169.457031 412.816406 170.71875 411.921875 172.035156 411.113281 C 173.667969 410.105469 175.277344 408.984375 176.976562 408.085938 C 179.082031 406.96875 181.300781 406.027344 183.453125 405.003906 C 184.125 404.683594 184.796875 404.367188 185.46875 404.046875 C 186.453125 403.578125 186.886719 402.578125 186.785156 401.539062 C 186.546875 399.125 186.308594 396.707031 186.074219 394.289062 C 186.019531 393.730469 185.964844 393.175781 185.910156 392.617188 C 186.039062 392.242188 186.109375 391.835938 186.089844 391.398438 C 186.007812 389.1875 185.921875 386.980469 185.835938 384.773438 C 185.800781 383.8125 185.785156 382.851562 185.726562 381.894531 C 185.714844 381.457031 185.699219 381.023438 185.6875 380.585938 C 185.613281 378.074219 185.539062 375.5625 185.460938 373.054688 C 185.402344 371.164062 184.890625 369.285156 184.539062 367.433594 C 184.214844 365.734375 183.753906 364.011719 183.625 362.289062 C 183.429688 359.695312 183.390625 357.082031 183.273438 354.480469 C 183.109375 350.851562 182.433594 347.257812 182.0625 343.648438 C 181.671875 339.800781 181.523438 335.933594 180.910156 332.113281 C 180.660156 330.546875 180.390625 328.988281 180.136719 327.425781 C 180.035156 326.320312 179.949219 325.214844 179.820312 324.121094 C 179.242188 319.171875 178.511719 314.253906 177.753906 309.339844 C 177.683594 308.328125 177.613281 307.3125 177.53125 306.292969 C 177.320312 303.660156 176.605469 301.078125 176.074219 298.480469 C 175.980469 297.859375 175.882812 297.242188 175.789062 296.621094 C 175.203125 292.667969 174.804688 288.691406 174.097656 284.761719 C 173.539062 281.652344 172.910156 278.582031 172.253906 275.515625 C 173.023438 276.226562 173.808594 276.921875 174.621094 277.574219 C 176.644531 279.199219 178.699219 280.789062 180.773438 282.355469 C 182.195312 283.535156 183.609375 284.722656 185 285.953125 C 185.96875 286.808594 186.933594 287.664062 187.902344 288.515625 C 187.964844 288.570312 188.113281 288.714844 188.226562 288.816406 C 188.332031 288.933594 188.453125 289.058594 188.496094 289.101562 C 190.277344 290.945312 192.058594 292.792969 193.839844 294.636719 C 196.269531 297.152344 198.941406 299.429688 201.417969 301.898438 C 204.230469 304.703125 206.898438 307.640625 209.800781 310.355469 C 212.980469 313.332031 215.972656 316.3125 218.921875 319.515625 C 221.707031 322.535156 224.285156 325.726562 227.023438 328.785156 C 229.296875 331.328125 232.304688 333.375 234.304688 336.136719 C 235.808594 338.207031 237.257812 340.320312 238.730469 342.414062 C 239.714844 343.808594 241.023438 344.839844 242.292969 345.980469 C 243.351562 346.933594 244.414062 347.886719 245.472656 348.839844 C 245.828125 349.160156 246.1875 349.480469 246.542969 349.800781 C 247.136719 350.332031 246.570312 349.988281 246.515625 349.78125 C 246.71875 350.539062 247.753906 351.488281 248.210938 352.117188 C 249.050781 353.273438 249.890625 354.429688 250.730469 355.585938 C 250.984375 355.9375 251.242188 356.289062 251.496094 356.640625 C 251.695312 357.203125 252.082031 357.683594 252.628906 357.945312 C 253.277344 358.375 254.019531 358.335938 254.65625 358.007812 C 257.652344 357.511719 260.648438 357.007812 263.644531 356.515625 C 266.835938 355.992188 270.128906 355.679688 273.28125 354.949219 C 276.492188 354.203125 279.640625 352.976562 282.792969 351.992188 C 282.789062 351.996094 282.78125 352 282.785156 352.003906 C 282.914062 352.066406 283.316406 351.953125 283.457031 351.941406 C 284.46875 351.84375 285.476562 351.75 286.488281 351.65625 C 288.421875 351.472656 290.367188 351.339844 292.296875 351.109375 C 298.660156 350.355469 304.960938 348.945312 311.257812 347.796875 C 314.371094 347.230469 317.605469 347.117188 320.75 346.800781 C 320.960938 346.78125 321.3125 346.816406 321.507812 346.726562 C 321.511719 346.726562 321.507812 346.726562 321.511719 346.726562 C 322.167969 346.703125 322.824219 346.683594 323.480469 346.664062 C 325.632812 346.597656 327.78125 346.53125 329.929688 346.464844 C 332.996094 346.367188 336.015625 345.582031 339.042969 345.019531 C 338.753906 345.363281 338.457031 345.703125 338.171875 346.054688 C 334.171875 350.976562 330.636719 356.367188 326.980469 361.542969 C 325.167969 364.109375 323.53125 366.808594 321.828125 369.445312 C 320.132812 372.0625 318.175781 374.515625 316.324219 377.019531 C 312.644531 381.996094 309.085938 387.058594 305.546875 392.136719 C 302.445312 396.589844 299.636719 401.210938 296.957031 405.921875 C 295.90625 407.601562 294.914062 409.332031 293.914062 410.996094 C 292.992188 412.527344 293.53125 413.707031 294.175781 415.089844 C 294.582031 416.089844 295.066406 417.082031 295.425781 418.007812 C 295.945312 419.351562 296.375 420.796875 297.007812 422.089844 C 297.554688 423.203125 298.261719 424.265625 298.953125 425.320312 C 299.820312 426.996094 300.71875 428.65625 301.582031 430.328125 C 303.128906 433.316406 305.464844 435.917969 307.476562 438.601562 C 307.722656 438.929688 307.964844 439.296875 308.230469 439.628906 C 308.128906 439.464844 308.175781 439.4375 308.324219 439.738281 C 308.332031 439.75 308.339844 439.761719 308.347656 439.777344 C 308.390625 439.824219 308.425781 439.886719 308.472656 439.929688 C 308.421875 439.878906 308.398438 439.84375 308.359375 439.796875 C 308.519531 440.109375 308.695312 440.410156 308.863281 440.714844 C 309.929688 442.652344 310.996094 444.589844 312.058594 446.527344 C 313.675781 449.46875 315.617188 452.210938 317.46875 455.007812 C 319.203125 457.628906 320.898438 460.273438 322.597656 462.914062 C 323.070312 463.648438 323.546875 464.382812 324.019531 465.121094 C 324.035156 465.144531 324.0625 465.1875 324.09375 465.238281 C 324.160156 465.359375 324.234375 465.496094 324.261719 465.542969 C 325.296875 467.367188 326.367188 469.175781 327.421875 470.992188 C 329.625 474.796875 331.972656 478.503906 334.414062 482.15625 C 332.605469 481.121094 330.785156 480.105469 328.941406 479.132812 C 325.5625 477.347656 322.238281 475.609375 318.742188 474.070312 C 317.609375 473.570312 316.472656 473.070312 315.339844 472.574219 C 314.96875 472.410156 314.605469 472.230469 314.230469 472.085938 C 314.199219 472.074219 314.1875 472.070312 314.160156 472.058594 C 312.453125 470.902344 310.511719 469.980469 308.722656 468.953125 C 302.414062 465.339844 295.382812 463.195312 288.753906 460.238281 C 285.777344 458.910156 282.917969 457.316406 279.949219 455.964844 C 276.65625 454.46875 273.34375 453.019531 270.0625 451.503906 C 265.972656 449.609375 261.9375 447.882812 257.722656 446.289062 C 256.863281 445.960938 255.875 445.394531 254.964844 445.242188 C 255.4375 445.320312 255.558594 445.574219 254.972656 445.25 C 254.5 444.984375 254.023438 444.726562 253.550781 444.464844 C 251.539062 443.355469 249.53125 442.246094 247.519531 441.136719 C 246.234375 440.429688 244.554688 440.675781 243.984375 442.214844 C 240.882812 450.546875 237.511719 458.757812 234.195312 467.011719 C 232.8125 470.453125 232.34375 474.207031 231.03125 477.667969 C 230.070312 480.199219 228.984375 482.691406 227.964844 485.199219 C 227.265625 486.910156 226.957031 488.777344 226.519531 490.570312 C 225.4375 494.984375 224.226562 499.34375 222.898438 503.691406 C 221.808594 507.253906 220.015625 510.582031 218.953125 514.160156 C 217.597656 518.726562 216.199219 523.234375 214.648438 527.742188 C 214.082031 529.382812 213.546875 530.992188 213.101562 532.671875 C 212.714844 534.136719 212.332031 535.605469 211.945312 537.074219 C 211.789062 537.664062 211.027344 539.292969 211.199219 539.902344 C 211.128906 539.640625 211.5625 539.195312 211.199219 539.902344 C 211.183594 539.933594 211.175781 539.953125 211.15625 539.988281 C 210.863281 540.527344 210.574219 541.066406 210.28125 541.605469 C 209.550781 542.960938 208.820312 544.316406 208.089844 545.675781 C 207.636719 546.511719 207.023438 547.386719 206.6875 548.28125 C 206.367188 549.132812 206.28125 550.160156 206.097656 551.042969 C 205.789062 552.542969 205.476562 554.046875 205.167969 555.550781 C 205.097656 555.882812 205.027344 556.214844 204.960938 556.546875 C 204.519531 557.625 204.074219 558.707031 203.632812 559.785156 C 203.523438 559.34375 203.417969 558.902344 203.3125 558.464844 C 202.761719 556.183594 202.519531 553.855469 202.195312 551.53125 C 201.773438 548.507812 201.113281 545.554688 200.464844 542.597656 C 200.347656 540.738281 200.242188 538.851562 199.863281 537.074219 C 199.539062 535.53125 199.085938 534.007812 198.628906 532.492188 C 198.414062 530.976562 198.199219 529.464844 197.933594 527.960938 C 197.621094 526.1875 197.128906 524.425781 196.640625 522.675781 C 196.574219 521.886719 196.503906 521.097656 196.414062 520.328125 C 196.042969 517.101562 194.972656 514.066406 194.042969 510.984375 C 193.792969 509.578125 193.550781 508.171875 193.316406 506.769531 C 192.824219 503.859375 192.523438 500.832031 191.796875 497.972656 C 191.265625 495.898438 190.660156 493.84375 190.054688 491.789062 C 189.859375 490.738281 189.65625 489.691406 189.464844 488.640625 C 189.214844 487.285156 188.113281 486.722656 187.042969 486.785156 C 186.859375 486.769531 186.664062 486.769531 186.460938 486.800781 C 185.320312 486.980469 184.203125 488.28125 184.546875 489.492188 C 184.859375 490.582031 185.167969 491.667969 185.480469 492.757812 C 186.25 496.917969 187.035156 501.074219 187.871094 505.222656 C 188.277344 507.230469 188.730469 509.144531 189.289062 511.09375 C 189.746094 513.804688 190.242188 516.507812 190.894531 519.15625 C 191.253906 520.605469 191.65625 522.050781 192.050781 523.496094 C 192.195312 525.101562 192.355469 526.703125 192.640625 528.28125 C 192.988281 530.203125 193.585938 532.117188 194.164062 534.019531 C 194.261719 534.742188 194.363281 535.460938 194.472656 536.179688 C 194.800781 538.292969 195.28125 540.378906 195.765625 542.460938 C 195.976562 544.933594 196.117188 547.417969 196.625 549.847656 C 197.886719 555.886719 199.273438 561.867188 200.722656 567.859375 C 201.269531 570.109375 204.265625 570.488281 205.210938 568.296875 C 206.578125 565.132812 208.144531 562.039062 209.132812 558.753906 C 210.890625 554.503906 212.632812 550.246094 214.289062 545.957031 C 217.128906 538.59375 220.4375 531.347656 223.925781 524.269531 C 225.65625 520.757812 227.640625 517.390625 229.066406 513.738281 C 230.691406 509.570312 232.386719 505.550781 234.296875 501.507812 C 236.050781 497.796875 237.824219 494 239.175781 490.128906 C 239.203125 490.058594 239.21875 490.007812 239.230469 489.96875 C 239.355469 489.742188 239.480469 489.515625 239.605469 489.289062 C 240.257812 488.109375 240.914062 486.925781 241.566406 485.742188 C 242.429688 484.1875 243.511719 482.621094 244.082031 480.933594 C 245.457031 476.886719 246.523438 472.890625 248.285156 469 C 250.0625 465.066406 251.542969 461.175781 252.972656 457.109375 C 255.203125 458.375 257.4375 459.648438 259.742188 460.738281 C 263.050781 462.308594 266.40625 463.789062 269.773438 465.234375 C 273.378906 466.78125 276.976562 468.332031 280.542969 469.96875 C 281.710938 470.503906 282.878906 471.042969 284.050781 471.578125 C 284.429688 471.753906 284.804688 471.945312 285.1875 472.101562 C 285.230469 472.117188 285.246094 472.125 285.273438 472.136719 C 287.128906 473.210938 289.042969 474.199219 290.925781 475.230469 C 294.367188 477.121094 297.839844 478.953125 301.304688 480.800781 C 302.558594 481.472656 303.894531 481.933594 305.222656 482.445312 C 306.464844 482.929688 307.707031 483.414062 308.953125 483.894531 C 309.464844 484.097656 310.101562 484.457031 310.683594 484.617188 C 310.507812 484.542969 310.597656 484.492188 310.953125 484.683594 C 310.972656 484.683594 310.992188 484.695312 311.011719 484.695312 C 310.988281 484.695312 310.980469 484.6875 310.957031 484.683594 C 310.980469 484.695312 310.988281 484.695312 311.011719 484.710938 C 311.445312 484.957031 311.878906 485.199219 312.3125 485.441406 C 313.46875 486.09375 314.625 486.746094 315.777344 487.398438 C 317.144531 488.167969 318.496094 488.976562 319.910156 489.664062 C 322.089844 490.726562 324.269531 491.789062 326.453125 492.851562 C 326.808594 493.027344 327.160156 493.207031 327.523438 493.375 C 327.609375 493.414062 327.667969 493.4375 327.707031 493.457031 C 328.402344 493.828125 329.097656 494.203125 329.796875 494.574219 C 333.320312 496.460938 336.765625 498.371094 340.1875 500.429688 C 343.597656 502.480469 346.765625 504.726562 350 507.046875 C 350.53125 507.425781 351.058594 507.804688 351.585938 508.183594 C 353.34375 509.445312 356.359375 507.355469 355.058594 505.292969 C 352.59375 501.394531 350.199219 497.410156 347.710938 493.496094 C 348.167969 492.890625 348.308594 492.097656 347.816406 491.292969 C 344.417969 485.757812 341.011719 480.257812 337.335938 474.898438 C 337.332031 474.890625 337.332031 474.890625 337.328125 474.886719 C 337.300781 474.835938 337.269531 474.777344 337.21875 474.683594 C 336.773438 473.878906 336.308594 473.085938 335.851562 472.289062 C 334.890625 470.605469 333.949219 468.910156 332.96875 467.234375 C 331.335938 464.453125 329.410156 461.820312 327.625 459.136719 C 325.921875 456.582031 323.984375 454.171875 322.15625 451.703125 C 320.332031 449.242188 318.703125 446.628906 316.996094 444.089844 C 313.578125 439 310.28125 433.882812 306.71875 428.890625 C 306.496094 428.578125 305.472656 427.019531 306.144531 428.140625 C 305.792969 427.554688 305.433594 426.972656 305.078125 426.390625 C 304.542969 425.519531 304.007812 424.65625 303.46875 423.785156 C 303.125 423.128906 302.777344 422.472656 302.4375 421.8125 C 301.128906 419.28125 299.980469 416.664062 298.828125 414.058594 C 298.683594 413.644531 298.542969 413.238281 298.398438 412.832031 C 298.933594 411.871094 299.472656 410.910156 300.011719 409.953125 C 300.855469 408.574219 301.710938 407.207031 302.613281 405.871094 C 304.261719 403.441406 306.460938 401.28125 308.363281 399.046875 C 311.980469 394.796875 315.320312 390.410156 318.347656 385.730469 C 319.871094 383.375 321.339844 381.277344 323.152344 379.144531 C 324.980469 376.988281 326.847656 374.875 328.53125 372.605469 C 332.109375 367.792969 335.691406 362.992188 339.632812 358.46875 C 341.804688 355.972656 344.214844 353.675781 346.339844 351.140625 C 348.488281 348.578125 350.441406 345.824219 352.484375 343.175781 C 353.839844 341.414062 352.058594 339.417969 350.191406 339.519531 C 350.058594 339.527344 349.925781 339.53125 349.796875 339.539062 C 351.375 337.546875 352.921875 335.527344 354.484375 333.527344 C 355.808594 331.835938 354.089844 329.667969 352.191406 329.871094 Z M 107.113281 456.941406 C 110.628906 457.273438 114.175781 457.441406 117.636719 458.148438 C 124.632812 459.570312 131.628906 461.398438 138.734375 462.109375 C 140.707031 462.308594 142.726562 462.394531 144.683594 462.707031 C 146.160156 462.941406 147.632812 463.386719 149.089844 463.730469 C 152.609375 464.558594 156.121094 465.320312 159.667969 466.023438 C 160.910156 466.269531 162.148438 466.527344 163.386719 466.761719 C 163.589844 466.800781 163.796875 466.863281 164.003906 466.882812 C 163.949219 466.878906 163.921875 466.875 163.878906 466.871094 C 163.941406 466.882812 164 466.894531 164.050781 466.90625 C 166.550781 467.554688 169.0625 468.183594 171.566406 468.824219 C 171.878906 468.902344 172.355469 469.117188 172.699219 469.128906 C 172.761719 469.199219 172.828125 469.269531 172.90625 469.339844 C 169.429688 469.074219 165.953125 468.820312 162.472656 468.605469 C 159.125 468.402344 155.722656 468.394531 152.394531 467.933594 C 149.007812 467.464844 145.625 466.914062 142.214844 466.613281 C 138.757812 466.304688 135.332031 465.945312 131.863281 465.890625 C 128.34375 465.835938 124.90625 465.777344 121.410156 465.441406 C 114.421875 464.765625 107.445312 464.203125 100.511719 463.132812 C 96.496094 462.515625 92.5 461.820312 88.496094 461.128906 C 88.199219 461.074219 87.894531 461.007812 87.59375 460.96875 C 87.585938 460.964844 87.585938 460.960938 87.582031 460.957031 C 86.792969 460.4375 85.632812 460.191406 84.757812 459.847656 C 84.203125 459.628906 83.644531 459.410156 83.085938 459.191406 C 83.734375 458.742188 84.378906 458.292969 85.027344 457.84375 C 85.6875 457.386719 86.382812 456.953125 87.023438 456.460938 C 86.824219 456.597656 86.675781 456.660156 87.023438 456.460938 C 87.074219 456.421875 87.128906 456.390625 87.179688 456.351562 C 87.128906 456.390625 87.078125 456.425781 87.027344 456.460938 C 87.050781 456.445312 87.066406 456.4375 87.097656 456.417969 C 87.546875 456.167969 87.988281 455.898438 88.433594 455.640625 C 89.703125 454.902344 90.964844 454.152344 92.226562 453.40625 C 92.578125 453.484375 92.933594 453.5625 93.285156 453.640625 C 94.148438 453.835938 95.007812 454.03125 95.871094 454.21875 C 95.839844 454.207031 95.804688 454.199219 95.773438 454.1875 C 95.835938 454.210938 95.898438 454.222656 95.960938 454.238281 C 95.980469 454.242188 96 454.246094 96.019531 454.25 C 96.375 454.328125 96.304688 454.320312 96.132812 454.285156 C 96.277344 454.320312 96.417969 454.359375 96.554688 454.394531 C 100.011719 455.300781 103.550781 456.605469 107.113281 456.941406 Z M 181.929688 399.78125 C 181.953125 400.019531 181.976562 400.261719 182 400.503906 C 179.132812 401.820312 176.210938 403.089844 173.53125 404.742188 C 171.425781 406.039062 169.355469 407.449219 167.1875 408.648438 C 165.664062 409.488281 163.914062 410.023438 162.296875 410.675781 C 158.359375 412.265625 154.636719 414.125 150.835938 416.03125 C 147.730469 417.589844 144.78125 419.460938 141.667969 421.007812 C 138.027344 422.816406 134.289062 424.238281 130.863281 426.4375 C 129.023438 427.621094 127.207031 428.851562 125.339844 429.988281 C 125.300781 429.996094 125.242188 430.007812 125.144531 430.039062 C 124.695312 430.164062 124.25 430.394531 123.816406 430.570312 C 122.515625 431.085938 121.21875 431.605469 119.921875 432.125 C 112.984375 434.894531 106.617188 439.183594 100.273438 443.097656 C 97.324219 444.914062 94.359375 446.691406 91.402344 448.480469 C 90.582031 448.292969 89.757812 448.105469 88.933594 447.921875 C 88.53125 447.832031 88.125 447.738281 87.722656 447.652344 C 87.714844 447.648438 87.714844 447.648438 87.707031 447.648438 C 87.738281 447.65625 87.75 447.660156 87.789062 447.671875 C 87.75 447.660156 87.707031 447.648438 87.671875 447.636719 C 87.417969 447.582031 87.308594 447.542969 87.351562 447.546875 C 86.5625 447.320312 85.757812 447.128906 84.96875 446.917969 C 84.421875 446.769531 83.875 446.625 83.324219 446.476562 C 83.695312 446.226562 84.0625 445.976562 84.429688 445.726562 C 85.332031 445.117188 86.246094 444.519531 87.136719 443.890625 C 87.183594 443.859375 87.210938 443.839844 87.242188 443.820312 C 87.421875 443.707031 87.605469 443.59375 87.785156 443.480469 C 91.28125 441.304688 94.792969 439.160156 98.210938 436.871094 C 100.089844 435.613281 102.023438 434.410156 103.855469 433.089844 C 103.875 433.085938 103.878906 433.089844 103.902344 433.082031 C 104.28125 432.976562 104.664062 432.734375 105.019531 432.570312 C 106.203125 432.027344 107.382812 431.488281 108.5625 430.945312 C 112.363281 429.203125 116.074219 427.335938 119.800781 425.429688 C 123.28125 423.652344 126.804688 421.957031 130.285156 420.175781 C 133.382812 418.59375 136.277344 416.550781 139.433594 415.09375 C 142.722656 413.570312 146.390625 412.804688 149.570312 411.050781 C 153.117188 409.09375 156.589844 407.074219 160.296875 405.445312 C 167.484375 402.296875 174.546875 398.910156 181.589844 395.460938 C 181.699219 396.898438 181.789062 398.328125 181.929688 399.78125 Z M 341.007812 491.839844 C 341.800781 493.046875 342.589844 494.253906 343.367188 495.480469 C 343.890625 496.304688 344.417969 497.128906 344.941406 497.953125 C 342.058594 496.085938 339.117188 494.304688 336.050781 492.667969 C 332.464844 490.746094 328.882812 488.863281 325.226562 487.078125 C 324.125 486.542969 323.023438 486.007812 321.921875 485.46875 C 321.664062 485.34375 321.398438 485.191406 321.128906 485.082031 C 319.105469 483.90625 317.054688 482.785156 315.019531 481.636719 C 311.636719 479.726562 307.96875 478.539062 304.363281 477.101562 C 302.96875 476.546875 301.671875 475.75 300.351562 475.042969 C 299.207031 474.433594 298.0625 473.824219 296.917969 473.210938 C 296.550781 473.015625 296.183594 472.820312 295.816406 472.625 C 295.425781 472.417969 295.5 472.449219 295.664062 472.539062 C 289.1875 468.808594 282.484375 465.613281 275.617188 462.664062 C 271.960938 461.09375 268.324219 459.5 264.699219 457.863281 C 263.6875 457.40625 262.679688 456.9375 261.664062 456.492188 C 261.640625 456.484375 261.605469 456.46875 261.5625 456.449219 C 261.445312 456.394531 261.179688 456.273438 261.09375 456.226562 C 258.953125 455.054688 256.808594 453.886719 254.667969 452.71875 C 254.125 452.421875 253.582031 452.125 253.039062 451.828125 C 251.773438 451.140625 250.046875 451.351562 249.503906 452.90625 C 248.257812 456.457031 247.1875 460.113281 245.636719 463.546875 C 244.589844 465.855469 243.457031 468.148438 242.492188 470.492188 C 241.816406 472.140625 241.386719 473.917969 240.855469 475.617188 C 240.476562 476.835938 240.050781 478.046875 239.714844 479.277344 C 239.664062 479.464844 239.617188 479.628906 239.601562 479.710938 C 239.53125 479.832031 239.46875 479.953125 239.402344 480.070312 C 238.132812 482.363281 236.867188 484.65625 235.597656 486.949219 C 233.824219 490.15625 232.753906 493.726562 231.25 497.0625 C 229.613281 500.695312 227.769531 504.214844 226.320312 507.929688 C 225.808594 509.234375 225.320312 510.5625 224.816406 511.878906 C 225.433594 510.195312 226.074219 508.511719 226.738281 506.8125 C 228.070312 503.421875 229.027344 499.769531 229.90625 496.234375 C 230.566406 493.589844 231.203125 490.941406 231.851562 488.292969 C 232.300781 486.464844 233.203125 484.722656 233.910156 482.984375 C 234.59375 481.300781 235.359375 479.652344 235.847656 477.902344 C 236.566406 475.320312 237.207031 472.699219 238.007812 470.140625 C 239.125 466.554688 240.792969 463.070312 242.222656 459.589844 C 244.019531 455.222656 245.746094 450.855469 247.394531 446.433594 C 249.566406 447.71875 251.765625 449.027344 254.078125 449.902344 C 257.542969 451.210938 261.015625 452.453125 264.378906 454.007812 C 271.324219 457.21875 278.308594 460.324219 285.1875 463.675781 C 288.488281 465.28125 291.925781 466.570312 295.316406 467.96875 C 296.65625 468.519531 297.984375 469.085938 299.316406 469.644531 C 300.460938 470.125 301.605469 470.605469 302.746094 471.085938 C 303.117188 471.242188 303.484375 471.421875 303.863281 471.554688 C 303.902344 471.570312 303.917969 471.574219 303.945312 471.582031 C 309.996094 475.710938 316.957031 478.050781 323.386719 481.441406 C 324.6875 482.128906 325.988281 482.816406 327.289062 483.5 C 327.691406 483.714844 328.09375 483.925781 328.496094 484.136719 C 328.5 484.140625 328.496094 484.140625 328.503906 484.144531 C 330.449219 485.535156 332.746094 486.589844 334.824219 487.785156 C 336.957031 489.015625 338.988281 490.417969 341.007812 491.839844 Z M 342.535156 348.433594 C 341.902344 349.191406 341.238281 349.921875 340.566406 350.648438 C 340.824219 350.296875 341.085938 349.945312 341.34375 349.59375 C 342.671875 347.785156 344.179688 346.113281 345.683594 344.433594 C 344.660156 345.789062 343.621094 347.136719 342.535156 348.433594 Z M 344.527344 338.679688 C 344.214844 339.0625 343.894531 339.429688 343.578125 339.804688 C 342.476562 339.867188 341.378906 339.941406 340.289062 340.066406 C 338.828125 340.234375 337.367188 340.589844 335.921875 340.851562 C 334.796875 341.054688 333.675781 341.257812 332.554688 341.460938 C 332.140625 341.535156 330.953125 341.511719 330.652344 341.800781 C 330.648438 341.804688 330.65625 341.804688 330.660156 341.808594 C 330.433594 341.816406 330.210938 341.824219 329.984375 341.828125 C 328.925781 341.863281 327.867188 341.894531 326.808594 341.929688 C 325.027344 341.984375 323.25 342.035156 321.472656 342.09375 C 318.082031 342.203125 314.605469 342.617188 311.246094 343.066406 C 308.058594 343.492188 304.894531 344.28125 301.730469 344.859375 C 298.597656 345.433594 295.4375 345.90625 292.289062 346.398438 C 289.148438 346.886719 285.933594 347.03125 282.769531 347.324219 C 281.617188 347.433594 280.558594 347.835938 279.453125 348.179688 C 277.351562 348.835938 275.25 349.492188 273.144531 350.148438 C 272.90625 350.222656 272.667969 350.296875 272.425781 350.375 C 272.410156 350.371094 272.410156 350.363281 272.390625 350.359375 C 271.675781 350.234375 270.460938 350.675781 269.757812 350.789062 C 267.578125 351.144531 265.394531 351.496094 263.214844 351.855469 C 260.410156 352.3125 257.609375 352.78125 254.808594 353.25 C 252.859375 350.46875 250.992188 347.5625 248.476562 345.296875 C 246.625 343.632812 244.78125 341.960938 242.921875 340.308594 C 242.933594 340.3125 242.945312 340.316406 242.941406 340.304688 C 242.910156 340.039062 242.394531 339.53125 242.25 339.324219 C 241.46875 338.210938 240.683594 337.101562 239.898438 335.988281 C 238.957031 334.652344 238.109375 333.210938 236.941406 332.0625 C 235.109375 330.261719 233.277344 328.460938 231.449219 326.660156 C 228.957031 324.210938 226.886719 321.335938 224.554688 318.742188 C 222.652344 316.625 220.746094 314.515625 218.753906 312.492188 C 219.367188 313.015625 219.976562 313.550781 220.59375 314.070312 C 222.144531 315.378906 223.710938 316.667969 225.265625 317.964844 C 226.128906 318.6875 226.984375 319.429688 227.863281 320.132812 C 227.886719 320.152344 227.886719 320.152344 227.910156 320.171875 C 227.863281 320.125 227.8125 320.074219 227.761719 320.015625 C 227.8125 320.078125 227.875 320.132812 227.933594 320.191406 C 228.140625 320.363281 228.109375 320.355469 227.984375 320.242188 C 228.117188 320.378906 228.25 320.519531 228.378906 320.65625 C 231.226562 323.613281 233.941406 326.636719 237.136719 329.222656 C 238.863281 330.625 240.570312 332.332031 242.449219 333.539062 C 242.644531 333.875 242.988281 334.183594 243.238281 334.480469 C 244.082031 335.492188 244.929688 336.503906 245.773438 337.515625 C 248.410156 340.671875 251.015625 343.851562 253.621094 347.03125 C 254.042969 347.546875 254.464844 348.0625 254.882812 348.578125 C 255.5625 349.40625 256.457031 349.554688 257.238281 349.300781 C 269.761719 346.617188 282.273438 344.011719 294.890625 341.824219 C 301.199219 340.734375 307.375 339.269531 313.636719 337.980469 C 316.71875 337.347656 319.992188 337.28125 323.121094 336.964844 C 326.277344 336.648438 329.449219 336.46875 332.613281 336.226562 C 337.5625 335.851562 342.488281 335.480469 347.417969 335.027344 C 346.464844 336.253906 345.507812 337.480469 344.527344 338.679688 Z M 344.527344 338.679688 " fill-opacity="1" fill-rule="nonzero"/></g></g></g></svg>