<svg xmlns="http://www.w3.org/2000/svg" xmlns:xlink="http://www.w3.org/1999/xlink" width="1366" zoomAndPan="magnify" viewBox="0 0 1024.5 576" height="768" preserveAspectRatio="xMidYMid meet" version="1.0"><defs><g/><clipPath id="f672ea8fd5"><path d="M 342 0.71875 L 660 0.71875 L 660 150 L 342 150 Z M 342 0.71875 " clip-rule="nonzero"/></clipPath><clipPath id="577bb37ea9"><path d="M 0.273438 153 L 1006.34375 153 L 1006.34375 263.148438 L 0.273438 263.148438 Z M 0.273438 153 " clip-rule="nonzero"/></clipPath><clipPath id="3f2aaea64b"><rect x="0" width="1007" y="0" height="111"/></clipPath><clipPath id="bd6e9ed2f3"><rect x="0" width="1007" y="0" height="264"/></clipPath></defs><g transform="matrix(1, 0, 0, 1, 11, 128)"><g clip-path="url(#bd6e9ed2f3)"><g clip-path="url(#f672ea8fd5)"><path fill="#89683a" d="M 465.558594 41.449219 C 463.648438 42.070312 461.738281 42.691406 459.828125 43.3125 C 459.582031 43.277344 459.316406 43.316406 459.042969 43.457031 C 458.851562 43.554688 458.660156 43.65625 458.46875 43.753906 C 458.136719 43.863281 457.804688 43.96875 457.472656 44.078125 C 456.914062 43.597656 455.941406 43.507812 455.394531 44.296875 C 455.261719 44.492188 455.128906 44.6875 454.996094 44.882812 C 451.226562 46.105469 447.453125 47.328125 443.683594 48.558594 C 443.644531 48.570312 443.609375 48.582031 443.574219 48.59375 C 443.105469 47.875 441.949219 47.625 441.34375 48.589844 C 441.148438 48.894531 440.957031 49.203125 440.765625 49.511719 C 435.421875 51.253906 430.078125 52.992188 424.757812 54.792969 C 421.589844 48.636719 418.152344 42.601562 414.859375 36.511719 C 413.570312 34.125 412.019531 31.863281 410.585938 29.558594 C 408.835938 26.742188 407.089844 23.929688 405.339844 21.113281 C 405.3125 21.03125 405.285156 20.945312 405.257812 20.859375 C 405.175781 20.605469 405.003906 20.402344 404.796875 20.246094 C 404.257812 19.378906 403.722656 18.515625 403.183594 17.648438 C 403.015625 17.382812 402.851562 17.117188 402.6875 16.851562 C 401.941406 15.652344 400.394531 16.277344 400.238281 17.511719 C 399.230469 25.324219 398.03125 33.132812 397.285156 40.976562 C 396.558594 48.640625 395.859375 56.304688 395.003906 63.957031 C 394.886719 64.03125 394.777344 64.132812 394.679688 64.253906 C 394.503906 64.296875 394.328125 64.335938 394.152344 64.378906 C 392.296875 64.847656 390.441406 65.320312 388.585938 65.792969 C 388.300781 65.742188 387.992188 65.804688 387.695312 66.015625 C 381.261719 67.644531 374.824219 69.277344 368.390625 70.914062 C 360.320312 72.96875 352.273438 75.113281 344.214844 77.234375 C 343.835938 77.332031 343.457031 77.433594 343.078125 77.53125 C 341.789062 77.871094 341.867188 79.691406 343.078125 80.066406 C 345.5 80.816406 347.925781 81.5625 350.347656 82.3125 C 350.34375 82.480469 350.335938 82.644531 350.332031 82.8125 C 350.28125 84.308594 352.523438 84.582031 352.914062 83.164062 C 352.917969 83.144531 352.925781 83.125 352.929688 83.105469 C 356.820312 84.308594 360.714844 85.511719 364.601562 86.730469 C 367.1875 87.542969 369.777344 88.339844 372.367188 89.144531 C 372.410156 89.167969 372.449219 89.199219 372.496094 89.21875 C 373.332031 89.597656 374.164062 89.972656 374.996094 90.347656 C 374.332031 91.578125 376.140625 93.019531 377.09375 91.875 C 377.210938 91.734375 377.328125 91.59375 377.445312 91.453125 C 379.261719 92.273438 381.078125 93.09375 382.894531 93.910156 C 384.800781 94.773438 386.707031 95.632812 388.613281 96.492188 C 389.621094 96.949219 390.53125 97.175781 391.628906 97.394531 C 391.777344 97.421875 391.921875 97.453125 392.070312 97.480469 C 391.636719 105.523438 391.09375 113.554688 390.523438 121.59375 C 389.921875 130.152344 389.542969 138.726562 389.09375 147.292969 C 389.070312 147.707031 389.046875 148.121094 389.027344 148.535156 C 388.960938 149.804688 390.914062 150.375 391.476562 149.199219 C 393.445312 145.097656 395.414062 140.996094 397.386719 136.890625 C 398.828125 133.886719 400.136719 130.773438 401.835938 127.898438 C 406.1875 120.53125 410.363281 113.058594 415.171875 105.976562 C 415.429688 105.601562 415.683594 105.226562 415.9375 104.851562 C 422.871094 107.40625 429.804688 109.96875 436.730469 112.542969 C 444.367188 115.378906 452.046875 118.09375 459.710938 120.84375 C 460.09375 120.980469 460.472656 121.117188 460.855469 121.253906 C 462.449219 121.828125 463.136719 119.289062 461.554688 118.71875 C 459.710938 118.058594 457.871094 117.402344 456.027344 116.746094 C 455.519531 115.769531 455.007812 114.796875 454.5 113.820312 C 454.464844 113.714844 454.417969 113.605469 454.351562 113.5 C 454.335938 113.472656 454.320312 113.449219 454.304688 113.421875 C 454.273438 113.359375 454.234375 113.300781 454.195312 113.238281 C 451.316406 107.742188 448.414062 102.253906 445.609375 96.722656 C 442.3125 90.226562 439.1875 83.640625 435.964844 77.105469 C 435.980469 77.085938 435.996094 77.0625 436.015625 77.039062 C 436.476562 76.433594 436.9375 75.824219 437.398438 75.214844 C 437.433594 75.167969 437.453125 75.140625 437.472656 75.113281 C 437.503906 75.085938 437.554688 75.039062 437.664062 74.925781 C 441.351562 71.199219 444.894531 67.320312 448.503906 63.523438 C 454.429688 57.289062 460.195312 50.90625 466 44.5625 C 466.28125 44.257812 466.558594 43.953125 466.835938 43.648438 C 467.675781 42.730469 466.871094 41.023438 465.558594 41.449219 Z M 416.785156 57.558594 C 416.523438 57.652344 416.261719 57.742188 416 57.835938 C 415.742188 57.09375 415.484375 56.347656 415.226562 55.601562 C 415.746094 56.253906 416.265625 56.90625 416.785156 57.558594 Z M 405.421875 50.777344 C 405.640625 51.761719 405.832031 52.75 406.027344 53.734375 C 405.664062 52.535156 405.304688 51.335938 404.941406 50.132812 C 404.695312 49.316406 404.449219 48.5 404.203125 47.683594 C 404.265625 47.140625 404.324219 46.597656 404.382812 46.054688 C 404.730469 47.628906 405.078125 49.203125 405.421875 50.777344 Z M 409.019531 55.492188 C 408.671875 53.453125 408.257812 51.421875 407.824219 49.398438 C 408.832031 52.777344 409.378906 56.296875 410.109375 59.753906 C 410.121094 59.808594 410.132812 59.867188 410.144531 59.921875 C 410.03125 59.960938 409.917969 60.003906 409.800781 60.042969 C 409.542969 58.523438 409.28125 57.007812 409.019531 55.492188 Z M 415.984375 73.671875 C 417.21875 72.953125 418.453125 72.234375 419.6875 71.515625 C 418.121094 73.558594 416.554688 75.605469 414.988281 77.648438 C 415.089844 76.644531 415.1875 75.636719 415.289062 74.628906 C 415.523438 74.308594 415.753906 73.988281 415.984375 73.671875 Z M 411.351562 80.914062 C 411.554688 81.144531 411.757812 81.371094 411.960938 81.601562 C 411.8125 81.796875 411.664062 81.988281 411.515625 82.179688 C 411.464844 82.246094 411.414062 82.3125 411.363281 82.378906 C 411.351562 82.394531 411.335938 82.40625 411.316406 82.429688 C 410.464844 83.335938 409.675781 84.308594 408.878906 85.269531 C 409.703125 83.820312 410.527344 82.367188 411.351562 80.914062 Z M 421.003906 79.546875 C 420.925781 79.460938 420.84375 79.386719 420.761719 79.328125 C 420.882812 79.023438 421.003906 78.71875 421.125 78.417969 C 421.632812 77.648438 422.140625 76.882812 422.648438 76.113281 C 423.75 74.453125 424.949219 72.828125 425.960938 71.109375 C 425.984375 71.074219 426.007812 71.039062 426.027344 71.007812 C 426.0625 70.960938 426.101562 70.914062 426.136719 70.867188 C 426.238281 70.738281 426.34375 70.605469 426.445312 70.476562 C 426.46875 70.597656 426.492188 70.71875 426.515625 70.839844 C 424.683594 73.746094 422.851562 76.652344 421.003906 79.546875 Z M 421.652344 66.679688 C 421.28125 66.867188 420.910156 67.050781 420.542969 67.238281 C 420.648438 66.75 420.390625 66.25 419.988281 65.941406 C 420.019531 65.886719 420.050781 65.832031 420.082031 65.78125 C 420.148438 65.671875 420.210938 65.5625 420.273438 65.453125 C 420.738281 65.269531 421.203125 65.089844 421.667969 64.910156 C 421.054688 65.417969 421.179688 66.191406 421.652344 66.679688 Z M 408.6875 89.679688 C 408.546875 89.894531 408.402344 90.113281 408.257812 90.328125 C 408.261719 90.277344 408.261719 90.226562 408.265625 90.175781 C 408.40625 90.011719 408.546875 89.84375 408.6875 89.679688 Z M 413.167969 69.601562 C 412.859375 69.816406 412.550781 70.03125 412.242188 70.246094 C 412.046875 70.285156 411.855469 70.320312 411.660156 70.355469 C 411.910156 69.929688 412.15625 69.503906 412.40625 69.078125 C 412.695312 68.910156 412.984375 68.738281 413.273438 68.570312 C 413.238281 68.914062 413.203125 69.257812 413.167969 69.601562 Z M 403.011719 60.472656 C 402.980469 60.699219 402.945312 60.925781 402.914062 61.15625 C 402.941406 60.90625 402.96875 60.65625 402.996094 60.410156 C 403 60.429688 403.007812 60.449219 403.011719 60.472656 Z M 402.953125 96.289062 C 402.824219 96.554688 402.695312 96.820312 402.566406 97.089844 C 402.488281 97.058594 402.414062 97.03125 402.335938 97.003906 C 402.542969 96.765625 402.75 96.527344 402.953125 96.289062 Z M 401.320312 99.421875 C 401.351562 99.433594 401.382812 99.445312 401.410156 99.457031 C 401.253906 99.78125 401.09375 100.105469 400.9375 100.429688 C 401.066406 100.09375 401.195312 99.757812 401.320312 99.421875 Z M 422.421875 95.300781 C 423.324219 96.148438 424.226562 96.996094 425.132812 97.839844 C 425.21875 97.960938 425.304688 98.078125 425.390625 98.195312 C 425.460938 98.292969 425.53125 98.386719 425.597656 98.484375 C 424.3125 97.757812 423.027344 97.03125 421.738281 96.304688 C 421.96875 95.972656 422.195312 95.636719 422.421875 95.300781 Z M 389.894531 88.035156 C 389.765625 87.996094 389.640625 87.960938 389.511719 87.921875 C 390.238281 86.941406 390.96875 85.960938 391.695312 84.980469 C 391.09375 86 390.496094 87.015625 389.894531 88.035156 Z M 412.714844 59.015625 C 412.484375 57.875 412.257812 56.734375 412.027344 55.59375 C 412.4375 56.667969 412.847656 57.746094 413.261719 58.820312 C 413.078125 58.886719 412.898438 58.953125 412.714844 59.015625 Z M 407.003906 107.769531 C 407.710938 105.953125 408.417969 104.136719 409.121094 102.324219 C 409.550781 102.480469 409.976562 102.640625 410.402344 102.796875 C 410.398438 102.804688 410.394531 102.8125 410.390625 102.816406 C 409.261719 104.46875 408.132812 106.117188 407.003906 107.769531 Z M 430.90625 89.605469 C 430.261719 88.5 429.617188 87.398438 428.972656 86.292969 C 429.25 85.941406 429.519531 85.585938 429.796875 85.230469 C 431.824219 88.589844 433.855469 91.953125 435.886719 95.316406 C 435.019531 94.347656 434.105469 93.429688 433.199219 92.488281 C 432.675781 91.9375 432.152344 91.390625 431.625 90.84375 C 431.386719 90.429688 431.148438 90.015625 430.90625 89.605469 Z M 439.019531 66.132812 C 439.8125 64.832031 440.601562 63.53125 441.394531 62.226562 C 441.539062 62.382812 441.710938 62.503906 441.90625 62.566406 C 440.953125 64.277344 439.976562 65.976562 438.8125 67.546875 C 437.78125 68.929688 436.75 70.3125 435.71875 71.691406 C 436.816406 69.835938 437.902344 67.972656 439.019531 66.132812 Z M 403.890625 31.457031 C 403.867188 31.390625 403.839844 31.324219 403.816406 31.253906 C 403.78125 31.164062 403.738281 31.082031 403.691406 31.003906 C 403.707031 30.910156 403.722656 30.820312 403.738281 30.726562 C 403.828125 30.976562 403.914062 31.230469 404.003906 31.484375 C 403.96875 31.472656 403.929688 31.464844 403.890625 31.457031 Z M 403.792969 43.371094 C 403.449219 43.234375 403.042969 43.210938 402.699219 43.332031 C 402.726562 43.109375 402.753906 42.890625 402.78125 42.667969 C 402.855469 42.0625 402.460938 41.652344 401.957031 41.476562 C 402.160156 40.253906 402.363281 39.027344 402.566406 37.800781 C 402.976562 39.65625 403.382812 41.515625 403.792969 43.371094 Z M 387.0625 86.027344 C 386.867188 86.386719 386.671875 86.746094 386.476562 87.101562 C 386.234375 87.042969 385.992188 86.976562 385.75 86.921875 C 386.851562 85.398438 387.957031 83.871094 389.0625 82.347656 C 388.394531 83.574219 387.726562 84.800781 387.0625 86.027344 Z M 394.941406 92.886719 C 395.085938 92.75 395.1875 92.574219 395.257812 92.375 C 396.367188 92.367188 396.859375 90.914062 396.15625 90.15625 C 396.265625 90.011719 396.375 89.867188 396.484375 89.71875 C 396.773438 89.992188 397.210938 90.125 397.628906 90.097656 C 397.617188 90.238281 397.605469 90.375 397.59375 90.515625 C 397.152344 91.351562 396.710938 92.191406 396.265625 93.027344 C 396.066406 93.210938 395.917969 93.464844 395.863281 93.785156 C 395.765625 93.972656 395.667969 94.160156 395.570312 94.34375 C 395.339844 94.226562 395.113281 94.105469 394.886719 93.984375 C 394.90625 93.621094 394.921875 93.253906 394.941406 92.886719 Z M 394.199219 70.789062 C 394.054688 70.988281 393.910156 71.1875 393.765625 71.386719 C 393.921875 71.101562 394.074219 70.816406 394.230469 70.53125 C 394.21875 70.617188 394.207031 70.703125 394.199219 70.789062 Z M 378.585938 84.527344 C 378.117188 84.347656 377.648438 84.171875 377.183594 83.992188 C 378.863281 82.207031 380.542969 80.421875 382.222656 78.640625 C 381.011719 80.601562 379.796875 82.5625 378.585938 84.527344 Z M 397.757812 126.992188 C 397.761719 126.980469 397.769531 126.972656 397.773438 126.960938 C 398.679688 124.171875 399.582031 121.382812 400.488281 118.59375 C 400.628906 118.796875 400.84375 118.953125 401.089844 119.046875 C 401.28125 119.179688 401.507812 119.261719 401.738281 119.289062 C 400.390625 121.910156 399.042969 124.53125 397.710938 127.15625 C 397.726562 127.101562 397.742188 127.046875 397.757812 126.992188 Z M 417.113281 98.265625 C 417.136719 98.277344 417.160156 98.292969 417.1875 98.308594 C 416.929688 98.695312 416.667969 99.078125 416.410156 99.464844 C 416.644531 99.066406 416.878906 98.664062 417.113281 98.265625 Z M 428.640625 96.117188 C 428.59375 96.011719 428.546875 95.910156 428.496094 95.804688 C 428.519531 95.835938 428.539062 95.871094 428.5625 95.902344 C 428.664062 96.0625 428.769531 96.226562 428.875 96.386719 C 428.796875 96.296875 428.71875 96.207031 428.640625 96.117188 Z M 442.558594 51.957031 C 442.5625 51.953125 442.5625 51.949219 442.566406 51.945312 C 442.601562 51.929688 442.609375 51.933594 442.558594 51.957031 Z M 383.402344 84.96875 C 383.195312 85.351562 382.988281 85.734375 382.78125 86.117188 C 382.558594 86.03125 382.335938 85.949219 382.117188 85.863281 C 382.878906 84.953125 383.640625 84.042969 384.402344 83.128906 C 384.066406 83.742188 383.734375 84.355469 383.402344 84.96875 Z M 374.78125 82.332031 C 374.613281 82.546875 374.445312 82.757812 374.277344 82.972656 C 374.214844 82.953125 374.152344 82.933594 374.089844 82.914062 C 374.421875 82.589844 374.753906 82.265625 375.089844 81.941406 C 374.984375 82.070312 374.882812 82.203125 374.78125 82.332031 Z M 366.722656 81.320312 C 366.632812 81.300781 366.539062 81.28125 366.449219 81.261719 C 366.78125 80.96875 367.117188 80.675781 367.449219 80.378906 C 367.207031 80.691406 366.964844 81.007812 366.722656 81.320312 Z M 359.765625 79.871094 C 359.675781 79.855469 359.585938 79.835938 359.496094 79.816406 C 359.660156 79.710938 359.820312 79.605469 359.984375 79.5 C 359.910156 79.625 359.839844 79.746094 359.765625 79.871094 Z M 419.453125 99.671875 C 421.503906 100.898438 423.554688 102.128906 425.601562 103.359375 C 423.222656 102.613281 420.847656 101.867188 418.464844 101.125 C 418.796875 100.640625 419.125 100.15625 419.453125 99.671875 Z M 434.769531 101.847656 C 433.65625 100.710938 432.457031 99.667969 431.234375 98.648438 C 431.855469 98.566406 432.421875 98.078125 432.449219 97.457031 C 432.488281 97.523438 432.523438 97.585938 432.5625 97.648438 C 433.597656 99.425781 434.691406 101.167969 435.800781 102.898438 C 435.457031 102.546875 435.113281 102.199219 434.769531 101.847656 Z M 433.105469 80.882812 C 433.121094 80.863281 433.132812 80.84375 433.148438 80.824219 C 433.199219 80.941406 433.246094 81.054688 433.296875 81.167969 C 433.230469 81.074219 433.167969 80.976562 433.105469 80.882812 Z M 442.574219 51.929688 C 442.625 51.832031 442.671875 51.738281 442.722656 51.640625 C 443.078125 51.523438 443.429688 51.410156 443.78125 51.292969 C 443.371094 51.492188 442.964844 51.703125 442.574219 51.929688 Z M 435.542969 54.78125 C 435.210938 54.914062 434.882812 55.046875 434.550781 55.179688 C 434.5625 54.886719 434.453125 54.625 434.265625 54.414062 C 434.976562 54.179688 435.683594 53.945312 436.394531 53.710938 C 436.109375 54.066406 435.828125 54.425781 435.542969 54.78125 Z M 430.707031 56.394531 C 430.726562 56.132812 430.671875 55.871094 430.558594 55.644531 C 430.855469 55.546875 431.15625 55.445312 431.453125 55.347656 C 431.203125 55.695312 430.957031 56.046875 430.707031 56.394531 Z M 402.59375 21.636719 C 402.1875 24.082031 401.78125 26.527344 401.378906 28.972656 C 401.707031 26.414062 402.042969 23.851562 402.375 21.289062 C 402.449219 21.40625 402.519531 21.519531 402.59375 21.636719 Z M 389.582031 71.730469 C 390.152344 70.808594 390.722656 69.882812 391.292969 68.960938 C 391.539062 68.558594 391.523438 68.144531 391.359375 67.796875 C 391.71875 67.707031 392.078125 67.617188 392.4375 67.527344 C 391.484375 68.925781 390.535156 70.328125 389.582031 71.730469 Z M 379.816406 73.664062 C 379.910156 73.535156 380.007812 73.40625 380.101562 73.277344 C 380.578125 72.636719 381.050781 72 381.527344 71.359375 C 381.808594 70.976562 381.820312 70.585938 381.667969 70.253906 C 382.410156 70.066406 383.152344 69.878906 383.894531 69.691406 C 382.535156 71.015625 381.175781 72.339844 379.816406 73.664062 Z M 377.605469 71.53125 C 377.679688 71.4375 377.753906 71.339844 377.824219 71.246094 C 377.832031 71.242188 377.832031 71.234375 377.835938 71.230469 C 377.875 71.21875 377.914062 71.210938 377.953125 71.199219 C 377.839844 71.308594 377.722656 71.421875 377.605469 71.53125 Z M 370.839844 73.902344 C 370.859375 73.59375 370.773438 73.300781 370.613281 73.0625 C 371.164062 72.921875 371.714844 72.785156 372.265625 72.644531 C 371.792969 73.0625 371.316406 73.480469 370.839844 73.902344 Z M 358.433594 77.375 C 358.433594 76.980469 358.238281 76.597656 357.949219 76.332031 C 359.105469 76.027344 360.261719 75.730469 361.421875 75.429688 C 360.425781 76.078125 359.429688 76.726562 358.433594 77.375 Z M 354.292969 77.679688 C 354.273438 77.546875 354.222656 77.429688 354.164062 77.320312 C 354.515625 77.226562 354.867188 77.136719 355.222656 77.042969 C 354.914062 77.253906 354.601562 77.46875 354.292969 77.679688 Z M 392.8125 126.652344 C 392.699219 129.019531 392.585938 131.390625 392.46875 133.757812 C 392.449219 134.199219 392.597656 134.519531 392.835938 134.726562 C 392.632812 135.441406 392.433594 136.15625 392.230469 136.867188 C 392.402344 133.355469 392.597656 129.84375 392.832031 126.335938 C 392.828125 126.441406 392.820312 126.546875 392.8125 126.652344 Z M 392.042969 140.699219 C 392.183594 140.796875 392.335938 140.875 392.496094 140.921875 C 392.324219 141.289062 392.152344 141.65625 391.980469 142.023438 C 392 141.582031 392.023438 141.140625 392.042969 140.699219 Z M 435.265625 109.160156 C 435.335938 109.203125 435.402344 109.242188 435.472656 109.285156 C 435.105469 109.148438 434.742188 109.011719 434.378906 108.878906 C 434.675781 108.972656 434.96875 109.066406 435.265625 109.160156 Z M 444.941406 112.273438 C 443.867188 110.59375 442.792969 108.914062 441.71875 107.234375 C 441.835938 107.390625 441.953125 107.546875 442.066406 107.699219 C 443.460938 109.550781 444.851562 111.398438 446.246094 113.246094 C 445.875 113.113281 445.503906 112.980469 445.136719 112.84375 C 445.121094 112.65625 445.066406 112.464844 444.941406 112.273438 Z M 459.984375 47.277344 C 459.914062 47.242188 459.84375 47.210938 459.765625 47.191406 C 459.472656 46.875 459.039062 46.707031 458.53125 46.890625 C 458.105469 47.039062 457.683594 47.191406 457.257812 47.34375 C 458 46.957031 458.746094 46.574219 459.488281 46.1875 C 460.191406 45.957031 460.894531 45.726562 461.597656 45.5 C 461.058594 46.09375 460.519531 46.683594 459.984375 47.277344 Z M 367.511719 73.851562 C 366.703125 74.554688 365.890625 75.257812 365.082031 75.960938 C 365.332031 75.464844 365.199219 74.914062 364.878906 74.527344 C 365.28125 74.425781 365.679688 74.316406 366.085938 74.214844 C 366.558594 74.09375 367.035156 73.972656 367.511719 73.851562 Z M 348.195312 78.898438 C 348.957031 78.695312 349.722656 78.496094 350.484375 78.292969 C 350.46875 78.726562 350.453125 79.160156 350.441406 79.59375 C 349.691406 79.359375 348.945312 79.128906 348.195312 78.898438 Z M 394.730469 98.011719 C 394.933594 98.183594 395.1875 98.296875 395.453125 98.332031 C 395.449219 98.394531 395.445312 98.457031 395.4375 98.519531 C 395.035156 98.667969 394.703125 99.007812 394.605469 99.53125 C 394.621094 99.289062 394.636719 99.046875 394.648438 98.804688 C 394.660156 98.539062 394.675781 98.269531 394.6875 98.003906 C 394.703125 98.003906 394.714844 98.007812 394.730469 98.011719 Z M 449.757812 114.511719 C 449.875 114.199219 449.863281 113.828125 449.648438 113.425781 C 449.371094 112.910156 449.09375 112.390625 448.820312 111.875 C 449.804688 112.769531 450.792969 113.660156 451.78125 114.550781 C 451.890625 114.683594 452.003906 114.8125 452.117188 114.941406 C 452.203125 115.109375 452.292969 115.277344 452.382812 115.449219 C 451.507812 115.136719 450.632812 114.824219 449.757812 114.511719 Z M 446.878906 61.421875 C 447.375 60.707031 447.890625 60.003906 448.378906 59.285156 C 448.761719 58.722656 449.140625 58.160156 449.523438 57.601562 C 450.503906 56.898438 451.484375 56.195312 452.460938 55.492188 C 451.335938 56.703125 450.210938 57.914062 449.070312 59.113281 C 448.339844 59.882812 447.609375 60.652344 446.878906 61.421875 Z M 497.078125 25.890625 C 498.113281 25.359375 499.242188 24.898438 500.226562 24.273438 C 499.714844 24.597656 500.203125 24.285156 500.484375 24.167969 C 501.109375 23.914062 501.730469 23.660156 502.351562 23.402344 C 504.320312 22.597656 506.289062 21.789062 508.257812 20.980469 C 511.597656 19.613281 514.914062 18.160156 518.28125 16.871094 C 520.871094 15.878906 523.550781 15.074219 526.175781 14.183594 C 529.773438 12.960938 533.355469 11.679688 536.96875 10.515625 C 539.390625 9.734375 541.96875 9.308594 544.441406 8.726562 C 548.328125 7.808594 552.21875 6.894531 556.105469 5.980469 C 556.441406 5.898438 556.925781 5.816406 556.371094 5.886719 C 556.753906 5.839844 557.136719 5.792969 557.519531 5.75 C 559.386719 5.523438 561.253906 5.296875 563.125 5.070312 C 567.1875 4.582031 571.253906 4.089844 575.320312 3.597656 C 575.585938 3.566406 575.851562 3.535156 576.113281 3.503906 C 577.773438 3.300781 577.792969 0.671875 576.113281 0.875 C 569.527344 1.667969 562.921875 2.367188 556.351562 3.261719 C 553.359375 3.667969 550.367188 4.628906 547.433594 5.320312 C 543.863281 6.160156 540.242188 6.882812 536.703125 7.847656 C 534.058594 8.566406 531.464844 9.613281 528.871094 10.492188 C 525.238281 11.726562 521.589844 12.925781 517.972656 14.195312 C 515.5 15.066406 513.09375 16.175781 510.667969 17.171875 C 507.007812 18.671875 503.34375 20.175781 499.679688 21.675781 C 497.359375 22.628906 495.15625 23.925781 492.929688 25.066406 C 489.253906 26.953125 485.574219 28.839844 481.898438 30.726562 C 481.664062 30.851562 481.425781 30.972656 481.1875 31.09375 C 479.683594 31.867188 481.011719 34.136719 482.515625 33.363281 C 485.375 31.894531 488.238281 30.425781 491.097656 28.960938 C 493.089844 27.9375 495.085938 26.914062 497.078125 25.890625 Z M 658.476562 55.15625 C 652.777344 54.554688 647.082031 53.957031 641.386719 53.355469 C 637.335938 52.929688 633.355469 52.679688 629.285156 52.496094 C 625.597656 52.332031 621.910156 52.167969 618.222656 52.003906 C 616.65625 51.9375 615.078125 51.800781 613.507812 51.808594 C 607.363281 51.84375 601.207031 52.152344 595.066406 52.324219 C 590.941406 52.4375 586.824219 52.464844 582.699219 52.5 C 579.113281 52.527344 575.523438 52.554688 571.9375 52.585938 C 570.554688 52.597656 569.179688 52.550781 567.808594 52.738281 C 561.480469 53.59375 555.152344 54.449219 548.824219 55.304688 C 548.007812 55.417969 547.191406 55.527344 546.378906 55.636719 C 546.363281 55.636719 546.355469 55.636719 546.332031 55.640625 C 546.035156 55.664062 545.734375 55.707031 545.4375 55.742188 C 542.390625 56.082031 539.34375 56.421875 536.296875 56.761719 C 531.703125 57.277344 527.050781 57.605469 522.496094 58.398438 C 516.132812 59.503906 509.769531 60.609375 503.40625 61.714844 C 502.84375 61.8125 502.285156 61.910156 501.726562 62.007812 C 500.0625 62.296875 500.769531 64.832031 502.425781 64.542969 C 508.03125 63.570312 513.632812 62.59375 519.238281 61.621094 C 520.574219 61.390625 521.910156 61.15625 523.246094 60.925781 C 523.59375 60.863281 523.9375 60.8125 524.28125 60.746094 C 524.308594 60.738281 524.320312 60.738281 524.34375 60.734375 C 526.625 60.539062 528.902344 60.21875 531.179688 59.964844 C 536.4375 59.375 541.722656 58.894531 546.972656 58.1875 C 553.019531 57.371094 559.066406 56.550781 565.117188 55.730469 C 566.246094 55.578125 567.375 55.425781 568.507812 55.273438 C 568.605469 55.257812 568.707031 55.246094 568.808594 55.230469 C 568.871094 55.234375 569.015625 55.234375 569.136719 55.238281 C 571.847656 55.273438 574.5625 55.191406 577.273438 55.171875 C 582.148438 55.132812 587.027344 55.179688 591.898438 55.042969 C 598.277344 54.863281 604.652344 54.683594 611.03125 54.507812 C 615.296875 54.386719 619.550781 54.695312 623.816406 54.882812 C 628.359375 55.085938 632.953125 55.097656 637.480469 55.574219 C 643.933594 56.253906 650.386719 56.933594 656.839844 57.613281 C 657.382812 57.667969 657.929688 57.726562 658.476562 57.785156 C 660.15625 57.960938 660.144531 55.332031 658.476562 55.15625 Z M 568.199219 116.429688 C 562.609375 115.527344 557.019531 114.621094 551.425781 113.714844 C 546.859375 112.976562 542.289062 112.257812 537.71875 111.53125 C 535.175781 111.125 532.640625 110.699219 530.09375 110.316406 C 528.25 110.042969 526.363281 109.960938 524.503906 109.796875 C 519.542969 109.355469 514.554688 108.699219 509.578125 108.503906 C 503.5625 108.269531 497.546875 108.03125 491.53125 107.796875 C 491.359375 107.789062 491.1875 107.78125 491.011719 107.773438 C 489.320312 107.707031 489.324219 110.335938 491.011719 110.402344 C 496.648438 110.625 502.28125 110.847656 507.917969 111.070312 C 512.496094 111.25 517.054688 111.761719 521.617188 112.167969 C 524.226562 112.398438 526.855469 112.742188 529.476562 112.867188 C 529.484375 112.867188 529.488281 112.867188 529.492188 112.867188 C 529.8125 112.925781 530.132812 112.96875 530.449219 113.019531 C 531.820312 113.238281 533.191406 113.457031 534.5625 113.675781 C 539.445312 114.449219 544.328125 115.214844 549.210938 116.007812 C 555.136719 116.964844 561.0625 117.925781 566.988281 118.882812 C 567.160156 118.910156 567.328125 118.9375 567.5 118.964844 C 569.15625 119.234375 569.867188 116.699219 568.199219 116.429688 Z M 568.199219 116.429688 " fill-opacity="1" fill-rule="nonzero"/></g><g clip-path="url(#577bb37ea9)"><g transform="matrix(1, 0, 0, 1, 0, 153)"><g clip-path="url(#3f2aaea64b)"><g fill="#89683a" fill-opacity="1"><g transform="translate(1.827629, 85.031134)"><g><path d="M 5.703125 -10.171875 C 5.515625 -10.535156 5.296875 -10.992188 5.046875 -11.546875 C 4.796875 -12.097656 4.554688 -12.671875 4.328125 -13.265625 C 4.097656 -13.859375 3.898438 -14.414062 3.734375 -14.9375 C 3.578125 -15.46875 3.5 -15.914062 3.5 -16.28125 C 3.5 -17.195312 3.875 -18.007812 4.625 -18.71875 C 5.382812 -19.4375 6.25 -19.796875 7.21875 -19.796875 C 8.082031 -19.796875 8.765625 -19.578125 9.265625 -19.140625 C 9.773438 -18.703125 10.191406 -18.09375 10.515625 -17.3125 C 10.835938 -16.539062 11.15625 -15.765625 11.46875 -14.984375 C 11.789062 -14.203125 12.132812 -13.421875 12.5 -12.640625 C 12.875 -11.859375 13.300781 -11.101562 13.78125 -10.375 C 14.257812 -9.644531 14.820312 -8.957031 15.46875 -8.3125 C 15.96875 -7.8125 16.503906 -7.46875 17.078125 -7.28125 C 17.648438 -7.101562 18.28125 -7.015625 18.96875 -7.015625 C 19.601562 -7.015625 20.21875 -7.082031 20.8125 -7.21875 C 21.414062 -7.351562 22.015625 -7.535156 22.609375 -7.765625 C 24.210938 -8.410156 25.585938 -9.328125 26.734375 -10.515625 C 27.878906 -11.703125 28.453125 -13.238281 28.453125 -15.125 C 28.453125 -16.351562 27.96875 -17.359375 27 -18.140625 C 26.632812 -18.503906 26.210938 -18.789062 25.734375 -19 C 25.253906 -19.207031 24.757812 -19.425781 24.25 -19.65625 C 23.75 -19.832031 23.242188 -19.988281 22.734375 -20.125 C 22.234375 -20.269531 21.753906 -20.429688 21.296875 -20.609375 C 19.378906 -21.253906 17.582031 -21.929688 15.90625 -22.640625 C 14.238281 -23.347656 12.785156 -24.226562 11.546875 -25.28125 C 10.304688 -26.34375 9.332031 -27.628906 8.625 -29.140625 C 7.914062 -30.648438 7.5625 -32.523438 7.5625 -34.765625 C 7.5625 -36.648438 7.867188 -38.335938 8.484375 -39.828125 C 9.109375 -41.316406 9.976562 -42.585938 11.09375 -43.640625 C 12.21875 -44.691406 13.554688 -45.503906 15.109375 -46.078125 C 16.671875 -46.648438 18.390625 -46.9375 20.265625 -46.9375 C 21.867188 -46.9375 23.425781 -46.679688 24.9375 -46.171875 C 26.457031 -45.671875 27.867188 -44.984375 29.171875 -44.109375 C 30.472656 -43.242188 31.640625 -42.210938 32.671875 -41.015625 C 33.703125 -39.828125 34.515625 -38.546875 35.109375 -37.171875 C 35.203125 -36.941406 35.296875 -36.691406 35.390625 -36.421875 C 35.484375 -36.148438 35.53125 -35.875 35.53125 -35.59375 C 35.53125 -34.632812 35.1875 -33.796875 34.5 -33.078125 C 33.8125 -32.367188 32.960938 -32.015625 31.953125 -32.015625 C 30.484375 -32.015625 29.382812 -32.726562 28.65625 -34.15625 C 28.101562 -35.113281 27.550781 -35.9375 27 -36.625 C 26.457031 -37.3125 25.65625 -37.976562 24.59375 -38.625 C 23.957031 -38.988281 23.269531 -39.296875 22.53125 -39.546875 C 21.800781 -39.796875 21.046875 -39.921875 20.265625 -39.921875 C 18.660156 -39.921875 17.34375 -39.539062 16.3125 -38.78125 C 15.289062 -38.03125 14.78125 -36.804688 14.78125 -35.109375 C 14.78125 -33.503906 15.125 -32.207031 15.8125 -31.21875 C 16.5 -30.238281 17.570312 -29.453125 19.03125 -28.859375 C 19.945312 -28.492188 20.894531 -28.160156 21.875 -27.859375 C 22.863281 -27.566406 23.816406 -27.238281 24.734375 -26.875 C 25.742188 -26.5 26.707031 -26.140625 27.625 -25.796875 C 28.539062 -25.453125 29.390625 -25.03125 30.171875 -24.53125 C 31.773438 -23.570312 33.09375 -22.359375 34.125 -20.890625 C 35.15625 -19.421875 35.671875 -17.472656 35.671875 -15.046875 C 35.671875 -13.304688 35.40625 -11.703125 34.875 -10.234375 C 34.34375 -8.773438 33.484375 -7.378906 32.296875 -6.046875 C 30.597656 -4.265625 28.601562 -2.8125 26.3125 -1.6875 C 24.03125 -0.5625 21.628906 0 19.109375 0 C 17.410156 0 15.875 -0.257812 14.5 -0.78125 C 13.125 -1.3125 11.894531 -2.035156 10.8125 -2.953125 C 9.738281 -3.867188 8.789062 -4.945312 7.96875 -6.1875 C 7.144531 -7.425781 6.390625 -8.753906 5.703125 -10.171875 Z M 5.703125 -10.171875 "/></g></g></g><g fill="#89683a" fill-opacity="1"><g transform="translate(47.66633, 85.031134)"><g><path d="M 17.046875 -39.171875 L 16.90625 -39.171875 C 16.082031 -39.210938 15.253906 -39.234375 14.421875 -39.234375 C 13.597656 -39.234375 12.773438 -39.234375 11.953125 -39.234375 C 11.316406 -39.234375 10.65625 -39.207031 9.96875 -39.15625 C 9.28125 -39.113281 8.613281 -39.09375 7.96875 -39.09375 C 6.957031 -39.09375 6.085938 -39.457031 5.359375 -40.1875 C 4.628906 -40.925781 4.265625 -41.78125 4.265625 -42.75 C 4.265625 -43.800781 4.59375 -44.65625 5.25 -45.3125 C 5.914062 -45.976562 6.773438 -46.359375 7.828125 -46.453125 C 8.929688 -46.546875 10.054688 -46.601562 11.203125 -46.625 C 12.347656 -46.644531 13.46875 -46.65625 14.5625 -46.65625 C 16.90625 -46.65625 19.242188 -46.617188 21.578125 -46.546875 C 23.910156 -46.484375 26.269531 -46.453125 28.65625 -46.453125 C 31.039062 -46.453125 33.398438 -46.519531 35.734375 -46.65625 C 36.285156 -46.707031 36.832031 -46.753906 37.375 -46.796875 C 37.925781 -46.835938 38.457031 -46.882812 38.96875 -46.9375 L 39.375 -46.9375 C 40.425781 -46.9375 41.316406 -46.59375 42.046875 -45.90625 C 42.785156 -45.21875 43.15625 -44.347656 43.15625 -43.296875 C 43.15625 -42.785156 43.03125 -42.242188 42.78125 -41.671875 C 42.53125 -41.097656 42.195312 -40.65625 41.78125 -40.34375 C 41.226562 -39.882812 40.519531 -39.609375 39.65625 -39.515625 C 38.875 -39.421875 38.113281 -39.375 37.375 -39.375 C 36.644531 -39.375 35.890625 -39.351562 35.109375 -39.3125 C 33.421875 -39.21875 31.726562 -39.144531 30.03125 -39.09375 C 28.332031 -39.050781 26.613281 -39.03125 24.875 -39.03125 L 24.734375 -39.03125 L 24.734375 -38.890625 C 24.734375 -32.984375 24.78125 -27.117188 24.875 -21.296875 C 24.96875 -15.484375 25.015625 -9.617188 25.015625 -3.703125 C 25.015625 -2.648438 24.632812 -1.769531 23.875 -1.0625 C 23.125 -0.351562 22.222656 0 21.171875 0 C 19.566406 0 18.460938 -0.734375 17.859375 -2.203125 C 17.722656 -2.472656 17.628906 -2.734375 17.578125 -2.984375 C 17.535156 -3.242188 17.492188 -3.507812 17.453125 -3.78125 C 17.410156 -4.050781 17.390625 -4.320312 17.390625 -4.59375 C 17.390625 -4.875 17.390625 -5.148438 17.390625 -5.421875 C 17.390625 -8.316406 17.390625 -11.179688 17.390625 -14.015625 C 17.390625 -16.859375 17.34375 -19.722656 17.25 -22.609375 C 17.195312 -25.359375 17.148438 -28.09375 17.109375 -30.8125 C 17.066406 -33.539062 17.046875 -36.28125 17.046875 -39.03125 Z M 17.046875 -39.171875 "/></g></g></g><g fill="#89683a" fill-opacity="1"><g transform="translate(100.514839, 85.031134)"><g><path d="M 16.078125 -15.125 C 15.523438 -13.695312 14.972656 -12.273438 14.421875 -10.859375 C 13.878906 -9.441406 13.378906 -8.019531 12.921875 -6.59375 C 12.691406 -5.957031 12.503906 -5.335938 12.359375 -4.734375 C 12.222656 -4.140625 12.066406 -3.523438 11.890625 -2.890625 C 11.660156 -2.109375 11.203125 -1.429688 10.515625 -0.859375 C 9.828125 -0.285156 9.070312 0 8.25 0 C 7.101562 0 6.160156 -0.363281 5.421875 -1.09375 C 4.691406 -1.832031 4.328125 -2.75 4.328125 -3.84375 C 4.328125 -4.582031 4.613281 -5.832031 5.1875 -7.59375 C 5.757812 -9.351562 6.492188 -11.390625 7.390625 -13.703125 C 8.285156 -16.015625 9.269531 -18.460938 10.34375 -21.046875 C 11.414062 -23.640625 12.46875 -26.128906 13.5 -28.515625 C 14.53125 -30.898438 15.476562 -33.039062 16.34375 -34.9375 C 17.21875 -36.84375 17.882812 -38.253906 18.34375 -39.171875 C 18.4375 -39.304688 18.597656 -39.660156 18.828125 -40.234375 C 19.054688 -40.804688 19.332031 -41.414062 19.65625 -42.0625 C 19.789062 -42.375 19.925781 -42.679688 20.0625 -42.984375 C 20.195312 -43.285156 20.3125 -43.550781 20.40625 -43.78125 C 20.5 -43.863281 20.554688 -43.953125 20.578125 -44.046875 C 20.597656 -44.140625 20.632812 -44.234375 20.6875 -44.328125 C 20.726562 -44.421875 20.75 -44.46875 20.75 -44.46875 L 20.828125 -44.59375 C 20.910156 -45.375 21.316406 -45.957031 22.046875 -46.34375 C 22.785156 -46.738281 23.546875 -46.9375 24.328125 -46.9375 C 25.242188 -46.9375 25.960938 -46.765625 26.484375 -46.421875 C 27.015625 -46.078125 27.460938 -45.492188 27.828125 -44.671875 C 28.609375 -42.785156 29.304688 -40.90625 29.921875 -39.03125 C 30.546875 -37.15625 31.203125 -35.253906 31.890625 -33.328125 C 32.253906 -32.273438 32.59375 -31.253906 32.90625 -30.265625 C 33.226562 -29.285156 33.578125 -28.289062 33.953125 -27.28125 C 34.179688 -26.550781 34.394531 -25.816406 34.59375 -25.078125 C 34.800781 -24.347656 35.046875 -23.617188 35.328125 -22.890625 C 36.054688 -20.960938 36.726562 -19.054688 37.34375 -17.171875 C 37.96875 -15.296875 38.625 -13.394531 39.3125 -11.46875 C 39.675781 -10.414062 40.0625 -9.375 40.46875 -8.34375 C 40.882812 -7.3125 41.273438 -6.269531 41.640625 -5.21875 C 41.691406 -5.125 41.738281 -5.007812 41.78125 -4.875 C 41.820312 -4.738281 41.867188 -4.601562 41.921875 -4.46875 C 42.015625 -4.007812 42.0625 -3.734375 42.0625 -3.640625 C 42.0625 -2.628906 41.679688 -1.769531 40.921875 -1.0625 C 40.160156 -0.351562 39.253906 0 38.203125 0 C 37.335938 0 36.617188 -0.21875 36.046875 -0.65625 C 35.472656 -1.09375 35.023438 -1.695312 34.703125 -2.46875 C 33.972656 -4.300781 33.273438 -6.125 32.609375 -7.9375 C 31.941406 -9.75 31.265625 -11.613281 30.578125 -13.53125 L 30.515625 -13.609375 L 30.4375 -13.609375 C 29.9375 -13.648438 29.457031 -13.679688 29 -13.703125 C 28.539062 -13.734375 28.0625 -13.789062 27.5625 -13.875 C 25.632812 -14.101562 23.742188 -14.320312 21.890625 -14.53125 C 20.035156 -14.738281 18.144531 -14.957031 16.21875 -15.1875 L 16.15625 -15.1875 Z M 19.171875 -22.328125 L 19.375 -22.328125 C 20.15625 -22.242188 20.910156 -22.164062 21.640625 -22.09375 C 22.378906 -22.019531 23.140625 -21.941406 23.921875 -21.859375 C 24.140625 -21.804688 24.410156 -21.753906 24.734375 -21.703125 C 25.054688 -21.660156 25.398438 -21.617188 25.765625 -21.578125 C 26.453125 -21.441406 27.09375 -21.375 27.6875 -21.375 L 27.828125 -21.375 L 27.828125 -21.515625 C 27.421875 -23.390625 26.835938 -25.273438 26.078125 -27.171875 C 25.316406 -29.078125 24.640625 -30.96875 24.046875 -32.84375 L 23.921875 -33.1875 L 23.78125 -32.84375 C 23.039062 -31.289062 22.316406 -29.734375 21.609375 -28.171875 C 20.898438 -26.617188 20.222656 -25.039062 19.578125 -23.4375 C 19.492188 -23.25 19.4375 -23.085938 19.40625 -22.953125 C 19.382812 -22.816406 19.328125 -22.679688 19.234375 -22.546875 Z M 19.171875 -22.328125 "/></g></g></g><g fill="#89683a" fill-opacity="1"><g transform="translate(153.91312, 85.031134)"><g><path d="M 12.84375 -25.015625 C 13.03125 -24.921875 13.304688 -24.875 13.671875 -24.875 C 14.035156 -24.875 14.40625 -24.851562 14.78125 -24.8125 L 16.765625 -24.8125 C 17.316406 -24.8125 18.015625 -24.832031 18.859375 -24.875 C 19.710938 -24.914062 20.570312 -25.03125 21.4375 -25.21875 C 22.3125 -25.40625 23.113281 -25.65625 23.84375 -25.96875 C 24.570312 -26.289062 25.078125 -26.726562 25.359375 -27.28125 C 25.859375 -28.195312 26.28125 -29.25 26.625 -30.4375 C 26.96875 -31.632812 27.140625 -32.757812 27.140625 -33.8125 C 27.140625 -35.050781 26.804688 -36.054688 26.140625 -36.828125 C 25.484375 -37.609375 24.671875 -38.226562 23.703125 -38.6875 C 22.742188 -39.144531 21.691406 -39.453125 20.546875 -39.609375 C 19.398438 -39.773438 18.347656 -39.859375 17.390625 -39.859375 C 16.742188 -39.859375 16.03125 -39.765625 15.25 -39.578125 C 14.476562 -39.398438 13.882812 -38.988281 13.46875 -38.34375 L 13.46875 -38.140625 L 13.40625 -38.0625 L 13.40625 -38 C 12.988281 -33.738281 12.78125 -29.457031 12.78125 -25.15625 L 12.78125 -25.078125 Z M 12.78125 -17.9375 L 12.78125 -17.796875 C 12.78125 -15.460938 12.789062 -13.140625 12.8125 -10.828125 C 12.832031 -8.515625 12.84375 -6.1875 12.84375 -3.84375 C 12.84375 -2.882812 12.460938 -2.0625 11.703125 -1.375 C 10.953125 -0.6875 10.097656 -0.34375 9.140625 -0.34375 C 8.640625 -0.34375 8.160156 -0.421875 7.703125 -0.578125 C 7.242188 -0.742188 6.828125 -1.007812 6.453125 -1.375 C 5.859375 -2.101562 5.5625 -2.925781 5.5625 -3.84375 C 5.5625 -6.414062 5.550781 -8.957031 5.53125 -11.46875 C 5.507812 -13.988281 5.5 -16.535156 5.5 -19.109375 C 5.5 -21.535156 5.519531 -23.953125 5.5625 -26.359375 C 5.613281 -28.765625 5.679688 -31.203125 5.765625 -33.671875 C 5.859375 -34.859375 5.925781 -36.070312 5.96875 -37.3125 C 6.019531 -38.550781 6.140625 -39.765625 6.328125 -40.953125 C 6.410156 -41.597656 6.75 -42.238281 7.34375 -42.875 C 7.945312 -43.519531 8.660156 -44.09375 9.484375 -44.59375 C 10.304688 -45.101562 11.148438 -45.539062 12.015625 -45.90625 C 12.890625 -46.269531 13.625 -46.519531 14.21875 -46.65625 C 15.132812 -46.84375 16.144531 -46.9375 17.25 -46.9375 C 19.351562 -46.9375 21.4375 -46.679688 23.5 -46.171875 C 25.5625 -45.671875 27.40625 -44.878906 29.03125 -43.796875 C 30.65625 -42.722656 31.972656 -41.363281 32.984375 -39.71875 C 33.992188 -38.070312 34.5 -36.078125 34.5 -33.734375 C 34.5 -32.128906 34.269531 -30.535156 33.8125 -28.953125 C 33.351562 -27.378906 32.753906 -25.859375 32.015625 -24.390625 C 31.242188 -22.785156 30.179688 -21.546875 28.828125 -20.671875 C 27.472656 -19.804688 25.945312 -19.125 24.25 -18.625 L 24.046875 -18.546875 L 24.25 -18.421875 C 26.175781 -16.585938 28.019531 -14.46875 29.78125 -12.0625 C 31.550781 -9.65625 32.828125 -7.191406 33.609375 -4.671875 C 33.742188 -4.347656 33.8125 -3.957031 33.8125 -3.5 C 33.8125 -2.582031 33.453125 -1.769531 32.734375 -1.0625 C 32.023438 -0.351562 31.191406 0 30.234375 0 C 29.960938 0 29.664062 -0.046875 29.34375 -0.140625 C 29.019531 -0.234375 28.742188 -0.320312 28.515625 -0.40625 C 27.648438 -0.78125 27.03125 -1.46875 26.65625 -2.46875 C 25.882812 -4.394531 25.023438 -6.054688 24.078125 -7.453125 C 23.140625 -8.847656 21.960938 -10.328125 20.546875 -11.890625 C 19.535156 -12.984375 18.492188 -14 17.421875 -14.9375 C 16.347656 -15.882812 15.164062 -16.742188 13.875 -17.515625 C 13.695312 -17.609375 13.5625 -17.703125 13.46875 -17.796875 C 13.28125 -17.890625 13.097656 -17.9375 12.921875 -17.9375 Z M 12.78125 -17.9375 "/></g></g></g><g fill="#89683a" fill-opacity="1"><g transform="translate(198.65223, 85.031134)"><g/></g></g><g fill="#89683a" fill-opacity="1"><g transform="translate(221.674633, 85.031134)"><g><path d="M 17.046875 -39.171875 L 16.90625 -39.171875 C 16.082031 -39.210938 15.253906 -39.234375 14.421875 -39.234375 C 13.597656 -39.234375 12.773438 -39.234375 11.953125 -39.234375 C 11.316406 -39.234375 10.65625 -39.207031 9.96875 -39.15625 C 9.28125 -39.113281 8.613281 -39.09375 7.96875 -39.09375 C 6.957031 -39.09375 6.085938 -39.457031 5.359375 -40.1875 C 4.628906 -40.925781 4.265625 -41.78125 4.265625 -42.75 C 4.265625 -43.800781 4.59375 -44.65625 5.25 -45.3125 C 5.914062 -45.976562 6.773438 -46.359375 7.828125 -46.453125 C 8.929688 -46.546875 10.054688 -46.601562 11.203125 -46.625 C 12.347656 -46.644531 13.46875 -46.65625 14.5625 -46.65625 C 16.90625 -46.65625 19.242188 -46.617188 21.578125 -46.546875 C 23.910156 -46.484375 26.269531 -46.453125 28.65625 -46.453125 C 31.039062 -46.453125 33.398438 -46.519531 35.734375 -46.65625 C 36.285156 -46.707031 36.832031 -46.753906 37.375 -46.796875 C 37.925781 -46.835938 38.457031 -46.882812 38.96875 -46.9375 L 39.375 -46.9375 C 40.425781 -46.9375 41.316406 -46.59375 42.046875 -45.90625 C 42.785156 -45.21875 43.15625 -44.347656 43.15625 -43.296875 C 43.15625 -42.785156 43.03125 -42.242188 42.78125 -41.671875 C 42.53125 -41.097656 42.195312 -40.65625 41.78125 -40.34375 C 41.226562 -39.882812 40.519531 -39.609375 39.65625 -39.515625 C 38.875 -39.421875 38.113281 -39.375 37.375 -39.375 C 36.644531 -39.375 35.890625 -39.351562 35.109375 -39.3125 C 33.421875 -39.21875 31.726562 -39.144531 30.03125 -39.09375 C 28.332031 -39.050781 26.613281 -39.03125 24.875 -39.03125 L 24.734375 -39.03125 L 24.734375 -38.890625 C 24.734375 -32.984375 24.78125 -27.117188 24.875 -21.296875 C 24.96875 -15.484375 25.015625 -9.617188 25.015625 -3.703125 C 25.015625 -2.648438 24.632812 -1.769531 23.875 -1.0625 C 23.125 -0.351562 22.222656 0 21.171875 0 C 19.566406 0 18.460938 -0.734375 17.859375 -2.203125 C 17.722656 -2.472656 17.628906 -2.734375 17.578125 -2.984375 C 17.535156 -3.242188 17.492188 -3.507812 17.453125 -3.78125 C 17.410156 -4.050781 17.390625 -4.320312 17.390625 -4.59375 C 17.390625 -4.875 17.390625 -5.148438 17.390625 -5.421875 C 17.390625 -8.316406 17.390625 -11.179688 17.390625 -14.015625 C 17.390625 -16.859375 17.34375 -19.722656 17.25 -22.609375 C 17.195312 -25.359375 17.148438 -28.09375 17.109375 -30.8125 C 17.066406 -33.539062 17.046875 -36.28125 17.046875 -39.03125 Z M 17.046875 -39.171875 "/></g></g></g><g fill="#89683a" fill-opacity="1"><g transform="translate(274.523141, 85.031134)"><g><path d="M 12.921875 -22.265625 L 12.921875 -22.125 C 13.054688 -16.03125 13.125 -9.890625 13.125 -3.703125 C 13.125 -2.648438 12.753906 -1.769531 12.015625 -1.0625 C 11.285156 -0.351562 10.394531 0 9.34375 0 C 8.65625 0 8.046875 -0.113281 7.515625 -0.34375 C 6.992188 -0.570312 6.570312 -1.007812 6.25 -1.65625 C 5.789062 -2.519531 5.5625 -3.523438 5.5625 -4.671875 C 5.5625 -7.691406 5.550781 -10.664062 5.53125 -13.59375 C 5.507812 -16.53125 5.5 -19.488281 5.5 -22.46875 C 5.5 -25.21875 5.507812 -27.929688 5.53125 -30.609375 C 5.550781 -33.296875 5.585938 -36.007812 5.640625 -38.75 C 5.640625 -39.582031 5.640625 -40.398438 5.640625 -41.203125 C 5.640625 -42.003906 5.679688 -42.816406 5.765625 -43.640625 C 5.859375 -44.691406 6.25 -45.503906 6.9375 -46.078125 C 7.625 -46.648438 8.492188 -46.9375 9.546875 -46.9375 C 10.691406 -46.9375 11.609375 -46.566406 12.296875 -45.828125 C 12.984375 -45.097656 13.328125 -44.1875 13.328125 -43.09375 C 13.328125 -42.03125 13.28125 -40.972656 13.1875 -39.921875 C 13.101562 -38.867188 13.035156 -37.816406 12.984375 -36.765625 C 12.941406 -35.578125 12.921875 -34.410156 12.921875 -33.265625 C 12.921875 -32.117188 12.894531 -30.945312 12.84375 -29.75 L 12.84375 -29.625 L 12.984375 -29.625 C 16.097656 -29.394531 19.203125 -29.207031 22.296875 -29.0625 C 25.390625 -28.925781 28.515625 -28.8125 31.671875 -28.71875 L 31.8125 -28.71875 L 31.8125 -28.859375 C 31.863281 -30.734375 31.898438 -32.585938 31.921875 -34.421875 C 31.941406 -36.253906 31.953125 -38.113281 31.953125 -40 C 31.953125 -40.5 31.953125 -41.023438 31.953125 -41.578125 C 31.953125 -42.128906 32 -42.675781 32.09375 -43.21875 C 32.226562 -44.132812 32.628906 -44.9375 33.296875 -45.625 C 33.960938 -46.3125 34.796875 -46.65625 35.796875 -46.65625 C 36.859375 -46.65625 37.773438 -46.3125 38.546875 -45.625 C 39.328125 -44.9375 39.71875 -44.066406 39.71875 -43.015625 C 39.71875 -36.921875 39.679688 -30.894531 39.609375 -24.9375 C 39.546875 -18.988281 39.515625 -12.96875 39.515625 -6.875 C 39.515625 -6.1875 39.476562 -5.460938 39.40625 -4.703125 C 39.34375 -3.953125 39.179688 -3.273438 38.921875 -2.671875 C 38.671875 -2.078125 38.296875 -1.585938 37.796875 -1.203125 C 37.296875 -0.816406 36.585938 -0.625 35.671875 -0.625 C 34.753906 -0.625 33.953125 -0.894531 33.265625 -1.4375 C 32.578125 -1.988281 32.117188 -2.703125 31.890625 -3.578125 C 31.835938 -3.804688 31.8125 -4.125 31.8125 -4.53125 L 31.8125 -5.5 C 31.8125 -6.320312 31.785156 -7.132812 31.734375 -7.9375 C 31.691406 -8.738281 31.671875 -9.570312 31.671875 -10.4375 C 31.671875 -12.226562 31.691406 -14.015625 31.734375 -15.796875 C 31.785156 -17.585938 31.8125 -19.378906 31.8125 -21.171875 L 31.8125 -21.296875 L 31.671875 -21.296875 C 28.515625 -21.390625 25.398438 -21.515625 22.328125 -21.671875 C 19.265625 -21.835938 16.175781 -22.035156 13.0625 -22.265625 Z M 12.921875 -22.265625 "/></g></g></g><g fill="#89683a" fill-opacity="1"><g transform="translate(324.210342, 85.031134)"><g><path d="M 12.234375 -7.5625 L 12.375 -7.5625 C 13.144531 -7.507812 13.941406 -7.445312 14.765625 -7.375 C 15.597656 -7.3125 16.398438 -7.257812 17.171875 -7.21875 C 18.691406 -7.125 20.226562 -7.078125 21.78125 -7.078125 C 23.34375 -7.078125 24.898438 -7.078125 26.453125 -7.078125 C 26.546875 -7.078125 26.898438 -7.085938 27.515625 -7.109375 C 28.140625 -7.128906 28.769531 -7.164062 29.40625 -7.21875 C 29.78125 -7.257812 30.125 -7.28125 30.4375 -7.28125 C 30.757812 -7.28125 31.035156 -7.304688 31.265625 -7.359375 C 31.585938 -7.359375 31.796875 -7.378906 31.890625 -7.421875 L 32.09375 -7.421875 C 32.1875 -7.421875 32.253906 -7.429688 32.296875 -7.453125 C 32.335938 -7.472656 32.40625 -7.484375 32.5 -7.484375 C 32.59375 -7.535156 32.660156 -7.5625 32.703125 -7.5625 C 32.753906 -7.5625 32.828125 -7.582031 32.921875 -7.625 C 33.191406 -7.71875 33.421875 -7.765625 33.609375 -7.765625 C 34.660156 -7.765625 35.53125 -7.394531 36.21875 -6.65625 C 36.90625 -5.925781 37.25 -5.054688 37.25 -4.046875 C 37.25 -3.085938 36.960938 -2.34375 36.390625 -1.8125 C 35.816406 -1.289062 35.09375 -0.914062 34.21875 -0.6875 C 33.757812 -0.550781 33.300781 -0.445312 32.84375 -0.375 C 32.382812 -0.3125 31.925781 -0.253906 31.46875 -0.203125 C 30.96875 -0.160156 30.507812 -0.140625 30.09375 -0.140625 C 29.6875 -0.140625 29.300781 -0.140625 28.9375 -0.140625 C 27.738281 -0.0859375 26.566406 -0.0507812 25.421875 -0.03125 C 24.273438 -0.0078125 23.128906 0 21.984375 0 C 21.023438 0 19.847656 -0.0078125 18.453125 -0.03125 C 17.054688 -0.0507812 15.644531 -0.117188 14.21875 -0.234375 C 12.800781 -0.347656 11.4375 -0.507812 10.125 -0.71875 C 8.820312 -0.925781 7.757812 -1.238281 6.9375 -1.65625 C 6.019531 -2.113281 5.421875 -2.753906 5.140625 -3.578125 C 4.867188 -4.398438 4.734375 -5.289062 4.734375 -6.25 C 4.734375 -6.476562 4.753906 -6.695312 4.796875 -6.90625 C 4.847656 -7.113281 4.875 -7.332031 4.875 -7.5625 C 4.875 -13.375 4.691406 -19.144531 4.328125 -24.875 C 3.960938 -30.601562 3.78125 -36.375 3.78125 -42.1875 C 3.78125 -43.382812 4.164062 -44.472656 4.9375 -45.453125 C 5.71875 -46.441406 6.773438 -46.9375 8.109375 -46.9375 C 8.242188 -46.9375 8.367188 -46.921875 8.484375 -46.890625 C 8.597656 -46.867188 8.722656 -46.859375 8.859375 -46.859375 C 10.054688 -46.773438 11.210938 -46.742188 12.328125 -46.765625 C 13.453125 -46.785156 14.613281 -46.796875 15.8125 -46.796875 C 18.320312 -46.753906 20.835938 -46.734375 23.359375 -46.734375 C 25.878906 -46.734375 28.421875 -46.734375 30.984375 -46.734375 C 32.179688 -46.734375 33.222656 -46.488281 34.109375 -46 C 35.003906 -45.519531 35.453125 -44.617188 35.453125 -43.296875 C 35.453125 -42.242188 35.117188 -41.359375 34.453125 -40.640625 C 33.796875 -39.929688 32.914062 -39.578125 31.8125 -39.578125 C 31.445312 -39.578125 31.101562 -39.585938 30.78125 -39.609375 C 30.46875 -39.640625 30.125 -39.65625 29.75 -39.65625 C 27.507812 -39.65625 25.273438 -39.617188 23.046875 -39.546875 C 20.828125 -39.472656 18.617188 -39.4375 16.421875 -39.4375 C 15.554688 -39.4375 14.6875 -39.4375 13.8125 -39.4375 C 12.9375 -39.4375 12.066406 -39.484375 11.203125 -39.578125 L 11.0625 -39.578125 L 11.0625 -38.140625 C 11.0625 -37.546875 11.070312 -36.945312 11.09375 -36.34375 C 11.113281 -35.75 11.148438 -35.15625 11.203125 -34.5625 C 11.296875 -33.375 11.34375 -32.179688 11.34375 -30.984375 C 11.34375 -29.796875 11.382812 -28.609375 11.46875 -27.421875 L 11.46875 -27.28125 L 11.609375 -27.28125 C 14.722656 -27.28125 17.800781 -27.195312 20.84375 -27.03125 C 23.894531 -26.875 27.003906 -26.679688 30.171875 -26.453125 C 31.222656 -26.359375 32.113281 -25.992188 32.84375 -25.359375 C 33.4375 -24.671875 33.734375 -23.914062 33.734375 -23.09375 C 33.734375 -22.082031 33.398438 -21.207031 32.734375 -20.46875 C 32.078125 -19.738281 31.222656 -19.375 30.171875 -19.375 L 29.96875 -19.375 C 27.03125 -19.507812 24.128906 -19.679688 21.265625 -19.890625 C 18.398438 -20.097656 15.523438 -20.203125 12.640625 -20.203125 C 12.273438 -20.203125 12.023438 -20.179688 11.890625 -20.140625 L 11.75 -20.140625 L 11.75 -20 C 11.84375 -17.9375 11.945312 -15.882812 12.0625 -13.84375 C 12.175781 -11.800781 12.234375 -9.753906 12.234375 -7.703125 Z M 12.234375 -7.5625 "/></g></g></g><g fill="#89683a" fill-opacity="1"><g transform="translate(371.217321, 85.031134)"><g><path d="M 12.84375 -25.015625 C 13.03125 -24.921875 13.304688 -24.875 13.671875 -24.875 C 14.035156 -24.875 14.40625 -24.851562 14.78125 -24.8125 L 16.765625 -24.8125 C 17.316406 -24.8125 18.015625 -24.832031 18.859375 -24.875 C 19.710938 -24.914062 20.570312 -25.03125 21.4375 -25.21875 C 22.3125 -25.40625 23.113281 -25.65625 23.84375 -25.96875 C 24.570312 -26.289062 25.078125 -26.726562 25.359375 -27.28125 C 25.859375 -28.195312 26.28125 -29.25 26.625 -30.4375 C 26.96875 -31.632812 27.140625 -32.757812 27.140625 -33.8125 C 27.140625 -35.050781 26.804688 -36.054688 26.140625 -36.828125 C 25.484375 -37.609375 24.671875 -38.226562 23.703125 -38.6875 C 22.742188 -39.144531 21.691406 -39.453125 20.546875 -39.609375 C 19.398438 -39.773438 18.347656 -39.859375 17.390625 -39.859375 C 16.742188 -39.859375 16.03125 -39.765625 15.25 -39.578125 C 14.476562 -39.398438 13.882812 -38.988281 13.46875 -38.34375 L 13.46875 -38.140625 L 13.40625 -38.0625 L 13.40625 -38 C 12.988281 -33.738281 12.78125 -29.457031 12.78125 -25.15625 L 12.78125 -25.078125 Z M 12.78125 -17.9375 L 12.78125 -17.796875 C 12.78125 -15.460938 12.789062 -13.140625 12.8125 -10.828125 C 12.832031 -8.515625 12.84375 -6.1875 12.84375 -3.84375 C 12.84375 -2.882812 12.460938 -2.0625 11.703125 -1.375 C 10.953125 -0.6875 10.097656 -0.34375 9.140625 -0.34375 C 8.640625 -0.34375 8.160156 -0.421875 7.703125 -0.578125 C 7.242188 -0.742188 6.828125 -1.007812 6.453125 -1.375 C 5.859375 -2.101562 5.5625 -2.925781 5.5625 -3.84375 C 5.5625 -6.414062 5.550781 -8.957031 5.53125 -11.46875 C 5.507812 -13.988281 5.5 -16.535156 5.5 -19.109375 C 5.5 -21.535156 5.519531 -23.953125 5.5625 -26.359375 C 5.613281 -28.765625 5.679688 -31.203125 5.765625 -33.671875 C 5.859375 -34.859375 5.925781 -36.070312 5.96875 -37.3125 C 6.019531 -38.550781 6.140625 -39.765625 6.328125 -40.953125 C 6.410156 -41.597656 6.75 -42.238281 7.34375 -42.875 C 7.945312 -43.519531 8.660156 -44.09375 9.484375 -44.59375 C 10.304688 -45.101562 11.148438 -45.539062 12.015625 -45.90625 C 12.890625 -46.269531 13.625 -46.519531 14.21875 -46.65625 C 15.132812 -46.84375 16.144531 -46.9375 17.25 -46.9375 C 19.351562 -46.9375 21.4375 -46.679688 23.5 -46.171875 C 25.5625 -45.671875 27.40625 -44.878906 29.03125 -43.796875 C 30.65625 -42.722656 31.972656 -41.363281 32.984375 -39.71875 C 33.992188 -38.070312 34.5 -36.078125 34.5 -33.734375 C 34.5 -32.128906 34.269531 -30.535156 33.8125 -28.953125 C 33.351562 -27.378906 32.753906 -25.859375 32.015625 -24.390625 C 31.242188 -22.785156 30.179688 -21.546875 28.828125 -20.671875 C 27.472656 -19.804688 25.945312 -19.125 24.25 -18.625 L 24.046875 -18.546875 L 24.25 -18.421875 C 26.175781 -16.585938 28.019531 -14.46875 29.78125 -12.0625 C 31.550781 -9.65625 32.828125 -7.191406 33.609375 -4.671875 C 33.742188 -4.347656 33.8125 -3.957031 33.8125 -3.5 C 33.8125 -2.582031 33.453125 -1.769531 32.734375 -1.0625 C 32.023438 -0.351562 31.191406 0 30.234375 0 C 29.960938 0 29.664062 -0.046875 29.34375 -0.140625 C 29.019531 -0.234375 28.742188 -0.320312 28.515625 -0.40625 C 27.648438 -0.78125 27.03125 -1.46875 26.65625 -2.46875 C 25.882812 -4.394531 25.023438 -6.054688 24.078125 -7.453125 C 23.140625 -8.847656 21.960938 -10.328125 20.546875 -11.890625 C 19.535156 -12.984375 18.492188 -14 17.421875 -14.9375 C 16.347656 -15.882812 15.164062 -16.742188 13.875 -17.515625 C 13.695312 -17.609375 13.5625 -17.703125 13.46875 -17.796875 C 13.28125 -17.890625 13.097656 -17.9375 12.921875 -17.9375 Z M 12.78125 -17.9375 "/></g></g></g><g fill="#89683a" fill-opacity="1"><g transform="translate(415.956431, 85.031134)"><g><path d="M 16.078125 -15.125 C 15.523438 -13.695312 14.972656 -12.273438 14.421875 -10.859375 C 13.878906 -9.441406 13.378906 -8.019531 12.921875 -6.59375 C 12.691406 -5.957031 12.503906 -5.335938 12.359375 -4.734375 C 12.222656 -4.140625 12.066406 -3.523438 11.890625 -2.890625 C 11.660156 -2.109375 11.203125 -1.429688 10.515625 -0.859375 C 9.828125 -0.285156 9.070312 0 8.25 0 C 7.101562 0 6.160156 -0.363281 5.421875 -1.09375 C 4.691406 -1.832031 4.328125 -2.75 4.328125 -3.84375 C 4.328125 -4.582031 4.613281 -5.832031 5.1875 -7.59375 C 5.757812 -9.351562 6.492188 -11.390625 7.390625 -13.703125 C 8.285156 -16.015625 9.269531 -18.460938 10.34375 -21.046875 C 11.414062 -23.640625 12.46875 -26.128906 13.5 -28.515625 C 14.53125 -30.898438 15.476562 -33.039062 16.34375 -34.9375 C 17.21875 -36.84375 17.882812 -38.253906 18.34375 -39.171875 C 18.4375 -39.304688 18.597656 -39.660156 18.828125 -40.234375 C 19.054688 -40.804688 19.332031 -41.414062 19.65625 -42.0625 C 19.789062 -42.375 19.925781 -42.679688 20.0625 -42.984375 C 20.195312 -43.285156 20.3125 -43.550781 20.40625 -43.78125 C 20.5 -43.863281 20.554688 -43.953125 20.578125 -44.046875 C 20.597656 -44.140625 20.632812 -44.234375 20.6875 -44.328125 C 20.726562 -44.421875 20.75 -44.46875 20.75 -44.46875 L 20.828125 -44.59375 C 20.910156 -45.375 21.316406 -45.957031 22.046875 -46.34375 C 22.785156 -46.738281 23.546875 -46.9375 24.328125 -46.9375 C 25.242188 -46.9375 25.960938 -46.765625 26.484375 -46.421875 C 27.015625 -46.078125 27.460938 -45.492188 27.828125 -44.671875 C 28.609375 -42.785156 29.304688 -40.90625 29.921875 -39.03125 C 30.546875 -37.15625 31.203125 -35.253906 31.890625 -33.328125 C 32.253906 -32.273438 32.59375 -31.253906 32.90625 -30.265625 C 33.226562 -29.285156 33.578125 -28.289062 33.953125 -27.28125 C 34.179688 -26.550781 34.394531 -25.816406 34.59375 -25.078125 C 34.800781 -24.347656 35.046875 -23.617188 35.328125 -22.890625 C 36.054688 -20.960938 36.726562 -19.054688 37.34375 -17.171875 C 37.96875 -15.296875 38.625 -13.394531 39.3125 -11.46875 C 39.675781 -10.414062 40.0625 -9.375 40.46875 -8.34375 C 40.882812 -7.3125 41.273438 -6.269531 41.640625 -5.21875 C 41.691406 -5.125 41.738281 -5.007812 41.78125 -4.875 C 41.820312 -4.738281 41.867188 -4.601562 41.921875 -4.46875 C 42.015625 -4.007812 42.0625 -3.734375 42.0625 -3.640625 C 42.0625 -2.628906 41.679688 -1.769531 40.921875 -1.0625 C 40.160156 -0.351562 39.253906 0 38.203125 0 C 37.335938 0 36.617188 -0.21875 36.046875 -0.65625 C 35.472656 -1.09375 35.023438 -1.695312 34.703125 -2.46875 C 33.972656 -4.300781 33.273438 -6.125 32.609375 -7.9375 C 31.941406 -9.75 31.265625 -11.613281 30.578125 -13.53125 L 30.515625 -13.609375 L 30.4375 -13.609375 C 29.9375 -13.648438 29.457031 -13.679688 29 -13.703125 C 28.539062 -13.734375 28.0625 -13.789062 27.5625 -13.875 C 25.632812 -14.101562 23.742188 -14.320312 21.890625 -14.53125 C 20.035156 -14.738281 18.144531 -14.957031 16.21875 -15.1875 L 16.15625 -15.1875 Z M 19.171875 -22.328125 L 19.375 -22.328125 C 20.15625 -22.242188 20.910156 -22.164062 21.640625 -22.09375 C 22.378906 -22.019531 23.140625 -21.941406 23.921875 -21.859375 C 24.140625 -21.804688 24.410156 -21.753906 24.734375 -21.703125 C 25.054688 -21.660156 25.398438 -21.617188 25.765625 -21.578125 C 26.453125 -21.441406 27.09375 -21.375 27.6875 -21.375 L 27.828125 -21.375 L 27.828125 -21.515625 C 27.421875 -23.390625 26.835938 -25.273438 26.078125 -27.171875 C 25.316406 -29.078125 24.640625 -30.96875 24.046875 -32.84375 L 23.921875 -33.1875 L 23.78125 -32.84375 C 23.039062 -31.289062 22.316406 -29.734375 21.609375 -28.171875 C 20.898438 -26.617188 20.222656 -25.039062 19.578125 -23.4375 C 19.492188 -23.25 19.4375 -23.085938 19.40625 -22.953125 C 19.382812 -22.816406 19.328125 -22.679688 19.234375 -22.546875 Z M 19.171875 -22.328125 "/></g></g></g><g fill="#89683a" fill-opacity="1"><g transform="translate(469.354712, 85.031134)"><g><path d="M 12.296875 -17.171875 L 12.296875 -3.5 C 12.296875 -2.5 11.914062 -1.664062 11.15625 -1 C 10.40625 -0.332031 9.523438 0 8.515625 0 C 7.421875 0 6.503906 -0.304688 5.765625 -0.921875 C 5.035156 -1.546875 4.671875 -2.40625 4.671875 -3.5 L 4.671875 -27.28125 C 4.671875 -29.894531 4.679688 -32.472656 4.703125 -35.015625 C 4.722656 -37.554688 4.828125 -40.132812 5.015625 -42.75 C 5.015625 -42.976562 5.0625 -43.21875 5.15625 -43.46875 C 5.25 -43.71875 5.335938 -43.9375 5.421875 -44.125 C 5.703125 -44.757812 6.160156 -45.269531 6.796875 -45.65625 C 7.441406 -46.050781 8.15625 -46.335938 8.9375 -46.515625 C 9.71875 -46.703125 10.503906 -46.816406 11.296875 -46.859375 C 12.097656 -46.910156 12.84375 -46.9375 13.53125 -46.9375 C 15.957031 -46.9375 18.363281 -46.613281 20.75 -45.96875 C 23.132812 -45.332031 25.285156 -44.359375 27.203125 -43.046875 C 29.128906 -41.742188 30.6875 -40.117188 31.875 -38.171875 C 33.070312 -36.222656 33.671875 -33.921875 33.671875 -31.265625 C 33.671875 -29.203125 33.210938 -27.425781 32.296875 -25.9375 C 31.378906 -24.445312 30.117188 -23.109375 28.515625 -21.921875 C 26.179688 -20.179688 23.628906 -18.988281 20.859375 -18.34375 C 18.085938 -17.707031 15.28125 -17.316406 12.4375 -17.171875 Z M 12.296875 -24.25 L 12.4375 -24.25 C 13.582031 -24.300781 14.921875 -24.425781 16.453125 -24.625 C 17.992188 -24.832031 19.460938 -25.210938 20.859375 -25.765625 C 22.253906 -26.316406 23.429688 -27.0625 24.390625 -28 C 25.359375 -28.9375 25.84375 -30.160156 25.84375 -31.671875 C 25.84375 -32.410156 25.757812 -33.132812 25.59375 -33.84375 C 25.4375 -34.550781 25.101562 -35.179688 24.59375 -35.734375 C 24 -36.421875 23.253906 -37.015625 22.359375 -37.515625 C 21.472656 -38.023438 20.523438 -38.460938 19.515625 -38.828125 C 18.503906 -39.191406 17.484375 -39.460938 16.453125 -39.640625 C 15.421875 -39.828125 14.472656 -39.921875 13.609375 -39.921875 C 13.421875 -39.921875 13.257812 -39.910156 13.125 -39.890625 C 12.988281 -39.867188 12.828125 -39.859375 12.640625 -39.859375 L 12.5 -39.859375 L 12.5 -39.71875 C 12.363281 -35.59375 12.296875 -31.445312 12.296875 -27.28125 Z M 12.296875 -24.25 "/></g></g></g><g fill="#89683a" fill-opacity="1"><g transform="translate(514.299974, 85.031134)"><g><path d="M 20.140625 -27.28125 L 20.265625 -27.421875 C 21.046875 -28.515625 21.835938 -29.597656 22.640625 -30.671875 C 23.441406 -31.753906 24.234375 -32.890625 25.015625 -34.078125 C 25.972656 -35.453125 26.910156 -36.828125 27.828125 -38.203125 C 28.742188 -39.578125 29.6875 -40.953125 30.65625 -42.328125 L 31.671875 -43.984375 C 31.859375 -44.253906 32.03125 -44.523438 32.1875 -44.796875 C 32.351562 -45.078125 32.550781 -45.332031 32.78125 -45.5625 C 33.144531 -46.019531 33.613281 -46.382812 34.1875 -46.65625 C 34.757812 -46.9375 35.34375 -47.078125 35.9375 -47.078125 C 36.851562 -47.078125 37.703125 -46.765625 38.484375 -46.140625 C 39.265625 -45.523438 39.65625 -44.757812 39.65625 -43.84375 C 39.65625 -43.382812 39.582031 -42.945312 39.4375 -42.53125 C 39.300781 -42.125 39.117188 -41.710938 38.890625 -41.296875 C 38.710938 -40.929688 38.507812 -40.578125 38.28125 -40.234375 C 38.050781 -39.890625 37.796875 -39.535156 37.515625 -39.171875 C 37.285156 -38.804688 37.035156 -38.460938 36.765625 -38.140625 C 36.492188 -37.816406 36.242188 -37.472656 36.015625 -37.109375 C 34.265625 -34.546875 32.507812 -32.015625 30.75 -29.515625 C 28.988281 -27.015625 27.238281 -24.484375 25.5 -21.921875 C 25.21875 -21.460938 24.914062 -21.035156 24.59375 -20.640625 C 24.28125 -20.253906 23.960938 -19.832031 23.640625 -19.375 L 23.640625 -19.109375 C 23.640625 -18.785156 23.671875 -18.460938 23.734375 -18.140625 C 23.804688 -17.816406 23.84375 -17.492188 23.84375 -17.171875 C 23.84375 -15.117188 23.816406 -13.046875 23.765625 -10.953125 C 23.722656 -8.867188 23.703125 -6.796875 23.703125 -4.734375 C 23.703125 -3.640625 23.472656 -2.65625 23.015625 -1.78125 C 22.421875 -0.6875 21.414062 -0.140625 20 -0.140625 C 18.945312 -0.140625 18.050781 -0.503906 17.3125 -1.234375 C 16.582031 -1.972656 16.21875 -2.867188 16.21875 -3.921875 C 16.21875 -5.703125 16.25 -7.484375 16.3125 -9.265625 C 16.382812 -11.054688 16.421875 -12.847656 16.421875 -14.640625 C 16.421875 -15.273438 16.410156 -15.890625 16.390625 -16.484375 C 16.367188 -17.085938 16.359375 -17.707031 16.359375 -18.34375 L 16.359375 -18.421875 C 15.535156 -19.648438 14.820312 -20.914062 14.21875 -22.21875 C 13.625 -23.53125 12.984375 -24.851562 12.296875 -26.1875 C 11.378906 -27.925781 10.414062 -29.664062 9.40625 -31.40625 C 8.40625 -33.144531 7.445312 -34.882812 6.53125 -36.625 C 6.164062 -37.3125 5.785156 -37.988281 5.390625 -38.65625 C 5.003906 -39.320312 4.582031 -39.972656 4.125 -40.609375 C 3.894531 -40.929688 3.722656 -41.238281 3.609375 -41.53125 C 3.492188 -41.832031 3.4375 -42.164062 3.4375 -42.53125 C 3.4375 -43.539062 3.800781 -44.410156 4.53125 -45.140625 C 5.269531 -45.878906 6.164062 -46.25 7.21875 -46.25 C 8.5 -46.25 9.53125 -45.722656 10.3125 -44.671875 C 10.769531 -44.023438 11.191406 -43.367188 11.578125 -42.703125 C 11.960938 -42.046875 12.34375 -41.394531 12.71875 -40.75 C 13.632812 -39.144531 14.523438 -37.53125 15.390625 -35.90625 C 16.265625 -34.28125 17.132812 -32.640625 18 -30.984375 C 18.09375 -30.804688 18.226562 -30.546875 18.40625 -30.203125 C 18.59375 -29.859375 18.78125 -29.503906 18.96875 -29.140625 C 19.195312 -28.773438 19.398438 -28.421875 19.578125 -28.078125 C 19.765625 -27.734375 19.925781 -27.515625 20.0625 -27.421875 Z M 20.140625 -27.28125 "/></g></g></g><g fill="#89683a" fill-opacity="1"><g transform="translate(563.712289, 85.031134)"><g/></g></g><g fill="#89683a" fill-opacity="1"><g transform="translate(586.734692, 85.031134)"><g><path d="M 5.703125 -10.171875 C 5.515625 -10.535156 5.296875 -10.992188 5.046875 -11.546875 C 4.796875 -12.097656 4.554688 -12.671875 4.328125 -13.265625 C 4.097656 -13.859375 3.898438 -14.414062 3.734375 -14.9375 C 3.578125 -15.46875 3.5 -15.914062 3.5 -16.28125 C 3.5 -17.195312 3.875 -18.007812 4.625 -18.71875 C 5.382812 -19.4375 6.25 -19.796875 7.21875 -19.796875 C 8.082031 -19.796875 8.765625 -19.578125 9.265625 -19.140625 C 9.773438 -18.703125 10.191406 -18.09375 10.515625 -17.3125 C 10.835938 -16.539062 11.15625 -15.765625 11.46875 -14.984375 C 11.789062 -14.203125 12.132812 -13.421875 12.5 -12.640625 C 12.875 -11.859375 13.300781 -11.101562 13.78125 -10.375 C 14.257812 -9.644531 14.820312 -8.957031 15.46875 -8.3125 C 15.96875 -7.8125 16.503906 -7.46875 17.078125 -7.28125 C 17.648438 -7.101562 18.28125 -7.015625 18.96875 -7.015625 C 19.601562 -7.015625 20.21875 -7.082031 20.8125 -7.21875 C 21.414062 -7.351562 22.015625 -7.535156 22.609375 -7.765625 C 24.210938 -8.410156 25.585938 -9.328125 26.734375 -10.515625 C 27.878906 -11.703125 28.453125 -13.238281 28.453125 -15.125 C 28.453125 -16.351562 27.96875 -17.359375 27 -18.140625 C 26.632812 -18.503906 26.210938 -18.789062 25.734375 -19 C 25.253906 -19.207031 24.757812 -19.425781 24.25 -19.65625 C 23.75 -19.832031 23.242188 -19.988281 22.734375 -20.125 C 22.234375 -20.269531 21.753906 -20.429688 21.296875 -20.609375 C 19.378906 -21.253906 17.582031 -21.929688 15.90625 -22.640625 C 14.238281 -23.347656 12.785156 -24.226562 11.546875 -25.28125 C 10.304688 -26.34375 9.332031 -27.628906 8.625 -29.140625 C 7.914062 -30.648438 7.5625 -32.523438 7.5625 -34.765625 C 7.5625 -36.648438 7.867188 -38.335938 8.484375 -39.828125 C 9.109375 -41.316406 9.976562 -42.585938 11.09375 -43.640625 C 12.21875 -44.691406 13.554688 -45.503906 15.109375 -46.078125 C 16.671875 -46.648438 18.390625 -46.9375 20.265625 -46.9375 C 21.867188 -46.9375 23.425781 -46.679688 24.9375 -46.171875 C 26.457031 -45.671875 27.867188 -44.984375 29.171875 -44.109375 C 30.472656 -43.242188 31.640625 -42.210938 32.671875 -41.015625 C 33.703125 -39.828125 34.515625 -38.546875 35.109375 -37.171875 C 35.203125 -36.941406 35.296875 -36.691406 35.390625 -36.421875 C 35.484375 -36.148438 35.53125 -35.875 35.53125 -35.59375 C 35.53125 -34.632812 35.1875 -33.796875 34.5 -33.078125 C 33.8125 -32.367188 32.960938 -32.015625 31.953125 -32.015625 C 30.484375 -32.015625 29.382812 -32.726562 28.65625 -34.15625 C 28.101562 -35.113281 27.550781 -35.9375 27 -36.625 C 26.457031 -37.3125 25.65625 -37.976562 24.59375 -38.625 C 23.957031 -38.988281 23.269531 -39.296875 22.53125 -39.546875 C 21.800781 -39.796875 21.046875 -39.921875 20.265625 -39.921875 C 18.660156 -39.921875 17.34375 -39.539062 16.3125 -38.78125 C 15.289062 -38.03125 14.78125 -36.804688 14.78125 -35.109375 C 14.78125 -33.503906 15.125 -32.207031 15.8125 -31.21875 C 16.5 -30.238281 17.570312 -29.453125 19.03125 -28.859375 C 19.945312 -28.492188 20.894531 -28.160156 21.875 -27.859375 C 22.863281 -27.566406 23.816406 -27.238281 24.734375 -26.875 C 25.742188 -26.5 26.707031 -26.140625 27.625 -25.796875 C 28.539062 -25.453125 29.390625 -25.03125 30.171875 -24.53125 C 31.773438 -23.570312 33.09375 -22.359375 34.125 -20.890625 C 35.15625 -19.421875 35.671875 -17.472656 35.671875 -15.046875 C 35.671875 -13.304688 35.40625 -11.703125 34.875 -10.234375 C 34.34375 -8.773438 33.484375 -7.378906 32.296875 -6.046875 C 30.597656 -4.265625 28.601562 -2.8125 26.3125 -1.6875 C 24.03125 -0.5625 21.628906 0 19.109375 0 C 17.410156 0 15.875 -0.257812 14.5 -0.78125 C 13.125 -1.3125 11.894531 -2.035156 10.8125 -2.953125 C 9.738281 -3.867188 8.789062 -4.945312 7.96875 -6.1875 C 7.144531 -7.425781 6.390625 -8.753906 5.703125 -10.171875 Z M 5.703125 -10.171875 "/></g></g></g><g fill="#89683a" fill-opacity="1"><g transform="translate(632.573394, 85.031134)"><g><path d="M 14.78125 -2.609375 C 13.582031 -3.429688 12.457031 -4.390625 11.40625 -5.484375 C 10.351562 -6.585938 9.398438 -7.78125 8.546875 -9.0625 C 7.703125 -10.351562 6.984375 -11.707031 6.390625 -13.125 C 5.796875 -14.539062 5.359375 -15.9375 5.078125 -17.3125 C 4.898438 -18.226562 4.765625 -19.144531 4.671875 -20.0625 C 4.578125 -20.976562 4.53125 -21.894531 4.53125 -22.8125 C 4.53125 -25.375 4.929688 -28.078125 5.734375 -30.921875 C 6.535156 -33.765625 7.710938 -36.375 9.265625 -38.75 C 10.828125 -41.132812 12.753906 -43.09375 15.046875 -44.625 C 17.335938 -46.164062 19.992188 -46.9375 23.015625 -46.9375 C 25.816406 -46.9375 28.328125 -46.238281 30.546875 -44.84375 C 32.765625 -43.445312 34.664062 -41.671875 36.25 -39.515625 C 37.832031 -37.359375 39.046875 -34.972656 39.890625 -32.359375 C 40.734375 -29.753906 41.15625 -27.210938 41.15625 -24.734375 C 41.15625 -22.816406 40.984375 -20.867188 40.640625 -18.890625 C 40.296875 -16.921875 39.769531 -15 39.0625 -13.125 C 38.351562 -11.25 37.457031 -9.484375 36.375 -7.828125 C 35.300781 -6.179688 34.007812 -4.695312 32.5 -3.375 C 31.175781 -2.269531 29.789062 -1.429688 28.34375 -0.859375 C 26.90625 -0.285156 25.289062 0 23.5 0 C 21.945312 0 20.425781 -0.203125 18.9375 -0.609375 C 17.445312 -1.023438 16.0625 -1.691406 14.78125 -2.609375 Z M 19.515625 -7.96875 C 19.742188 -7.875 19.960938 -7.757812 20.171875 -7.625 C 20.378906 -7.488281 20.597656 -7.351562 20.828125 -7.21875 C 21.054688 -7.125 21.296875 -7.03125 21.546875 -6.9375 C 21.796875 -6.84375 22.035156 -6.796875 22.265625 -6.796875 C 22.859375 -6.796875 23.53125 -6.863281 24.28125 -7 C 25.039062 -7.144531 25.675781 -7.351562 26.1875 -7.625 C 26.726562 -7.945312 27.238281 -8.335938 27.71875 -8.796875 C 28.207031 -9.253906 28.632812 -9.710938 29 -10.171875 C 30.46875 -12.097656 31.578125 -14.203125 32.328125 -16.484375 C 33.085938 -18.773438 33.46875 -21.113281 33.46875 -23.5 C 33.46875 -24.78125 33.351562 -26.140625 33.125 -27.578125 C 32.894531 -29.023438 32.523438 -30.425781 32.015625 -31.78125 C 31.515625 -33.132812 30.863281 -34.40625 30.0625 -35.59375 C 29.257812 -36.789062 28.285156 -37.800781 27.140625 -38.625 C 26.679688 -38.894531 26.175781 -39.191406 25.625 -39.515625 C 25.082031 -39.835938 24.515625 -40 23.921875 -40 C 23.234375 -40 22.53125 -39.925781 21.8125 -39.78125 C 21.101562 -39.644531 20.429688 -39.414062 19.796875 -39.09375 C 18.554688 -38.40625 17.453125 -37.421875 16.484375 -36.140625 C 15.523438 -34.859375 14.710938 -33.4375 14.046875 -31.875 C 13.390625 -30.320312 12.898438 -28.742188 12.578125 -27.140625 C 12.253906 -25.535156 12.09375 -24.070312 12.09375 -22.75 C 12.09375 -19.90625 12.695312 -17.128906 13.90625 -14.421875 C 15.125 -11.722656 16.992188 -9.570312 19.515625 -7.96875 Z M 19.515625 -7.96875 "/></g></g></g><g fill="#89683a" fill-opacity="1"><g transform="translate(684.391044, 85.031134)"><g><path d="M 12.578125 -7.96875 L 12.71875 -7.96875 C 14.226562 -7.832031 15.738281 -7.765625 17.25 -7.765625 C 18.488281 -7.765625 19.710938 -7.773438 20.921875 -7.796875 C 22.140625 -7.816406 23.363281 -7.851562 24.59375 -7.90625 C 25.789062 -7.945312 26.992188 -8.035156 28.203125 -8.171875 C 29.421875 -8.316406 30.625 -8.523438 31.8125 -8.796875 C 32 -8.835938 32.160156 -8.867188 32.296875 -8.890625 C 32.429688 -8.921875 32.59375 -8.957031 32.78125 -9 C 33.144531 -9.09375 33.441406 -9.140625 33.671875 -9.140625 C 34.773438 -9.140625 35.679688 -8.738281 36.390625 -7.9375 C 37.097656 -7.132812 37.453125 -6.207031 37.453125 -5.15625 C 37.453125 -4.1875 37.117188 -3.394531 36.453125 -2.78125 C 35.785156 -2.164062 34.992188 -1.71875 34.078125 -1.4375 C 32.929688 -1.125 31.535156 -0.863281 29.890625 -0.65625 C 28.242188 -0.445312 26.523438 -0.296875 24.734375 -0.203125 C 22.953125 -0.109375 21.203125 -0.0507812 19.484375 -0.03125 C 17.765625 -0.0078125 16.265625 0 14.984375 0 C 14.109375 0 13.117188 -0.03125 12.015625 -0.09375 C 10.921875 -0.164062 9.867188 -0.363281 8.859375 -0.6875 C 7.859375 -1.007812 6.976562 -1.46875 6.21875 -2.0625 C 5.457031 -2.65625 4.988281 -3.457031 4.8125 -4.46875 C 4.757812 -4.789062 4.722656 -5.097656 4.703125 -5.390625 C 4.679688 -5.691406 4.671875 -6.003906 4.671875 -6.328125 C 4.671875 -10.722656 4.726562 -15.082031 4.84375 -19.40625 C 4.957031 -23.738281 5.0625 -28.082031 5.15625 -32.4375 C 5.195312 -34.3125 5.207031 -36.15625 5.1875 -37.96875 C 5.164062 -39.78125 5.242188 -41.601562 5.421875 -43.4375 C 5.515625 -44.488281 5.914062 -45.332031 6.625 -45.96875 C 7.34375 -46.613281 8.25 -46.9375 9.34375 -46.9375 C 10.53125 -46.9375 11.476562 -46.554688 12.1875 -45.796875 C 12.90625 -45.046875 13.265625 -44.117188 13.265625 -43.015625 C 13.265625 -41.921875 13.238281 -40.8125 13.1875 -39.6875 C 13.144531 -38.5625 13.101562 -37.453125 13.0625 -36.359375 C 12.96875 -33.328125 12.894531 -30.34375 12.84375 -27.40625 C 12.800781 -24.476562 12.757812 -21.523438 12.71875 -18.546875 C 12.664062 -16.804688 12.628906 -15.066406 12.609375 -13.328125 C 12.585938 -11.585938 12.578125 -9.847656 12.578125 -8.109375 Z M 12.578125 -7.96875 "/></g></g></g><g fill="#89683a" fill-opacity="1"><g transform="translate(732.772501, 85.031134)"><g><path d="M 30.65625 -43.703125 C 30.738281 -44.066406 30.859375 -44.441406 31.015625 -44.828125 C 31.179688 -45.222656 31.445312 -45.601562 31.8125 -45.96875 C 32.59375 -46.613281 33.441406 -46.9375 34.359375 -46.9375 C 35.179688 -46.9375 35.851562 -46.773438 36.375 -46.453125 C 36.90625 -46.128906 37.304688 -45.703125 37.578125 -45.171875 C 37.859375 -44.648438 38.054688 -44.054688 38.171875 -43.390625 C 38.285156 -42.734375 38.34375 -42.0625 38.34375 -41.375 C 38.34375 -40.726562 38.304688 -40.117188 38.234375 -39.546875 C 38.171875 -38.972656 38.140625 -38.363281 38.140625 -37.71875 C 38.140625 -36.625 38.113281 -35.535156 38.0625 -34.453125 C 38.019531 -33.378906 37.976562 -32.269531 37.9375 -31.125 C 37.882812 -30.03125 37.867188 -28.941406 37.890625 -27.859375 C 37.921875 -26.785156 37.890625 -25.695312 37.796875 -24.59375 C 37.703125 -22.675781 37.445312 -20.789062 37.03125 -18.9375 C 36.625 -17.082031 36.144531 -15.238281 35.59375 -13.40625 C 34.957031 -11.207031 34.03125 -9.117188 32.8125 -7.140625 C 31.59375 -5.171875 30.070312 -3.523438 28.25 -2.203125 C 27.238281 -1.460938 26.101562 -0.910156 24.84375 -0.546875 C 23.582031 -0.179688 22.359375 0 21.171875 0 C 19.703125 0 18.289062 -0.285156 16.9375 -0.859375 C 15.582031 -1.429688 14.359375 -2.15625 13.265625 -3.03125 C 10.929688 -5 9.15625 -7.46875 7.9375 -10.4375 C 6.71875 -13.414062 5.859375 -16.578125 5.359375 -19.921875 C 4.859375 -23.316406 4.582031 -26.71875 4.53125 -30.125 C 4.488281 -33.539062 4.46875 -36.644531 4.46875 -39.4375 C 4.46875 -39.8125 4.453125 -40.191406 4.421875 -40.578125 C 4.398438 -40.960938 4.390625 -41.34375 4.390625 -41.71875 C 4.390625 -42.945312 4.675781 -44.019531 5.25 -44.9375 C 5.820312 -45.851562 6.796875 -46.3125 8.171875 -46.3125 C 9.234375 -46.3125 10.140625 -45.96875 10.890625 -45.28125 C 11.648438 -44.59375 12.03125 -43.722656 12.03125 -42.671875 C 12.03125 -41.429688 12.015625 -40.191406 11.984375 -38.953125 C 11.960938 -37.722656 11.953125 -36.488281 11.953125 -35.25 C 11.953125 -33.414062 11.984375 -31.25 12.046875 -28.75 C 12.117188 -26.257812 12.347656 -23.742188 12.734375 -21.203125 C 13.128906 -18.660156 13.726562 -16.265625 14.53125 -14.015625 C 15.332031 -11.773438 16.46875 -9.988281 17.9375 -8.65625 C 18.800781 -7.875 19.785156 -7.484375 20.890625 -7.484375 C 21.535156 -7.484375 22.117188 -7.585938 22.640625 -7.796875 C 23.171875 -8.003906 23.6875 -8.289062 24.1875 -8.65625 C 25.832031 -9.84375 27.09375 -11.59375 27.96875 -13.90625 C 28.84375 -16.226562 29.460938 -18.691406 29.828125 -21.296875 C 30.191406 -23.953125 30.40625 -26.570312 30.46875 -29.15625 C 30.539062 -31.75 30.578125 -33.941406 30.578125 -35.734375 C 30.578125 -36.648438 30.585938 -37.53125 30.609375 -38.375 C 30.640625 -39.226562 30.65625 -40.113281 30.65625 -41.03125 C 30.65625 -41.53125 30.640625 -42 30.609375 -42.4375 C 30.585938 -42.875 30.601562 -43.296875 30.65625 -43.703125 Z M 30.65625 -43.703125 "/></g></g></g><g fill="#89683a" fill-opacity="1"><g transform="translate(781.360157, 85.031134)"><g><path d="M 17.046875 -39.171875 L 16.90625 -39.171875 C 16.082031 -39.210938 15.253906 -39.234375 14.421875 -39.234375 C 13.597656 -39.234375 12.773438 -39.234375 11.953125 -39.234375 C 11.316406 -39.234375 10.65625 -39.207031 9.96875 -39.15625 C 9.28125 -39.113281 8.613281 -39.09375 7.96875 -39.09375 C 6.957031 -39.09375 6.085938 -39.457031 5.359375 -40.1875 C 4.628906 -40.925781 4.265625 -41.78125 4.265625 -42.75 C 4.265625 -43.800781 4.59375 -44.65625 5.25 -45.3125 C 5.914062 -45.976562 6.773438 -46.359375 7.828125 -46.453125 C 8.929688 -46.546875 10.054688 -46.601562 11.203125 -46.625 C 12.347656 -46.644531 13.46875 -46.65625 14.5625 -46.65625 C 16.90625 -46.65625 19.242188 -46.617188 21.578125 -46.546875 C 23.910156 -46.484375 26.269531 -46.453125 28.65625 -46.453125 C 31.039062 -46.453125 33.398438 -46.519531 35.734375 -46.65625 C 36.285156 -46.707031 36.832031 -46.753906 37.375 -46.796875 C 37.925781 -46.835938 38.457031 -46.882812 38.96875 -46.9375 L 39.375 -46.9375 C 40.425781 -46.9375 41.316406 -46.59375 42.046875 -45.90625 C 42.785156 -45.21875 43.15625 -44.347656 43.15625 -43.296875 C 43.15625 -42.785156 43.03125 -42.242188 42.78125 -41.671875 C 42.53125 -41.097656 42.195312 -40.65625 41.78125 -40.34375 C 41.226562 -39.882812 40.519531 -39.609375 39.65625 -39.515625 C 38.875 -39.421875 38.113281 -39.375 37.375 -39.375 C 36.644531 -39.375 35.890625 -39.351562 35.109375 -39.3125 C 33.421875 -39.21875 31.726562 -39.144531 30.03125 -39.09375 C 28.332031 -39.050781 26.613281 -39.03125 24.875 -39.03125 L 24.734375 -39.03125 L 24.734375 -38.890625 C 24.734375 -32.984375 24.78125 -27.117188 24.875 -21.296875 C 24.96875 -15.484375 25.015625 -9.617188 25.015625 -3.703125 C 25.015625 -2.648438 24.632812 -1.769531 23.875 -1.0625 C 23.125 -0.351562 22.222656 0 21.171875 0 C 19.566406 0 18.460938 -0.734375 17.859375 -2.203125 C 17.722656 -2.472656 17.628906 -2.734375 17.578125 -2.984375 C 17.535156 -3.242188 17.492188 -3.507812 17.453125 -3.78125 C 17.410156 -4.050781 17.390625 -4.320312 17.390625 -4.59375 C 17.390625 -4.875 17.390625 -5.148438 17.390625 -5.421875 C 17.390625 -8.316406 17.390625 -11.179688 17.390625 -14.015625 C 17.390625 -16.859375 17.34375 -19.722656 17.25 -22.609375 C 17.195312 -25.359375 17.148438 -28.09375 17.109375 -30.8125 C 17.066406 -33.539062 17.046875 -36.28125 17.046875 -39.03125 Z M 17.046875 -39.171875 "/></g></g></g><g fill="#89683a" fill-opacity="1"><g transform="translate(834.208666, 85.031134)"><g><path d="M 5.359375 -3.703125 C 5.359375 -7.003906 5.359375 -10.289062 5.359375 -13.5625 C 5.359375 -16.84375 5.335938 -20.132812 5.296875 -23.4375 C 5.242188 -26.726562 5.160156 -30 5.046875 -33.25 C 4.929688 -36.507812 4.828125 -39.789062 4.734375 -43.09375 L 4.734375 -43.296875 C 4.734375 -44.347656 5.097656 -45.21875 5.828125 -45.90625 C 6.566406 -46.59375 7.460938 -46.9375 8.515625 -46.9375 C 9.578125 -46.9375 10.445312 -46.59375 11.125 -45.90625 C 11.8125 -45.21875 12.226562 -44.394531 12.375 -43.4375 C 12.507812 -42.375 12.5625 -41.304688 12.53125 -40.234375 C 12.507812 -39.160156 12.523438 -38.097656 12.578125 -37.046875 C 12.710938 -31.453125 12.800781 -25.894531 12.84375 -20.375 C 12.894531 -14.851562 12.921875 -9.296875 12.921875 -3.703125 C 12.921875 -2.703125 12.550781 -1.832031 11.8125 -1.09375 C 11.082031 -0.363281 10.191406 0 9.140625 0 C 7.992188 0 7.078125 -0.34375 6.390625 -1.03125 C 5.703125 -1.71875 5.359375 -2.609375 5.359375 -3.703125 Z M 5.359375 -3.703125 "/></g></g></g><g fill="#89683a" fill-opacity="1"><g transform="translate(858.124461, 85.031134)"><g><path d="M 14.78125 -2.609375 C 13.582031 -3.429688 12.457031 -4.390625 11.40625 -5.484375 C 10.351562 -6.585938 9.398438 -7.78125 8.546875 -9.0625 C 7.703125 -10.351562 6.984375 -11.707031 6.390625 -13.125 C 5.796875 -14.539062 5.359375 -15.9375 5.078125 -17.3125 C 4.898438 -18.226562 4.765625 -19.144531 4.671875 -20.0625 C 4.578125 -20.976562 4.53125 -21.894531 4.53125 -22.8125 C 4.53125 -25.375 4.929688 -28.078125 5.734375 -30.921875 C 6.535156 -33.765625 7.710938 -36.375 9.265625 -38.75 C 10.828125 -41.132812 12.753906 -43.09375 15.046875 -44.625 C 17.335938 -46.164062 19.992188 -46.9375 23.015625 -46.9375 C 25.816406 -46.9375 28.328125 -46.238281 30.546875 -44.84375 C 32.765625 -43.445312 34.664062 -41.671875 36.25 -39.515625 C 37.832031 -37.359375 39.046875 -34.972656 39.890625 -32.359375 C 40.734375 -29.753906 41.15625 -27.210938 41.15625 -24.734375 C 41.15625 -22.816406 40.984375 -20.867188 40.640625 -18.890625 C 40.296875 -16.921875 39.769531 -15 39.0625 -13.125 C 38.351562 -11.25 37.457031 -9.484375 36.375 -7.828125 C 35.300781 -6.179688 34.007812 -4.695312 32.5 -3.375 C 31.175781 -2.269531 29.789062 -1.429688 28.34375 -0.859375 C 26.90625 -0.285156 25.289062 0 23.5 0 C 21.945312 0 20.425781 -0.203125 18.9375 -0.609375 C 17.445312 -1.023438 16.0625 -1.691406 14.78125 -2.609375 Z M 19.515625 -7.96875 C 19.742188 -7.875 19.960938 -7.757812 20.171875 -7.625 C 20.378906 -7.488281 20.597656 -7.351562 20.828125 -7.21875 C 21.054688 -7.125 21.296875 -7.03125 21.546875 -6.9375 C 21.796875 -6.84375 22.035156 -6.796875 22.265625 -6.796875 C 22.859375 -6.796875 23.53125 -6.863281 24.28125 -7 C 25.039062 -7.144531 25.675781 -7.351562 26.1875 -7.625 C 26.726562 -7.945312 27.238281 -8.335938 27.71875 -8.796875 C 28.207031 -9.253906 28.632812 -9.710938 29 -10.171875 C 30.46875 -12.097656 31.578125 -14.203125 32.328125 -16.484375 C 33.085938 -18.773438 33.46875 -21.113281 33.46875 -23.5 C 33.46875 -24.78125 33.351562 -26.140625 33.125 -27.578125 C 32.894531 -29.023438 32.523438 -30.425781 32.015625 -31.78125 C 31.515625 -33.132812 30.863281 -34.40625 30.0625 -35.59375 C 29.257812 -36.789062 28.285156 -37.800781 27.140625 -38.625 C 26.679688 -38.894531 26.175781 -39.191406 25.625 -39.515625 C 25.082031 -39.835938 24.515625 -40 23.921875 -40 C 23.234375 -40 22.53125 -39.925781 21.8125 -39.78125 C 21.101562 -39.644531 20.429688 -39.414062 19.796875 -39.09375 C 18.554688 -38.40625 17.453125 -37.421875 16.484375 -36.140625 C 15.523438 -34.859375 14.710938 -33.4375 14.046875 -31.875 C 13.390625 -30.320312 12.898438 -28.742188 12.578125 -27.140625 C 12.253906 -25.535156 12.09375 -24.070312 12.09375 -22.75 C 12.09375 -19.90625 12.695312 -17.128906 13.90625 -14.421875 C 15.125 -11.722656 16.992188 -9.570312 19.515625 -7.96875 Z M 19.515625 -7.96875 "/></g></g></g><g fill="#89683a" fill-opacity="1"><g transform="translate(909.942206, 85.031134)"><g><path d="M 30.859375 -16.21875 L 30.859375 -16.703125 C 30.992188 -21.140625 31.101562 -25.554688 31.1875 -29.953125 C 31.28125 -34.359375 31.328125 -38.78125 31.328125 -43.21875 C 31.328125 -44.269531 31.707031 -45.148438 32.46875 -45.859375 C 33.226562 -46.578125 34.132812 -46.9375 35.1875 -46.9375 C 36.238281 -46.9375 37.117188 -46.566406 37.828125 -45.828125 C 38.535156 -45.097656 38.890625 -44.226562 38.890625 -43.21875 C 38.890625 -38.226562 38.84375 -33.269531 38.75 -28.34375 C 38.664062 -23.414062 38.53125 -18.457031 38.34375 -13.46875 C 38.300781 -12.96875 38.28125 -12.242188 38.28125 -11.296875 C 38.28125 -10.359375 38.253906 -9.363281 38.203125 -8.3125 C 38.160156 -7.257812 38.101562 -6.296875 38.03125 -5.421875 C 37.96875 -4.554688 37.863281 -3.941406 37.71875 -3.578125 C 37.5 -2.835938 37.019531 -2.34375 36.28125 -2.09375 C 35.550781 -1.84375 34.816406 -1.71875 34.078125 -1.71875 C 32.929688 -1.71875 31.945312 -2.109375 31.125 -2.890625 C 30.625 -3.390625 30.144531 -3.925781 29.6875 -4.5 C 29.226562 -5.070312 28.789062 -5.679688 28.375 -6.328125 C 27.914062 -6.960938 27.476562 -7.585938 27.0625 -8.203125 C 26.65625 -8.828125 26.25 -9.4375 25.84375 -10.03125 C 23.5 -13.332031 21.257812 -16.675781 19.125 -20.0625 C 17 -23.457031 14.90625 -26.875 12.84375 -30.3125 L 12.578125 -30.71875 L 12.578125 -26.59375 C 12.578125 -24.394531 12.578125 -22.21875 12.578125 -20.0625 C 12.578125 -17.914062 12.625 -15.738281 12.71875 -13.53125 C 12.757812 -12.570312 12.789062 -11.597656 12.8125 -10.609375 C 12.832031 -9.628906 12.867188 -8.660156 12.921875 -7.703125 C 12.960938 -7.015625 13.003906 -6.328125 13.046875 -5.640625 C 13.097656 -4.953125 13.125 -4.265625 13.125 -3.578125 C 13.125 -2.523438 12.734375 -1.664062 11.953125 -1 C 11.171875 -0.332031 10.253906 0 9.203125 0 C 8.203125 0 7.390625 -0.296875 6.765625 -0.890625 C 6.148438 -1.484375 5.75 -2.238281 5.5625 -3.15625 C 5.382812 -3.976562 5.257812 -4.8125 5.1875 -5.65625 C 5.113281 -6.507812 5.054688 -7.347656 5.015625 -8.171875 C 5.015625 -9.046875 5.015625 -9.914062 5.015625 -10.78125 C 5.015625 -11.65625 4.992188 -12.503906 4.953125 -13.328125 C 4.859375 -15.160156 4.8125 -16.984375 4.8125 -18.796875 C 4.8125 -20.609375 4.8125 -22.425781 4.8125 -24.25 C 4.8125 -27 4.832031 -29.757812 4.875 -32.53125 C 4.925781 -35.3125 5.109375 -38.070312 5.421875 -40.8125 C 5.515625 -41.414062 5.628906 -42.023438 5.765625 -42.640625 C 5.910156 -43.253906 6.140625 -43.816406 6.453125 -44.328125 C 7.234375 -45.742188 8.472656 -46.453125 10.171875 -46.453125 C 10.398438 -46.453125 10.613281 -46.441406 10.8125 -46.421875 C 11.019531 -46.398438 11.238281 -46.363281 11.46875 -46.3125 C 11.75 -46.269531 12.195312 -45.867188 12.8125 -45.109375 C 13.4375 -44.359375 14.171875 -43.363281 15.015625 -42.125 C 15.859375 -40.882812 16.785156 -39.472656 17.796875 -37.890625 C 18.804688 -36.316406 19.835938 -34.660156 20.890625 -32.921875 C 21.941406 -31.222656 22.972656 -29.515625 23.984375 -27.796875 C 24.992188 -26.078125 25.929688 -24.472656 26.796875 -22.984375 C 27.671875 -21.492188 28.4375 -20.195312 29.09375 -19.09375 C 29.757812 -18 30.253906 -17.175781 30.578125 -16.625 Z M 30.859375 -16.21875 "/></g></g></g><g fill="#89683a" fill-opacity="1"><g transform="translate(960.110445, 85.031134)"><g><path d="M 5.703125 -10.171875 C 5.515625 -10.535156 5.296875 -10.992188 5.046875 -11.546875 C 4.796875 -12.097656 4.554688 -12.671875 4.328125 -13.265625 C 4.097656 -13.859375 3.898438 -14.414062 3.734375 -14.9375 C 3.578125 -15.46875 3.5 -15.914062 3.5 -16.28125 C 3.5 -17.195312 3.875 -18.007812 4.625 -18.71875 C 5.382812 -19.4375 6.25 -19.796875 7.21875 -19.796875 C 8.082031 -19.796875 8.765625 -19.578125 9.265625 -19.140625 C 9.773438 -18.703125 10.191406 -18.09375 10.515625 -17.3125 C 10.835938 -16.539062 11.15625 -15.765625 11.46875 -14.984375 C 11.789062 -14.203125 12.132812 -13.421875 12.5 -12.640625 C 12.875 -11.859375 13.300781 -11.101562 13.78125 -10.375 C 14.257812 -9.644531 14.820312 -8.957031 15.46875 -8.3125 C 15.96875 -7.8125 16.503906 -7.46875 17.078125 -7.28125 C 17.648438 -7.101562 18.28125 -7.015625 18.96875 -7.015625 C 19.601562 -7.015625 20.21875 -7.082031 20.8125 -7.21875 C 21.414062 -7.351562 22.015625 -7.535156 22.609375 -7.765625 C 24.210938 -8.410156 25.585938 -9.328125 26.734375 -10.515625 C 27.878906 -11.703125 28.453125 -13.238281 28.453125 -15.125 C 28.453125 -16.351562 27.96875 -17.359375 27 -18.140625 C 26.632812 -18.503906 26.210938 -18.789062 25.734375 -19 C 25.253906 -19.207031 24.757812 -19.425781 24.25 -19.65625 C 23.75 -19.832031 23.242188 -19.988281 22.734375 -20.125 C 22.234375 -20.269531 21.753906 -20.429688 21.296875 -20.609375 C 19.378906 -21.253906 17.582031 -21.929688 15.90625 -22.640625 C 14.238281 -23.347656 12.785156 -24.226562 11.546875 -25.28125 C 10.304688 -26.34375 9.332031 -27.628906 8.625 -29.140625 C 7.914062 -30.648438 7.5625 -32.523438 7.5625 -34.765625 C 7.5625 -36.648438 7.867188 -38.335938 8.484375 -39.828125 C 9.109375 -41.316406 9.976562 -42.585938 11.09375 -43.640625 C 12.21875 -44.691406 13.554688 -45.503906 15.109375 -46.078125 C 16.671875 -46.648438 18.390625 -46.9375 20.265625 -46.9375 C 21.867188 -46.9375 23.425781 -46.679688 24.9375 -46.171875 C 26.457031 -45.671875 27.867188 -44.984375 29.171875 -44.109375 C 30.472656 -43.242188 31.640625 -42.210938 32.671875 -41.015625 C 33.703125 -39.828125 34.515625 -38.546875 35.109375 -37.171875 C 35.203125 -36.941406 35.296875 -36.691406 35.390625 -36.421875 C 35.484375 -36.148438 35.53125 -35.875 35.53125 -35.59375 C 35.53125 -34.632812 35.1875 -33.796875 34.5 -33.078125 C 33.8125 -32.367188 32.960938 -32.015625 31.953125 -32.015625 C 30.484375 -32.015625 29.382812 -32.726562 28.65625 -34.15625 C 28.101562 -35.113281 27.550781 -35.9375 27 -36.625 C 26.457031 -37.3125 25.65625 -37.976562 24.59375 -38.625 C 23.957031 -38.988281 23.269531 -39.296875 22.53125 -39.546875 C 21.800781 -39.796875 21.046875 -39.921875 20.265625 -39.921875 C 18.660156 -39.921875 17.34375 -39.539062 16.3125 -38.78125 C 15.289062 -38.03125 14.78125 -36.804688 14.78125 -35.109375 C 14.78125 -33.503906 15.125 -32.207031 15.8125 -31.21875 C 16.5 -30.238281 17.570312 -29.453125 19.03125 -28.859375 C 19.945312 -28.492188 20.894531 -28.160156 21.875 -27.859375 C 22.863281 -27.566406 23.816406 -27.238281 24.734375 -26.875 C 25.742188 -26.5 26.707031 -26.140625 27.625 -25.796875 C 28.539062 -25.453125 29.390625 -25.03125 30.171875 -24.53125 C 31.773438 -23.570312 33.09375 -22.359375 34.125 -20.890625 C 35.15625 -19.421875 35.671875 -17.472656 35.671875 -15.046875 C 35.671875 -13.304688 35.40625 -11.703125 34.875 -10.234375 C 34.34375 -8.773438 33.484375 -7.378906 32.296875 -6.046875 C 30.597656 -4.265625 28.601562 -2.8125 26.3125 -1.6875 C 24.03125 -0.5625 21.628906 0 19.109375 0 C 17.410156 0 15.875 -0.257812 14.5 -0.78125 C 13.125 -1.3125 11.894531 -2.035156 10.8125 -2.953125 C 9.738281 -3.867188 8.789062 -4.945312 7.96875 -6.1875 C 7.144531 -7.425781 6.390625 -8.753906 5.703125 -10.171875 Z M 5.703125 -10.171875 "/></g></g></g></g></g></g></g></g></svg>